<?xml version="1.0" encoding="UTF-8" standalone="no"?>
<!-- Generator: flash2svg, http://dissentgraphics.com/tools/flash2svg -->

<svg
   xmlns:dc="http://purl.org/dc/elements/1.1/"
   xmlns:cc="http://creativecommons.org/ns#"
   xmlns:rdf="http://www.w3.org/1999/02/22-rdf-syntax-ns#"
   xmlns:svg="http://www.w3.org/2000/svg"
   xmlns="http://www.w3.org/2000/svg"
   xmlns:sodipodi="http://sodipodi.sourceforge.net/DTD/sodipodi-0.dtd"
   xmlns:inkscape="http://www.inkscape.org/namespaces/inkscape"
   id="Scene-1"
   image-rendering="optimizeSpeed"
   version="1.1"
   x="0px"
   y="0px"
   width="980"
   height="720"
   viewBox="0 0 980 720"
   enable-background="new 0 0 1003 605"
   inkscape:version="0.48.4 r9939"
   sodipodi:docname="Scene-1.svg">
  <metadata
     id="metadata141">
    <rdf:RDF>
      <cc:Work
         rdf:about="">
        <dc:format>image/svg+xml</dc:format>
        <dc:type
           rdf:resource="http://purl.org/dc/dcmitype/StillImage" />
      </cc:Work>
    </rdf:RDF>
  </metadata>
  <sodipodi:namedview
     pagecolor="#ffffff"
     bordercolor="#666666"
     borderopacity="1"
     objecttolerance="10"
     gridtolerance="10"
     guidetolerance="10"
     inkscape:pageopacity="0"
     inkscape:pageshadow="2"
     inkscape:window-width="1600"
     inkscape:window-height="838"
     id="namedview139"
     showgrid="false"
     inkscape:zoom="0.78475134"
     inkscape:cx="566.94165"
     inkscape:cy="359.25002"
     inkscape:window-x="-8"
     inkscape:window-y="-8"
     inkscape:window-maximized="1"
     inkscape:current-layer="Layer.__2013"
     borderlayer="true" />
  <defs
     transform="matrix(1 0 0 1 0 0) "
     id="defs3">
    <radialGradient
       gradientUnits="userSpaceOnUse"
       color-interpolation="sRGB"
       r="580.56299"
       cx="500.29999"
       cy="301.5"
       fx="500.29999"
       fy="301.5"
       gradientTransform="translate(0.05,0.05)"
       id="radialGradient1">
      <stop
         stop-color="#ECEEED"
         stop-opacity="1"
         offset="0"
         id="stop6" />
      <stop
         stop-color="#A7BCC2"
         stop-opacity="1"
         offset="1"
         id="stop8" />
    </radialGradient>
    <linearGradient
       gradientUnits="userSpaceOnUse"
       color-interpolation="sRGB"
       x1="212.077"
       y1="255.584"
       x2="309.022"
       y2="255.584"
       id="linearGradient10">
      <stop
         stop-color="#E5EBED"
         stop-opacity="1"
         offset="0"
         id="stop11" />
      <stop
         stop-color="#EEEEEE"
         stop-opacity="1"
         offset="1"
         id="stop13" />
    </linearGradient>
    <linearGradient
       gradientUnits="userSpaceOnUse"
       color-interpolation="sRGB"
       x1="703.70001"
       y1="149"
       x2="476"
       y2="149"
       id="linearGradient11">
      <stop
         stop-color="#016780"
         stop-opacity="1"
         offset="0"
         id="stop16" />
      <stop
         stop-color="#016780"
         stop-opacity="1"
         offset="1"
         id="stop18" />
    </linearGradient>
    <linearGradient
       gradientUnits="userSpaceOnUse"
       color-interpolation="sRGB"
       x1="703.70001"
       y1="149"
       x2="476"
       y2="149"
       id="linearGradient12">
      <stop
         stop-color="#00A5C6"
         stop-opacity="1"
         offset="0"
         id="stop21" />
      <stop
         stop-color="#02637B"
         stop-opacity="1"
         offset="1"
         id="stop23" />
    </linearGradient>
    <linearGradient
       gradientUnits="userSpaceOnUse"
       color-interpolation="sRGB"
       x1="703.70001"
       y1="256.10001"
       x2="476"
       y2="256.10001"
       id="linearGradient13">
      <stop
         stop-color="#2A2C33"
         stop-opacity="1"
         offset="0"
         id="stop26" />
      <stop
         stop-color="#2A2C33"
         stop-opacity="1"
         offset="1"
         id="stop28" />
    </linearGradient>
    <linearGradient
       gradientUnits="userSpaceOnUse"
       color-interpolation="sRGB"
       x1="703.70001"
       y1="256.10001"
       x2="476"
       y2="256.10001"
       id="linearGradient14">
      <stop
         stop-color="#3E414A"
         stop-opacity="1"
         offset="0"
         id="stop31" />
      <stop
         stop-color="#2B2E35"
         stop-opacity="1"
         offset="1"
         id="stop33" />
    </linearGradient>
    <linearGradient
       gradientUnits="userSpaceOnUse"
       color-interpolation="sRGB"
       x1="703.70001"
       y1="363.14999"
       x2="476"
       y2="363.14999"
       id="linearGradient15">
      <stop
         stop-color="#CD5A01"
         stop-opacity="1"
         offset="0"
         id="stop36" />
      <stop
         stop-color="#A34801"
         stop-opacity="1"
         offset="1"
         id="stop38" />
    </linearGradient>
    <linearGradient
       gradientUnits="userSpaceOnUse"
       color-interpolation="sRGB"
       x1="703.70001"
       y1="363.14999"
       x2="476"
       y2="363.14999"
       id="linearGradient16">
      <stop
         stop-color="#E06708"
         stop-opacity="1"
         offset="0"
         id="stop41" />
      <stop
         stop-color="#CD5A01"
         stop-opacity="1"
         offset="1"
         id="stop43" />
    </linearGradient>
    <linearGradient
       gradientUnits="userSpaceOnUse"
       color-interpolation="sRGB"
       x1="703.70001"
       y1="470.25"
       x2="476"
       y2="470.25"
       id="linearGradient17">
      <stop
         stop-color="#E98B1A"
         stop-opacity="1"
         offset="0"
         id="stop46" />
      <stop
         stop-color="#D77413"
         stop-opacity="1"
         offset="1"
         id="stop48" />
    </linearGradient>
    <linearGradient
       gradientUnits="userSpaceOnUse"
       color-interpolation="sRGB"
       x1="703.70001"
       y1="470.25"
       x2="476"
       y2="470.25"
       id="linearGradient18">
      <stop
         stop-color="#B85D01"
         stop-opacity="1"
         offset="0"
         id="stop51" />
      <stop
         stop-color="#BB5D00"
         stop-opacity="1"
         offset="1"
         id="stop53" />
    </linearGradient>
    <linearGradient
       gradientUnits="userSpaceOnUse"
       color-interpolation="sRGB"
       x1="550.04999"
       y1="540.15002"
       x2="550.04999"
       y2="78.949997"
       id="linearGradient19">
      <stop
         stop-color="#CFD9DB"
         stop-opacity="1"
         offset="0"
         id="stop56" />
      <stop
         stop-color="#F3F3F3"
         stop-opacity="1"
         offset="0.52549"
         id="stop58" />
      <stop
         stop-color="#D0DADC"
         stop-opacity="1"
         offset="1"
         id="stop60" />
    </linearGradient>
  </defs>
  <g
     id="Layer.__2011"
     transform="matrix(1,0,0,1.2252956,-8,-3.7468283)">
    <g
       id="drawingObject">
      <path
         id="path"
         d="m 1002.85,-1.15 -1005.2,0 0,605.2 1005.2,0 0,-605.2 z"
         inkscape:connector-curvature="0"
         style="fill:url(#radialGradient1);fill-opacity:1" />
    </g>
  </g>
  <g
     id="Layer.__2012"
     transform="matrix(1.1512982,0,0,1.1272491,-78.017635,33.613225)">
    <g
       id="group">
      <g
         id="group1">
        <g
           id="drawingObject1">
          <path
             id="path1"
             d="m 247.053,302.41 q -1.074,1.682 -4.582,4.152 l 35.835,0 c -4.081,-2.899 -6.015,-4.439 -6.48,-11.348 l -22.876,0 q -0.322,4.797 -1.897,7.196 z"
             inkscape:connector-curvature="0"
             style="fill:#2c2f36;fill-opacity:1" />
        </g>
      </g>
      <g
         id="drawingObject2">
        <path
           id="path2"
           d="m 311.026,230.56 c 0,-2.148 -1.718,-3.866 -3.794,-3.866 l -93.329,0 c -2.077,0 -3.795,1.718 -3.795,3.866 l 0,61.718 c 0,2.148 1.718,3.867 3.795,3.867 l 93.329,0 c 2.076,0 3.794,-1.719 3.794,-3.867 l 0,-61.718 z"
           inkscape:connector-curvature="0"
           style="fill:#ffffff;fill-opacity:1" />
      </g>
      <g
         id="drawingObject3">
        <path
           id="path3"
           d="m 310.95,231 c 0,-2.1 -1.7,-3.8 -3.8,-3.8 l -93.2,0 c -2.1,0 -3.75,1.7 -3.75,3.8 l 0,60.45 c 0,2.1 1.65,3.75 3.75,3.75 l 93.2,0 c 2.1,0 3.8,-1.65 3.8,-3.75 l 0,-60.45 z"
           inkscape:connector-curvature="0"
           style="fill:#2c2f36;fill-opacity:1" />
      </g>
      <g
         id="drawingObject4">
        <path
           id="path4"
           d="m 310.955,231.24 c 0,-2.076 -1.719,-3.759 -3.795,-3.759 l -93.222,0 c -2.076,0 -3.759,1.683 -3.759,3.759 l 0,52.912 100.776,0 0,-52.912 z"
           inkscape:connector-curvature="0"
           style="fill:#373535;fill-opacity:1" />
      </g>
      <g
         id="drawingObject5">
        <path
           id="path5"
           d="m 309.057,230.668 -0.823,0.751 -0.251,48.007 -94.796,0.537 -1.146,0.537 97.016,0 0,-49.832 z"
           inkscape:connector-curvature="0"
           style="fill:#ffffff;fill-opacity:1" />
      </g>
      <g
         id="drawingObject6">
        <path
           id="path6"
           d="m 210.179,282.97 0,0.358 100.776,0 0,-0.358 -100.776,0 z"
           inkscape:connector-curvature="0"
           style="fill:#373535;fill-opacity:1" />
      </g>
      <g
         id="drawingObject7">
        <path
           id="path7"
           d="m 242.527,306.481 0,2.1 35.6,0 0,-2.1 -35.6,0 z"
           inkscape:connector-curvature="0"
           style="fill:#25282e;fill-opacity:1" />
      </g>
      <g
         id="drawingObject8">
        <path
           id="path8"
           d="m 212.685,230.99 0,49.188 95.764,0 0,-49.188 -95.764,0 z"
           inkscape:connector-curvature="0"
           style="fill:url(#linearGradient10);fill-opacity:1" />
      </g>
    </g>
    <g
       id="group2"
       transform="translate(259.51748,255.13374)">
      <path
         id="path9"
         d="m 37.251,-14.199 c -3.95,-3.95 -8.7,-5.95 -14.3,-5.95 -5.55,0 -10.3,2 -14.25,5.95 -3.95,3.95 -5.9,8.7 -5.9,14.25 0,5.6 1.95,10.35 5.9,14.3 3.95,3.95 8.7,5.9 14.25,5.9 5.6,0 10.35,-1.95 14.3,-5.9 3.95,-3.95 5.9,-8.7 5.9,-14.3 0,-5.55 -1.95,-10.3 -5.9,-14.25 z m -3.9,3.85 c 2.9,2.85 4.35,6.35 4.35,10.4 0,4.05 -1.45,7.55 -4.35,10.4 -2.85,2.85 -6.3,4.3 -10.4,4.3 -4.05,0 -7.5,-1.45 -10.4,-4.3 -2.85,-2.85 -4.3,-6.35 -4.3,-10.4 0,-4.05 1.45,-7.55 4.3,-10.4 2.9,-2.85 6.35,-4.3 10.4,-4.3 4.1,0 7.55,1.45 10.4,4.3 z"
         inkscape:connector-curvature="0"
         style="fill:#d55f04;fill-opacity:1" />
      <path
         id="path13"
         d="m -8.549,14.351 c 3.95,-3.95 5.9,-8.7 5.9,-14.3 0,-5.55 -1.95,-10.3 -5.9,-14.25 q -5.9,-5.95 -14.3,-5.95 c -5.55,0 -10.3,2 -14.25,5.95 -3.95,3.95 -5.9,8.7 -5.9,14.25 0,5.6 1.95,10.35 5.9,14.3 3.95,3.95 8.7,5.9 14.25,5.9 5.6,0 10.35,-1.95 14.3,-5.9 z m -3.9,-3.9 c -2.85,2.85 -6.3,4.3 -10.4,4.3 -4.05,0 -7.5,-1.45 -10.4,-4.3 -2.85,-2.85 -4.3,-6.35 -4.3,-10.4 0,-4.05 1.45,-7.55 4.3,-10.4 2.9,-2.85 6.35,-4.3 10.4,-4.3 4.1,0 7.55,1.45 10.4,4.3 2.9,2.85 4.35,6.35 4.35,10.4 0,4.05 -1.45,7.55 -4.35,10.4 z"
         inkscape:connector-curvature="0"
         style="fill:#0098b8;fill-opacity:1" />
    </g>
  </g>
  <g
     id="Layer.__2013"
     transform="matrix(1.1512982,0,0,1.1272491,-78.017635,33.613225)">
    <g
       id="shape17">
      <path
         id="path17"
         d="m 335,232.55 c 30.05,-3.5 57.7,-21.75 83.05,-54.8 q 24.4,-34.35 53.1,-37.55"
         inkscape:connector-curvature="0"
         style="fill:none;stroke:#0093b2;stroke-width:4;stroke-linecap:square;stroke-linejoin:round;stroke-opacity:1" />
      <path
         id="path18"
         d="m 335,284.45 c 15.45,3.65 30,14.4 43.65,32.2 8.35,10.85 16.4,24.4 24.05,40.55 l 20.95,48.95 c 2.9,7.15 5.95,13.65 9.15,19.6 11.05,20.35 23.8,33.55 38.35,39.65"
         inkscape:connector-curvature="0"
         style="fill:none;stroke:#e78919;stroke-width:4;stroke-linecap:square;stroke-linejoin:round;stroke-opacity:1" />
      <path
         id="path19"
         d="m 471.15,359.5 c -19.15,-2.15 -36.85,-14.65 -53.1,-37.55 -1.4,-1.8 -2.8,-3.55 -4.2,-5.3 -24.2,-29.7 -50.5,-46.2 -78.85,-49.45"
         inkscape:connector-curvature="0"
         style="fill:none;stroke:#ff6600;stroke-width:4;stroke-linecap:square;stroke-linejoin:round;stroke-opacity:1" />
    </g>
    <g
       id="drawingObject9"
       transform="translate(12,0)">
      <path
         id="path20"
         d="m 491.7,111.75 q 1.35,-0.15 2.75,-0.15 l 185.15,0 c 0.45,0 0.85,0 1.3,0.05 5.3,0.25 9.9,2.3 13.75,6.15 4.15,4.15 6.25,9.1 6.25,14.95 l 0,29.2 c 0,0.6 0,1.2 -0.05,1.85 -0.15,1.55 -0.3,3.15 -0.45,4.75 -0.2,2.2 -0.5,4.4 -0.85,6.55 -0.35,2.05 -0.75,4.15 -1.3,6.2 -3.75,10.85 -12.5,19.6 -26.25,26.35 -0.15,-12.75 -6.3,-20.3 -18.55,-22.7 l -159,0 c -5.85,0 -10.9,-2.05 -15.05,-6.2 -4.15,-4.15 -6.2,-9.1 -6.2,-14.95 l 0,-31.05 c 0,-5.85 2.05,-10.8 6.2,-14.95 3.5,-3.45 7.6,-5.5 12.3,-6.05 z"
         inkscape:connector-curvature="0"
         style="fill:#000000;fill-opacity:0.2" />
    </g>
    <g
       id="drawingObject10"
       transform="translate(12,0)">
      <path
         id="path21"
         d="m 494.25,107.5 q 1.35,-0.15 2.75,-0.15 l 185.15,0 c 0.45,0 0.85,0 1.3,0.05 -59.5,3.15 -122.55,3.2 -189.2,0.1 z"
         style="fill:url(#linearGradient11);fill-opacity:1"
         inkscape:connector-curvature="0" />
      <path
         id="path22"
         d="m 481.95,113.55 c 3.5,-3.45 7.6,-5.5 12.3,-6.05 67.03835,2.71165 129.94133,2.80867 189.2,-0.1 5.3,0.25 9.9,2.3 13.75,6.15 4.15,4.15 6.25,9.1 6.25,14.95 l 0,29.2 c 0,0.6 0,1.2 -0.05,1.85 -0.15,1.55 -0.3,3.15 -0.45,4.75 -0.2,2.2 -0.5,4.4 -0.85,6.55 -0.35,2.05 -0.75,4.15 -1.3,6.2 -3.75,10.85 -12.5,19.6 -26.25,26.35 -0.15,-12.75 -6.3,-20.3 -18.55,-22.7 l -159,0 c -5.85,0 -10.9,-2.05 -15.05,-6.2 -4.15,-4.15 -6.2,-9.1 -6.2,-14.95 l 0,-31.05 c 0,-5.85 2.05,-10.8 6.2,-14.95 z"
         inkscape:connector-curvature="0"
         style="fill:url(#linearGradient12);fill-opacity:1"
         sodipodi:nodetypes="cccsssccccccssssc" />
    </g>
    <g
       id="drawingObject11"
       transform="translate(12,0)">
      <path
         id="path23"
         d="m 491.7,218.7 q 1.35,-0.15 2.75,-0.15 l 185.15,0 c 0.45,0 0.85,0 1.3,0.05 5.3,0.25 9.9,2.3 13.75,6.15 4.15,4.15 6.25,9.1 6.25,14.95 l 0,29.2 c 0,0.6 0,1.2 -0.05,1.85 -0.15,1.55 -0.3,3.15 -0.45,4.75 -0.2,2.2 -0.5,4.4 -0.85,6.55 -0.35,2.05 -0.75,4.15 -1.3,6.2 -3.75,10.85 -12.5,19.6 -26.25,26.35 -0.15,-12.75 -6.3,-20.3 -18.55,-22.7 l -159,0 c -5.85,0 -10.9,-2.05 -15.05,-6.2 -4.15,-4.15 -6.2,-9.1 -6.2,-14.95 l 0,-31.05 c 0,-5.85 2.05,-10.8 6.2,-14.95 3.5,-3.45 7.6,-5.5 12.3,-6.05 z"
         inkscape:connector-curvature="0"
         style="fill:#000000;fill-opacity:0.2" />
    </g>
    <g
       id="software"
       transform="translate(12,0)"
       inkscape:label="#drawingObject12"
       onclick="window.location='Scene-2.svg';">
      <path
         id="path24"
         d="m 682.15,214.45 q 0.65,0 1.3,0.05 c -58.6,4 -121.65,4.05 -189.2,0.1 0.9,-0.1 1.8,-0.15 2.75,-0.15 l 185.15,0 z"
         style="fill:url(#linearGradient13);fill-opacity:1"
         inkscape:connector-curvature="0" />
      <path
         id="path25"
         d="M 674.55,310.5 C 674.4,297.75 668.25,290.2 656,287.8 l -159,0 c -5.85,0 -10.9,-2.05 -15.05,-6.2 -4.15,-4.15 -6.2,-9.1 -6.2,-14.95 l 0,-31.05 c 0,-5.85 2.05,-10.8 6.2,-14.95 3.5,-3.45 7.6,-5.5 12.3,-6.05 67.7283,3.05852 130.71956,3.30222 189.2,-0.1 5.3,0.25 9.9,2.3 13.75,6.15 4.15,4.15 6.25,9.1 6.25,14.95 l 0,29.2 c 0,0.6 0,1.2 -0.05,1.85 -0.15,1.55 -0.3,3.15 -0.45,4.75 -0.2,2.2 -0.5,4.4 -0.85,6.55 -0.35,2.05 -0.75,4.15 -1.3,6.2 -3.75,10.85 -12.5,19.6 -26.25,26.35 z"
         inkscape:connector-curvature="0"
         style="fill:url(#linearGradient14);fill-opacity:1"
         sodipodi:nodetypes="ccsssscccsssccccc" />
    </g>
    <g
       id="drawingObject13"
       transform="translate(12,0)">
      <path
         id="path26"
         d="m 491.7,325.05 q 1.35,-0.15 2.75,-0.15 l 185.15,0 c 0.45,0 0.85,0 1.3,0.05 5.3,0.25 9.9,2.3 13.75,6.15 4.15,4.15 6.25,9.1 6.25,14.95 l 0,29.2 c 0,0.6 0,1.2 -0.05,1.85 -0.15,1.55 -0.3,3.15 -0.45,4.75 -0.2,2.2 -0.5,4.4 -0.85,6.55 -0.35,2.05 -0.75,4.15 -1.3,6.2 -3.75,10.85 -12.5,19.6 -26.25,26.35 -0.15,-12.75 -6.3,-20.3 -18.55,-22.7 l -159,0 c -5.85,0 -10.9,-2.05 -15.05,-6.2 -4.15,-4.15 -6.2,-9.1 -6.2,-14.95 l 0,-31.05 c 0,-5.85 2.05,-10.8 6.2,-14.95 3.5,-3.45 7.6,-5.5 12.3,-6.05 z"
         inkscape:connector-curvature="0"
         style="fill:#000000;fill-opacity:0.2" />
    </g>
    <g
       id="drawingObject14"
       transform="translate(12,0)">
      <path
         id="path27"
         d="m 682.15,321.5 q 0.65,0 1.3,0.05 c -59.5,4.1 -122.55,4.15 -189.2,0.1 0.9,-0.1 1.8,-0.15 2.75,-0.15 l 185.15,0 z"
         style="fill:url(#linearGradient15);fill-opacity:1"
         inkscape:connector-curvature="0" />
      <path
         id="path28"
         d="m 475.75,342.65 c 0,-5.85 2.05,-10.8 6.2,-14.95 3.5,-3.45 7.6,-5.5 12.3,-6.05 33.44891,2.03253 65.99111,2.46926 97.63292,2.44284 31.40739,-0.0262 61.92769,-0.50046 91.56708,-2.54284 5.3,0.25 9.9,2.3 13.75,6.15 4.15,4.15 6.25,9.1 6.25,14.95 l 0,29.2 c 0,0.6 0,1.2 -0.05,1.85 -0.15,1.55 -0.3,3.15 -0.45,4.75 -0.2,2.2 -0.5,4.4 -0.85,6.55 -0.35,2.05 -0.75,4.15 -1.3,6.2 -3.75,10.85 -12.5,19.6 -26.25,26.35 -0.15,-12.75 -6.3,-20.3 -18.55,-22.7 l -159,0 c -5.85,0 -10.9,-2.05 -15.05,-6.2 -4.15,-4.15 -6.2,-9.1 -6.2,-14.95 z"
         inkscape:connector-curvature="0"
         style="fill:url(#linearGradient16);fill-opacity:1"
         sodipodi:nodetypes="sccscsssccccccssss" />
    </g>
    <g
       id="drawingObject15"
       transform="translate(12,0)">
      <path
         id="path29"
         d="m 491.7,432.15 q 1.35,-0.15 2.75,-0.15 l 185.15,0 c 0.45,0 0.85,0 1.3,0.05 5.3,0.25 9.9,2.3 13.75,6.15 4.15,4.15 6.25,9.1 6.25,14.95 l 0,29.2 c 0,0.6 0,1.2 -0.05,1.85 -0.15,1.55 -0.3,3.15 -0.45,4.75 -0.2,2.2 -0.5,4.4 -0.85,6.55 -0.35,2.05 -0.75,4.15 -1.3,6.2 -3.75,10.85 -12.5,19.6 -26.25,26.35 -0.15,-12.75 -6.3,-20.3 -18.55,-22.7 l -159,0 c -5.85,0 -10.9,-2.05 -15.05,-6.2 -4.15,-4.15 -6.2,-9.1 -6.2,-14.95 l 0,-31.05 c 0,-5.85 2.05,-10.8 6.2,-14.95 3.5,-3.45 7.6,-5.5 12.3,-6.05 z"
         inkscape:connector-curvature="0"
         style="fill:#000000;fill-opacity:0.2" />
    </g>
    <g
       id="drawingObject16"
       transform="translate(12,0)">
      <path
         id="path30"
         d="m 475.75,449.75 c 0,-5.83333 2.06667,-10.81667 6.2,-14.95 3.5,-3.45 7.6,-5.5 12.3,-6.05 67.19287,3.50713 130.04906,3.65094 189.2,-0.1 5.3,0.25 9.9,2.3 13.75,6.15 4.15,4.15 6.25,9.1 6.25,14.95 l 0,29.2 c 0,0.6 0,1.2 -0.05,1.85 -0.15,1.55 -0.3,3.15 -0.45,4.75 -0.2,2.2 -0.5,4.4 -0.85,6.55 -0.35,2.05 -0.75,4.15 -1.3,6.2 -3.75,10.85 -12.5,19.6 -26.25,26.35 -0.15,-12.75 -6.3,-20.3 -18.55,-22.7 l -159,0 c -5.85,0 -10.9,-2.05 -15.05,-6.2 -4.15,-4.15 -6.2,-9.1 -6.2,-14.95 z"
         inkscape:connector-curvature="0"
         style="fill:url(#linearGradient17);fill-opacity:1"
         sodipodi:nodetypes="scccsssccccccssss" />
      <path
         id="path31"
         d="m 494.25,428.75 c 0.9,-0.1 1.8,-0.15 2.75,-0.15 l 185.15,0 c 0.45,0 0.85,0 1.3,0.05 -59.5,4.1 -122.55,4.15 -189.2,0.1 z"
         style="fill:url(#linearGradient18);fill-opacity:1"
         inkscape:connector-curvature="0" />
    </g>
  </g>
  <g
     id="Layer.__2014"
     transform="matrix(1.1512982,0,0,1.1272491,-64.202056,33.613225)">
    <g
       id="drawingObject17">
      <path
         id="path32"
         d="m 568.2,80.8 -34,0 c -6.65,151.65 -6.65,304.45 0.1,458.5 l 33.85,0 C 571.8,385.25 571.8,232.4 568.2,80.8 z"
         inkscape:connector-curvature="0"
         style="fill:#000000;fill-opacity:0.2" />
    </g>
    <g
       id="drawingObject18">
      <path
         id="path33"
         d="m 568.15,79.2 -36.35,0 0,460.65 36.35,0 0,-460.65 z"
         style="fill:url(#linearGradient19);fill-opacity:1"
         inkscape:connector-curvature="0" />
    </g>
  </g>
  <g
     id="Layer.__2015"
     transform="matrix(1.1512982,0,0,1.1272491,-64.202056,33.613225)">
    <g
       id="drawingObject19">
      <path
         id="path34"
         d="m 684.85,132.65 1.95,0 0,1.55 2.15,0 0,-2 c 0,-0.8 -0.4,-1.2 -1.25,-1.2 l -3.75,0 c -0.85,0 -1.25,0.4 -1.25,1.2 l 0,2.3 c 0,0.45 0.25,0.85 0.7,1.1 l 3.4,2 0,1.55 -1.95,0 0,-1.65 -2.15,0 0,2.15 c 0,0.8 0.4,1.2 1.25,1.2 l 3.75,0 c 0.85,0 1.25,-0.4 1.25,-1.2 l 0,-2.45 c 0,-0.45 -0.25,-0.85 -0.7,-1.1 l -3.4,-2 0,-1.45 z m -13.95,-3.1 2.25,0 0,-2.3 -2.25,0 0,2.3 z m 6.05,3.3 2,0 0,1.7 2.2,0 0,-2.35 c 0,-0.8 -0.4,-1.2 -1.25,-1.2 l -3.9,0 c -0.85,0 -1.25,0.4 -1.25,1.2 l 0,7.45 c 0,0.8 0.4,1.2 1.25,1.2 l 3.9,0 c 0.85,0 1.25,-0.4 1.25,-1.2 l 0,-2.55 -2.2,0 0,1.9 -2,0 0,-6.15 z m -3.85,-1.85 -2.2,0 0,9.85 2.2,0 0,-9.85 z m -7.9,1.65 1.95,0 0,1.55 2.15,0 0,-2 c 0,-0.8 -0.4,-1.2 -1.25,-1.2 l -3.75,0 c -0.85,0 -1.25,0.4 -1.25,1.2 l 0,2.3 c 0,0.45 0.25,0.85 0.7,1.1 l 3.4,2 0,1.55 -1.95,0 0,-1.65 -2.15,0 0,2.15 c 0,0.8 0.4,1.2 1.25,1.2 l 3.75,0 c 0.85,0 1.25,-0.4 1.25,-1.2 l 0,-2.45 c 0,-0.45 -0.25,-0.85 -0.7,-1.1 l -3.4,-2 0,-1.45 z m -11.8,-5.7 c 0,-0.95 -0.45,-1.4 -1.35,-1.4 l -6.1,0 0,15.3 6.1,0 c 0.95,0 1.4,-0.45 1.4,-1.4 l 0,-4.55 c 0,-0.55 -0.15,-0.95 -0.5,-1.25 -0.05,-0.05 -0.5,-0.3 -1.25,-0.8 0.75,-0.45 1.15,-0.7 1.2,-0.75 0.35,-0.25 0.5,-0.65 0.5,-1.2 l 0,-3.95 z m -2.3,4.25 -1.1,0.75 -1.75,0 0,-4.45 2.85,0 0,3.7 z m 0.05,7.75 -2.9,0 0,-5.1 1.8,0 1.1,0.7 0,4.4 z m 6.1,-6.3 2.15,0 0,2.25 -3.05,0 c -0.85,0 -1.25,0.4 -1.25,1.25 l 0,3.55 c 0,0.8 0.4,1.2 1.25,1.2 0.35,0 0.85,-0.05 1.5,-0.15 0.5,-0.05 1,-0.15 1.5,-0.25 l 0,0.35 2.15,0 0,-8.65 c 0,-0.8 -0.4,-1.2 -1.25,-1.2 l -3.75,0 c -0.85,0 -1.25,0.4 -1.25,1.2 l 0,1.85 2,0 0,-1.4 z m 0,6.5 0,-2.7 2.15,0 0,2.6 -2.15,0.1 z m 11.45,18.35 c 0,-0.8 -0.45,-1.2 -1.3,-1.2 l -3.85,0 c -0.85,0 -1.25,0.4 -1.25,1.2 l 0,7.45 c 0,0.8 0.4,1.2 1.25,1.2 l 3.85,0 c 0.85,0 1.3,-0.4 1.3,-1.2 l 0,-2.1 -2.15,0 0,1.65 -2.1,0 0,-2.75 3.6,0 0.65,-0.6 0,-3.65 z m -2.15,0.45 0,2.35 -2.1,0 0,-2.35 2.1,0 z m -9.5,-1.65 -2.25,0 0,9.85 2.25,0 0,-7.95 1.75,-0.05 0,2.25 2.2,0 0,-2.95 c 0,-0.8 -0.4,-1.2 -1.2,-1.2 -0.35,0 -0.85,0.05 -1.4,0.15 -0.45,0.05 -0.9,0.15 -1.35,0.25 l 0,-0.35 z m -3.85,1.2 c 0,-0.8 -0.4,-1.2 -1.25,-1.2 l -3.75,0 c -0.85,0 -1.25,0.4 -1.25,1.2 l 0,1.85 2,0 0,-1.4 2.15,0 0,2.25 -3.05,0 c -0.85,0 -1.25,0.4 -1.25,1.25 l 0,3.55 c 0,0.8 0.4,1.2 1.25,1.2 0.35,0 0.85,-0.05 1.5,-0.15 0.5,-0.05 1,-0.15 1.5,-0.25 l 0,0.35 2.15,0 0,-8.65 z m -2.1,6.85 -2.15,0.1 0,-2.7 2.15,0 0,2.6 z m -11.85,-33.4 c -0.35,0 -0.85,0.05 -1.4,0.15 -0.45,0.05 -0.9,0.15 -1.35,0.25 l 0,-0.35 -2.25,0 0,9.85 2.25,0 0,-7.95 1.75,-0.05 0,2.25 2.2,0 0,-2.95 c 0,-0.8 -0.4,-1.2 -1.2,-1.2 z m -6.6,1.25 c 0,-0.8 -0.45,-1.2 -1.3,-1.2 l -3.85,0 c -0.85,0 -1.25,0.4 -1.25,1.2 l 0,7.45 c 0,0.8 0.4,1.2 1.25,1.2 l 3.85,0 c 0.85,0 1.3,-0.4 1.3,-1.2 l 0,-2.1 -2.15,0 0,1.65 -2.1,0 0,-2.75 3.6,0 0.65,-0.6 0,-3.65 z m -2.15,2.8 -2.1,0 0,-2.35 2.1,0 0,2.35 z m -9.2,-4 -1.05,0 0,1.9 1.05,0 0,6.75 c 0,0.8 0.4,1.2 1.25,1.2 l 2.45,0 0,-1.9 -1.5,0 0,-6.05 1.45,0 0,-1.9 -1.45,0 0,-2.7 -2.2,0 0,2.7 z m -2.2,0 -2.2,0 0,7.95 -2.15,0.05 0,-8 -2.2,0 0,8.7 c 0,0.8 0.4,1.2 1.2,1.2 0.45,0 0.95,-0.05 1.6,-0.15 0.5,-0.05 1,-0.15 1.55,-0.25 l 0,0.35 2.2,0 0,-9.85 z m -9,9.55 c 0.6,-0.35 0.9,-0.9 0.9,-1.7 l 0,-6.7 c 0,-0.8 -0.4,-1.2 -1.25,-1.2 -0.35,0 -0.9,0.05 -1.55,0.15 -0.55,0.1 -1.05,0.2 -1.55,0.25 l 0,-0.35 -2.25,0 0,13.45 2.25,0 0,-3.6 c 0.15,0 0.4,0 0.75,0 0.35,0.05 0.65,0.05 0.85,0.05 0.85,0 1.45,-0.1 1.85,-0.35 z m -1.35,-7.7 0,5.4 c 0,0.5 -0.25,0.75 -0.75,0.75 l -1.35,0 0,-6.1 2.1,-0.05 z m 19.95,23.75 c -0.55,0.3 -0.85,0.85 -0.85,1.65 l 0,6.1 c 0,0.55 0.15,1 0.45,1.35 0.35,0.35 0.8,0.5 1.35,0.5 0.15,0 1,-0.15 2.5,-0.4 l 0,0.35 2.25,0 0,-15.3 -2.25,0 0,5.45 c -0.15,0 -0.4,0 -0.75,-0.05 -0.35,0 -0.65,0 -0.8,0 -0.85,0 -1.5,0.1 -1.9,0.35 z m 1.35,2.3 c 0,-0.5 0.25,-0.75 0.75,-0.75 l 1.35,0 0,6.1 c -0.85,0.05 -1.3,0.1 -1.4,0.1 -0.45,0 -0.7,-0.25 -0.7,-0.75 l 0,-4.7 z m -3.5,-1.45 c 0,-0.8 -0.4,-1.2 -1.2,-1.2 -0.35,0 -0.85,0.05 -1.4,0.15 -0.45,0.05 -0.9,0.15 -1.35,0.25 l 0,-0.35 -2.25,0 0,9.85 2.25,0 0,-7.95 1.75,-0.05 0,2.25 2.2,0 0,-2.95 z m -12.8,-1.15 c -0.85,0 -1.25,0.4 -1.25,1.2 l 0,1.85 2,0 0,-1.4 2.15,0 0,2.25 -3.05,0 c -0.85,0 -1.25,0.4 -1.25,1.25 l 0,3.55 c 0,0.8 0.4,1.2 1.25,1.2 0.35,0 0.85,-0.05 1.5,-0.15 0.5,-0.05 1,-0.15 1.5,-0.25 l 0,0.35 2.15,0 0,-8.65 c 0,-0.8 -0.4,-1.2 -1.25,-1.2 l -3.75,0 z m 2.9,8.05 -2.15,0.1 0,-2.7 2.15,0 0,2.6 z m -5.95,1.8 0,-15.3 -2.3,0 0,6.3 -3.1,0 0,-6.3 -2.3,0 0,15.3 2.3,0 0,-6.85 3.1,0 0,6.85 2.3,0 z m 35.05,-9.85 -2.15,0 -1.05,6.3 -1.05,-6.3 -1.7,0 -1.1,6.3 -1.05,-6.3 -2.15,0 2.1,9.85 1.95,0 1.05,-5.45 1.1,5.45 1.95,0 2.1,-9.85 z M 602.8,132.15 c 0,-0.8 -0.4,-1.2 -1.25,-1.2 -0.35,0 -0.9,0.05 -1.65,0.15 -0.55,0.1 -1.1,0.2 -1.65,0.3 -0.15,-0.3 -0.45,-0.45 -1,-0.45 -0.4,0 -0.9,0.05 -1.55,0.15 -0.55,0.05 -1.05,0.15 -1.55,0.25 l 0,-0.35 -2.25,0 0,9.85 2.25,0 0,-7.95 2.1,-0.05 0,8 2.2,0 0,-7.95 2.1,-0.05 0,8 2.25,0 0,-8.7 z m -12.5,7.5 0,-7.45 c 0,-0.8 -0.4,-1.2 -1.25,-1.2 l -4,0 c -0.85,0 -1.25,0.4 -1.25,1.2 l 0,7.45 c 0,0.8 0.4,1.2 1.25,1.2 l 4,0 c 0.85,0 1.25,-0.4 1.25,-1.2 z m -2.2,-6.8 0,6.15 -2.1,0 0,-6.15 2.1,0 z m -8.25,-5.3 0,3 2.3,0 0,-3.6 c 0,-0.95 -0.45,-1.4 -1.4,-1.4 l -4.75,0 c -0.95,0 -1.4,0.45 -1.4,1.4 l 0,12.5 c 0,0.95 0.45,1.4 1.4,1.4 l 4.75,0 c 0.95,0 1.4,-0.45 1.4,-1.4 l 0,-3.8 -2.3,0 0,3.25 -2.95,0 0,-11.35 2.95,0 z m 9.2,29.9 c 0,-0.8 -0.4,-1.2 -1.25,-1.2 -0.4,0 -0.9,0.05 -1.55,0.15 -0.55,0.05 -1.05,0.15 -1.55,0.25 l 0,-0.35 -2.25,0 0,9.85 2.25,0 0,-7.95 2.1,-0.05 0,8 2.25,0 0,-8.7 z m -9.45,-1.15 -3.75,0 c -0.85,0 -1.25,0.4 -1.25,1.2 l 0,1.85 2,0 0,-1.4 2.15,0 0,2.25 -3.05,0 c -0.85,0 -1.25,0.4 -1.25,1.25 l 0,3.55 c 0,0.8 0.4,1.2 1.25,1.2 0.35,0 0.85,-0.05 1.5,-0.15 0.5,-0.05 1,-0.15 1.5,-0.25 l 0,0.35 2.15,0 0,-8.65 c 0,-0.8 -0.4,-1.2 -1.25,-1.2 z m -3,8.15 0,-2.7 2.15,0 0,2.6 -2.15,0.1 z m 17.6,-8.2 c -0.35,0 -0.65,0 -0.8,0 -0.85,0 -1.5,0.1 -1.9,0.35 -0.55,0.3 -0.85,0.85 -0.85,1.65 l 0,6.1 c 0,0.55 0.15,1 0.45,1.35 0.35,0.35 0.8,0.5 1.35,0.5 0.15,0 1,-0.15 2.5,-0.4 l 0,0.35 2.25,0 0,-15.3 -2.25,0 0,5.45 c -0.15,0 -0.4,0 -0.75,-0.05 z m 0.75,1.9 0,6.1 c -0.85,0.05 -1.3,0.1 -1.4,0.1 -0.45,0 -0.7,-0.25 -0.7,-0.75 l 0,-4.7 c 0,-0.5 0.25,-0.75 0.75,-0.75 l 1.35,0 z"
         inkscape:connector-curvature="0"
         style="fill:#ffffff;fill-opacity:1" />
    </g>
    <g
       id="drawingObject20">
      <path
         id="path121"
         d="m 635.1,248.95 q 0,-1.2 -1.3,-1.2 l -3.85,0 c -0.85,0 -1.25,0.4 -1.25,1.2 l 0,7.45 c 0,0.8 0.4,1.2 1.25,1.2 l 3.85,0 c 0.85,0 1.3,-0.4 1.3,-1.2 l 0,-2.1 -2.15,0 0,1.65 -2.1,0 0,-2.75 3.6,0 0.65,-0.6 0,-3.65 z m -2.15,0.45 0,2.35 -2.1,0 0,-2.35 2.1,0 z m -5.55,-0.5 c 0,-0.8 -0.4,-1.2 -1.2,-1.2 -0.35,0 -0.85,0.05 -1.4,0.15 -0.45,0.05 -0.9,0.15 -1.35,0.25 l 0,-0.35 -2.25,0 0,9.85 2.25,0 0,-7.95 1.75,-0.05 0,2.25 2.2,0 0,-2.95 z m -9.05,-1.15 -3.75,0 c -0.85,0 -1.25,0.4 -1.25,1.2 l 0,1.85 2,0 0,-1.4 2.15,0 0,2.25 -3.05,0 c -0.85,0 -1.25,0.4 -1.25,1.25 l 0,3.55 c 0,0.8 0.4,1.2 1.25,1.2 0.35,0 0.85,-0.05 1.5,-0.15 0.5,-0.05 1,-0.15 1.5,-0.25 l 0,0.35 2.15,0 0,-8.65 c 0,-0.8 -0.4,-1.2 -1.25,-1.2 z m -3,8.15 0,-2.7 2.15,0 0,2.6 -2.15,0.1 z m -5.3,1.7 2.1,-9.85 -2.15,0 -1.05,6.3 -1.05,-6.3 -1.7,0 -1.1,6.3 -1.05,-6.3 -2.15,0 2.1,9.85 1.95,0 1.05,-5.45 1.1,5.45 1.95,0 z m -8.95,-7.95 0,-1.9 -1.45,0 0,-2.7 -2.2,0 0,2.7 -1.05,0 0,1.9 1.05,0 0,6.75 c 0,0.8 0.4,1.2 1.25,1.2 l 2.45,0 0,-1.9 -1.5,0 0,-6.05 1.45,0 z m -5,-5.4 0,-1.95 -2.65,0 c -0.8,0 -1.2,0.4 -1.2,1.25 l 0,4.2 -1.05,0 0,1.9 1.05,0 0,7.95 2.2,0 0,-7.95 1.4,0 0,-1.9 -1.4,0 0,-3.5 1.65,0 z m -5.95,12.15 0,-7.45 c 0,-0.8 -0.4,-1.2 -1.25,-1.2 l -4,0 c -0.85,0 -1.25,0.4 -1.25,1.2 l 0,7.45 c 0,0.8 0.4,1.2 1.25,1.2 l 4,0 c 0.85,0 1.25,-0.4 1.25,-1.2 z m -2.2,-6.8 0,6.15 -2.1,0 0,-6.15 2.1,0 z m -6,-2.5 0,-3.4 c 0,-0.95 -0.45,-1.4 -1.4,-1.4 l -4.6,0 c -0.9,0 -1.35,0.45 -1.35,1.4 l 0,3.4 c 0,0.5 0.15,0.9 0.5,1.25 l 4.55,4.35 0,3 -2.8,0 0,-3.15 -2.25,0 0,3.65 c 0,0.95 0.45,1.4 1.35,1.4 l 4.6,0 c 0.95,0 1.4,-0.45 1.4,-1.4 l 0,-3.65 c 0,-0.5 -0.15,-0.9 -0.5,-1.25 l -4.6,-4.3 0,-2.75 2.8,0 0,2.85 2.3,0 z"
         inkscape:connector-curvature="0"
         style="fill:#ffffff;fill-opacity:1" />
    </g>
    <g
       id="drawingObject21">
      <path
         id="path145"
         d="m 680.5,354.7 -3.85,0 c -0.85,0 -1.25,0.4 -1.25,1.2 l 0,7.45 c 0,0.8 0.4,1.2 1.25,1.2 l 3.85,0 c 0.85,0 1.3,-0.4 1.3,-1.2 l 0,-2.1 -2.15,0 0,1.65 -2.1,0 0,-2.75 3.6,0 0.65,-0.6 0,-3.65 c 0,-0.8 -0.45,-1.2 -1.3,-1.2 z m -0.85,1.65 0,2.35 -2.1,0 0,-2.35 2.1,0 z m -5.85,-0.45 c 0,-0.8 -0.4,-1.2 -1.25,-1.2 l -3.9,0 c -0.85,0 -1.25,0.4 -1.25,1.2 l 0,7.45 c 0,0.8 0.4,1.2 1.25,1.2 l 3.9,0 c 0.85,0 1.25,-0.4 1.25,-1.2 l 0,-2.55 -2.2,0 0,1.9 -2,0 0,-6.15 2,0 0,1.7 2.2,0 0,-2.35 z m -12.75,-4.7 1.65,0 0,-1.95 -2.65,0 c -0.8,0 -1.2,0.4 -1.2,1.25 l 0,4.2 -1.05,0 0,1.9 1.05,0 0,7.95 2.2,0 0,-7.95 1.4,0 0,-1.9 -1.4,0 0,-3.5 z m 4.75,-0.25 -2.25,0 0,2.3 2.25,0 0,-2.3 z m -0.05,3.75 -2.2,0 0,9.85 2.2,0 0,-9.85 z m -8.2,-3.5 0,-1.95 -2.65,0 c -0.8,0 -1.2,0.4 -1.2,1.25 l 0,4.2 -1.05,0 0,1.9 1.05,0 0,7.95 2.2,0 0,-7.95 1.4,0 0,-1.9 -1.4,0 0,-3.5 1.65,0 z m -6.1,11.95 0,-12.5 c 0,-0.95 -0.45,-1.4 -1.35,-1.4 l -4.95,0 c -0.95,0 -1.4,0.45 -1.4,1.4 l 0,12.5 c 0,0.95 0.45,1.4 1.4,1.4 l 4.95,0 c 0.9,0 1.35,-0.45 1.35,-1.4 z m -2.25,-11.9 0,11.35 -3.15,0 0,-11.35 3.15,0 z m -17.6,-0.05 1.65,0 0,-1.95 -2.65,0 c -0.8,0 -1.2,0.4 -1.2,1.25 l 0,4.2 -1.05,0 0,1.9 1.05,0 0,7.95 2.2,0 0,-7.95 1.4,0 0,-1.9 -1.4,0 0,-3.5 z m 1.95,3.5 0,1.9 1.05,0 0,6.75 c 0,0.8 0.4,1.2 1.25,1.2 l 2.45,0 0,-1.9 -1.5,0 0,-6.05 1.45,0 0,-1.9 -1.45,0 0,-2.7 -2.2,0 0,2.7 -1.05,0 z m -6.25,1.2 c 0,-0.8 -0.4,-1.2 -1.25,-1.2 l -4,0 c -0.85,0 -1.25,0.4 -1.25,1.2 l 0,7.45 c 0,0.8 0.4,1.2 1.25,1.2 l 4,0 c 0.85,0 1.25,-0.4 1.25,-1.2 l 0,-7.45 z m -2.2,0.65 0,6.15 -2.1,0 0,-6.15 2.1,0 z m -9.95,-0.2 1.95,0 0,1.55 2.15,0 0,-2 c 0,-0.8 -0.4,-1.2 -1.25,-1.2 l -3.75,0 c -0.85,0 -1.25,0.4 -1.25,1.2 l 0,2.3 c 0,0.45 0.25,0.85 0.7,1.1 l 3.4,2 0,1.55 -1.95,0 0,-1.65 -2.15,0 0,2.15 c 0,0.8 0.4,1.2 1.25,1.2 l 3.75,0 c 0.85,0 1.25,-0.4 1.25,-1.2 l 0,-2.45 c 0,-0.45 -0.25,-0.85 -0.7,-1.1 l -3.4,-2 0,-1.45 z m -3.7,-0.45 c 0,-0.8 -0.4,-1.2 -1.25,-1.2 l -4,0 c -0.85,0 -1.25,0.4 -1.25,1.2 l 0,7.45 c 0,0.8 0.4,1.2 1.25,1.2 l 4,0 c 0.85,0 1.25,-0.4 1.25,-1.2 l 0,-7.45 z m -2.2,0.65 0,6.15 -2.1,0 0,-6.15 2.1,0 z m -5.6,-0.7 c 0,-0.8 -0.4,-1.2 -1.2,-1.2 -0.35,0 -0.85,0.05 -1.4,0.15 -0.45,0.05 -0.9,0.15 -1.35,0.25 l 0,-0.35 -2.25,0 0,9.85 2.25,0 0,-7.95 1.75,-0.05 0,2.25 2.2,0 0,-2.95 z m -12,0.7 2,0 0,1.7 2.2,0 0,-2.35 c 0,-0.8 -0.4,-1.2 -1.25,-1.2 l -3.9,0 c -0.85,0 -1.25,0.4 -1.25,1.2 l 0,7.45 c 0,0.8 0.4,1.2 1.25,1.2 l 3.9,0 c 0.85,0 1.25,-0.4 1.25,-1.2 l 0,-2.55 -2.2,0 0,1.9 -2,0 0,-6.15 z m -3.85,-1.85 -2.2,0 0,9.85 2.2,0 0,-9.85 z m 0.05,-1.45 0,-2.3 -2.25,0 0,2.3 2.25,0 z m -4,-4 -2.15,0 -2.4,8.45 c -0.05,0.3 -0.05,0.55 -0.05,0.7 -0.05,-0.35 -0.05,-0.6 -0.05,-0.7 l -2.4,-8.45 -2.2,0 0,15.3 2.2,0 0,-7.55 c 0,-0.35 -0.05,-0.9 -0.1,-1.65 l 1.95,7.8 1.15,0 2,-7.8 c -0.1,0.7 -0.15,1.25 -0.15,1.65 l 0,7.55 2.2,0 0,-15.3 z"
         inkscape:connector-curvature="0"
         style="fill:#ffffff;fill-opacity:1" />
    </g>
    <g
       id="drawingObject22">
      <path
         id="path190"
         d="m 685.5,445.2 -2.25,0 0,5.45 c -0.15,0 -0.4,0 -0.75,-0.05 -0.35,0 -0.65,0 -0.8,0 -0.85,0 -1.5,0.1 -1.9,0.35 -0.55,0.3 -0.85,0.85 -0.85,1.65 l 0,6.1 c 0,0.55 0.15,1 0.45,1.35 0.35,0.35 0.8,0.5 1.35,0.5 0.15,0 1,-0.15 2.5,-0.4 l 0,0.35 2.25,0 0,-15.3 z m -3.6,7.3 1.35,0 0,6.1 c -0.85,0.05 -1.3,0.1 -1.4,0.1 -0.45,0 -0.7,-0.25 -0.7,-0.75 l 0,-4.7 q 0,-0.75 0.75,-0.75 z m -4.55,-0.7 c 0,-0.8 -0.4,-1.2 -1.25,-1.2 -0.4,0 -0.9,0.05 -1.55,0.15 C 674,450.8 673.5,450.9 673,451 l 0,-0.35 -2.25,0 0,9.85 2.25,0 0,-7.95 2.1,-0.05 0,8 2.25,0 0,-8.7 z m -8.2,0.05 c 0,-0.8 -0.4,-1.2 -1.25,-1.2 l -3.75,0 c -0.85,0 -1.25,0.4 -1.25,1.2 l 0,1.85 2,0 0,-1.4 2.15,0 0,2.25 -3.05,0 c -0.85,0 -1.25,0.4 -1.25,1.25 l 0,3.55 c 0,0.8 0.4,1.2 1.25,1.2 0.35,0 0.85,-0.05 1.5,-0.15 0.5,-0.05 1,-0.15 1.5,-0.25 l 0,0.35 2.15,0 0,-8.65 z m -2.1,6.85 -2.15,0.1 0,-2.7 2.15,0 0,2.6 z m -9.45,-8.05 -2.3,0 -1.3,6.45 -1.3,-6.45 -2.3,0 2.5,9.75 -1,3.7 2.25,0 3.45,-13.45 z m 11.45,26.5 c 0,-0.8 -0.4,-1.2 -1.25,-1.2 l -4,0 c -0.85,0 -1.25,0.4 -1.25,1.2 l 0,7.45 c 0,0.8 0.4,1.2 1.25,1.2 l 4,0 c 0.85,0 1.25,-0.4 1.25,-1.2 l 0,-7.45 z m -2.2,0.65 0,6.15 -2.1,0 0,-6.15 2.1,0 z m -5.9,-3.3 0,-2.3 -2.25,0 0,2.3 2.25,0 z m -7.25,1.45 -1.05,0 0,1.9 1.05,0 0,6.75 c 0,0.8 0.4,1.2 1.25,1.2 l 2.45,0 0,-1.9 -1.5,0 0,-6.05 1.45,0 0,-1.9 -1.45,0 0,-2.7 -2.2,0 0,2.7 z m 5,9.85 2.2,0 0,-9.85 -2.2,0 0,9.85 z m 11.95,-9.85 0,9.85 2.25,0 0,-7.95 2.1,-0.05 0,8 2.25,0 0,-8.7 c 0,-0.8 -0.4,-1.2 -1.25,-1.2 -0.4,0 -0.9,0.05 -1.55,0.15 -0.55,0.05 -1.05,0.15 -1.55,0.25 l 0,-0.35 -2.25,0 z m -19.1,9.85 0,-8.65 c 0,-0.8 -0.4,-1.2 -1.25,-1.2 l -3.75,0 c -0.85,0 -1.25,0.4 -1.25,1.2 l 0,1.85 2,0 0,-1.4 2.15,0 0,2.25 -3.05,0 c -0.85,0 -1.25,0.4 -1.25,1.25 l 0,3.55 c 0,0.8 0.4,1.2 1.25,1.2 0.35,0 0.85,-0.05 1.5,-0.15 0.5,-0.05 1,-0.15 1.5,-0.25 l 0,0.35 2.15,0 z m -2.1,-1.8 -2.15,0.1 0,-2.7 2.15,0 0,2.6 z m -5.65,-37.1 -2.25,0 0,2.3 2.25,0 0,-2.3 z m -0.05,3.75 -2.2,0 0,9.85 2.2,0 0,-9.85 z m 1.15,0 0,1.9 1.05,0 0,6.75 c 0,0.8 0.4,1.2 1.25,1.2 l 2.45,0 0,-1.9 -1.5,0 0,-6.05 1.45,0 0,-1.9 -1.45,0 0,-2.7 -2.2,0 0,2.7 -1.05,0 z m -12.8,-1.45 0,-2.3 -2.25,0 0,2.3 2.25,0 z m 3.4,1.45 -2.3,0 2.5,9.85 2.15,0 2.55,-9.85 -2.3,0 -1.3,6.45 -1.3,-6.45 z m -3.45,9.85 0,-9.85 -2.2,0 0,9.85 2.2,0 z m -9.35,-8.65 c 0,-0.8 -0.4,-1.2 -1.25,-1.2 l -3.9,0 c -0.85,0 -1.25,0.4 -1.25,1.2 l 0,7.45 c 0,0.8 0.4,1.2 1.25,1.2 l 3.9,0 c 0.85,0 1.25,-0.4 1.25,-1.2 l 0,-2.55 -2.2,0 0,1.9 -2,0 0,-6.15 2,0 0,1.7 2.2,0 0,-2.35 z m 1.1,0.7 1.05,0 0,6.75 c 0,0.8 0.4,1.2 1.25,1.2 l 2.45,0 0,-1.9 -1.5,0 0,-6.05 1.45,0 0,-1.9 -1.45,0 0,-2.7 -2.2,0 0,2.7 -1.05,0 0,1.9 z m -9.1,-0.7 c 0,-0.8 -0.45,-1.2 -1.3,-1.2 l -3.85,0 c -0.85,0 -1.25,0.4 -1.25,1.2 l 0,7.45 c 0,0.8 0.4,1.2 1.25,1.2 l 3.85,0 c 0.85,0 1.3,-0.4 1.3,-1.2 l 0,-2.1 -2.15,0 0,1.65 -2.1,0 0,-2.75 3.6,0 0.65,-0.6 0,-3.65 z m -2.15,0.45 0,2.35 -2.1,0 0,-2.35 2.1,0 z m 16.35,23.75 c -0.55,0.05 -1.05,0.15 -1.55,0.25 l 0,-0.35 -2.25,0 0,9.85 2.25,0 0,-7.95 2.1,-0.05 0,8 2.25,0 0,-8.7 c 0,-0.8 -0.4,-1.2 -1.25,-1.2 -0.4,0 -0.9,0.05 -1.55,0.15 z m -5.45,-0.1 -2.2,0 0,7.95 -2.15,0.05 0,-8 -2.2,0 0,8.7 c 0,0.8 0.4,1.2 1.2,1.2 0.45,0 0.95,-0.05 1.6,-0.15 0.5,-0.05 1,-0.15 1.55,-0.25 l 0,0.35 2.2,0 0,-9.85 z m -9.4,-0.05 c -0.35,0 -0.9,0.05 -1.65,0.15 -0.55,0.1 -1.1,0.2 -1.65,0.3 -0.15,-0.3 -0.45,-0.45 -1,-0.45 -0.4,0 -0.9,0.05 -1.55,0.15 -0.55,0.05 -1.05,0.15 -1.55,0.25 l 0,-0.35 -2.25,0 0,9.85 2.25,0 0,-7.95 2.1,-0.05 0,8 2.2,0 0,-7.95 2.1,-0.05 0,8 2.25,0 0,-8.7 c 0,-0.8 -0.4,-1.2 -1.25,-1.2 z m 29.55,1.25 c 0,-0.8 -0.4,-1.2 -1.25,-1.2 l -3.9,0 c -0.85,0 -1.25,0.4 -1.25,1.2 l 0,7.45 c 0,0.8 0.4,1.2 1.25,1.2 l 3.9,0 c 0.85,0 1.25,-0.4 1.25,-1.2 l 0,-2.55 -2.2,0 0,1.9 -2,0 0,-6.15 2,0 0,1.7 2.2,0 0,-2.35 z m -10.25,-2.65 2.25,0 0,-2.3 -2.25,0 0,2.3 z m 2.2,1.45 -2.2,0 0,9.85 2.2,0 0,-9.85 z M 606.7,451.8 c 0,-0.8 -0.4,-1.2 -1.25,-1.2 -0.4,0 -0.9,0.05 -1.55,0.15 -0.55,0.05 -1.05,0.15 -1.55,0.25 l 0,-0.35 -2.25,0 0,9.85 2.25,0 0,-7.95 2.1,-0.05 0,8 2.25,0 0,-8.7 z m -12.55,0.75 2.1,-0.05 0,8 2.25,0 0,-8.7 c 0,-0.8 -0.4,-1.2 -1.25,-1.2 -0.4,0 -0.9,0.05 -1.55,0.15 -0.55,0.05 -1.05,0.15 -1.55,0.25 l 0,-0.35 -2.25,0 0,9.85 2.25,0 0,-7.95 z m -3.85,6.75 0,-7.45 c 0,-0.8 -0.4,-1.2 -1.25,-1.2 l -4,0 c -0.85,0 -1.25,0.4 -1.25,1.2 l 0,7.45 c 0,0.8 0.4,1.2 1.25,1.2 l 4,0 c 0.85,0 1.25,-0.4 1.25,-1.2 z m -2.2,-6.8 0,6.15 -2.1,0 0,-6.15 2.1,0 z m -8.25,-5.3 0,3 2.3,0 0,-3.6 c 0,-0.95 -0.45,-1.4 -1.4,-1.4 l -4.75,0 c -0.95,0 -1.4,0.45 -1.4,1.4 l 0,12.5 c 0,0.95 0.45,1.4 1.4,1.4 l 4.75,0 c 0.95,0 1.4,-0.45 1.4,-1.4 l 0,-3.8 -2.3,0 0,3.25 -2.95,0 0,-11.35 2.95,0 z m 9.2,28.75 -4,0 c -0.85,0 -1.25,0.4 -1.25,1.2 l 0,7.45 c 0,0.8 0.4,1.2 1.25,1.2 l 4,0 c 0.85,0 1.25,-0.4 1.25,-1.2 l 0,-7.45 c 0,-0.8 -0.4,-1.2 -1.25,-1.2 z m -0.95,1.85 0,6.15 -2.1,0 0,-6.15 2.1,0 z m -8.25,-5.3 0,3 2.3,0 0,-3.6 c 0,-0.95 -0.45,-1.4 -1.4,-1.4 l -4.75,0 c -0.95,0 -1.4,0.45 -1.4,1.4 l 0,12.5 c 0,0.95 0.45,1.4 1.4,1.4 l 4.75,0 c 0.95,0 1.4,-0.45 1.4,-1.4 l 0,-3.8 -2.3,0 0,3.25 -2.95,0 0,-11.35 2.95,0 z m 22.95,4.6 c 0,-0.8 -0.4,-1.2 -1.25,-1.2 -0.35,0 -0.9,0.05 -1.65,0.15 -0.55,0.1 -1.1,0.2 -1.65,0.3 -0.15,-0.3 -0.45,-0.45 -1,-0.45 -0.4,0 -0.9,0.05 -1.55,0.15 -0.55,0.05 -1.05,0.15 -1.55,0.25 l 0,-0.35 -2.25,0 0,9.85 2.25,0 0,-7.95 2.1,-0.05 0,8 2.2,0 0,-7.95 2.1,-0.05 0,8 2.25,0 0,-8.7 z"
         inkscape:connector-curvature="0"
         style="fill:#ffffff;fill-opacity:1" />
    </g>
    <g
       id="drawingObject23">
      <path
         id="path274"
         d="m 561.05,161.35 0,-26.75 -3.4,0 -2.1,7.35 0,0.55 1.55,0 0,18.85 3.95,0 z M 542.3,134.6 c -1.65,0 -2.45,0.8 -2.45,2.45 l 0,21.85 c 0,1.65 0.8,2.45 2.4,2.45 l 8.3,0 c 1.65,0 2.45,-0.8 2.45,-2.45 l 0,-21.85 c 0,-1.65 -0.8,-2.45 -2.45,-2.45 l -8.25,0 z m 6.75,3.45 0,19.85 -5.25,0 0,-19.85 5.25,0 z"
         inkscape:connector-curvature="0"
         style="fill:#2b2e35;fill-opacity:1" />
    </g>
    <g
       id="drawingObject24">
      <path
         id="path280"
         d="m 565.15,246.85 0,-5.15 c 0,-1.65 -0.8,-2.45 -2.45,-2.45 l -7.8,0 c -1.65,0 -2.45,0.8 -2.45,2.45 l 0,5.95 3.9,0 0,-5 4.85,0 0,4.95 -9.05,15.9 0,2.5 13,0 0,-3.5 -8.2,0 7.35,-12.85 c 0.55,-1.05 0.85,-1.95 0.85,-2.8 z M 549.4,241.7 c 0,-1.65 -0.8,-2.45 -2.45,-2.45 l -8.25,0 c -1.65,0 -2.45,0.8 -2.45,2.45 l 0,21.85 c 0,1.65 0.8,2.45 2.4,2.45 l 8.3,0 c 1.65,0 2.45,-0.8 2.45,-2.45 l 0,-21.85 z m -3.95,1 0,19.85 -5.25,0 0,-19.85 5.25,0 z"
         inkscape:connector-curvature="0"
         style="fill:#d05c02;fill-opacity:1" />
    </g>
    <g
       id="drawingObject25">
      <path
         id="path286"
         d="m 561.35,350.7 0,5.65 -4.9,3.3 0,0.85 4.9,3.35 0,6.7 -5.15,0 0,-5.15 -3.95,0 0,6.15 c 0,1.65 0.8,2.45 2.4,2.45 l 8.2,0 c 1.6,0 2.4,-0.8 2.4,-2.45 l 0,-7.5 c 0,-1.05 -0.45,-1.85 -1.3,-2.4 l -2.5,-1.6 2.45,-1.6 c 0.9,-0.55 1.35,-1.4 1.35,-2.45 l 0,-6.3 c 0,-1.65 -0.8,-2.45 -2.4,-2.45 l -8.15,0 c -1.65,0 -2.45,0.8 -2.45,2.45 l 0,5.85 3.95,0 0,-4.85 5.15,0 z m -12.3,-1 c 0,-1.65 -0.8,-2.45 -2.45,-2.45 l -8.25,0 c -1.65,0 -2.45,0.8 -2.45,2.45 l 0,21.85 c 0,1.65 0.8,2.45 2.4,2.45 l 8.3,0 c 1.65,0 2.45,-0.8 2.45,-2.45 l 0,-21.85 z m -3.95,1 0,19.85 -5.25,0 0,-19.85 5.25,0 z"
         inkscape:connector-curvature="0"
         style="fill:#016982;fill-opacity:1" />
    </g>
    <g
       id="drawingObject26">
      <path
         id="path292"
         d="m 562.05,456.35 q 0,-0.05 0,-0.15 l -4.05,0 -6.65,19.35 0,2.35 8.8,0 0,5.05 3.8,0 0,-5.05 2.05,0 0,-3.4 -2.05,0 0,-8.05 -3.8,0 0,8.05 -4.3,0 6.2,-18.15 z m -12.9,2.3 c 0,-1.65 -0.8,-2.45 -2.45,-2.45 l -8.25,0 c -1.65,0 -2.45,0.8 -2.45,2.45 l 0,21.85 c 0,1.65 0.8,2.45 2.4,2.45 l 8.3,0 c 1.65,0 2.45,-0.8 2.45,-2.45 l 0,-21.85 z m -3.95,1 0,19.85 -5.25,0 0,-19.85 5.25,0 z"
         inkscape:connector-curvature="0"
         style="fill:#2b2e35;fill-opacity:1" />
    </g>
  </g>
  <g
     id="Layer.__2016"
     transform="matrix(1.0683892,0,0,1.4458154,-42.42542,2.5617505)">
    <g
       id="drawingObject27">
      <path
         id="path298"
         d="m 857.4,14.25 0,-1.05 -18.9,0 0,3.5 13.7,0 -11,21 4.05,0 12.15,-23.45 z m -45.9,5.5 c -0.4,0.2 -0.75,0.45 -1.05,0.75 -0.35,0.3 -0.6,0.65 -0.75,1.05 -0.15,0.4 -0.25,0.85 -0.25,1.3 l 0,3.9 c 0,0.45 0.1,0.9 0.25,1.3 0.15,0.45 0.4,0.8 0.75,1.1 0.3,0.3 0.65,0.55 1.05,0.7 0.4,0.15 0.85,0.25 1.3,0.25 l 8,0 0,4.25 -11.35,0 0,3.35 11.35,0 c 0.45,0 0.9,-0.1 1.3,-0.25 0.4,-0.2 0.75,-0.45 1.05,-0.7 0.35,-0.35 0.6,-0.7 0.75,-1.1 0.15,-0.4 0.25,-0.85 0.25,-1.3 l 0,-4.25 c 0,-0.45 -0.1,-0.9 -0.25,-1.3 -0.15,-0.4 -0.4,-0.75 -0.75,-1.05 -0.3,-0.3 -0.65,-0.55 -1.05,-0.75 -0.4,-0.15 -0.85,-0.25 -1.3,-0.25 l -8,0 0,-3.9 10.65,0 0,-3.35 -10.65,0 c -0.45,0 -0.9,0.1 -1.3,0.25 z m -5.2,-0.25 -3.4,0 -4.3,13.7 -4.05,-13.7 -3.45,0 -4,13.7 -4.3,-13.7 -3.4,0 5.9,18.2 3.5,0 4.05,-13.35 4.05,13.35 3.5,0 5.9,-18.2 z m -32.45,0.25 C 773.45,19.6 773,19.5 772.55,19.5 l -9.05,0 c -0.45,0 -0.9,0.1 -1.3,0.25 -0.4,0.2 -0.75,0.45 -1.05,0.75 -0.3,0.3 -0.55,0.65 -0.7,1.05 -0.2,0.4 -0.3,0.85 -0.3,1.3 l 0,11.5 c 0,0.45 0.1,0.9 0.3,1.3 0.15,0.4 0.4,0.75 0.7,1.1 0.3,0.25 0.65,0.5 1.05,0.7 0.4,0.15 0.85,0.25 1.3,0.25 l 9.05,0 c 0.45,0 0.9,-0.1 1.3,-0.25 0.4,-0.2 0.75,-0.45 1.05,-0.7 0.3,-0.35 0.55,-0.7 0.75,-1.1 0.15,-0.4 0.25,-0.85 0.25,-1.3 l 0,-11.5 c 0,-0.45 -0.1,-0.9 -0.25,-1.3 -0.2,-0.4 -0.45,-0.75 -0.75,-1.05 -0.3,-0.3 -0.65,-0.55 -1.05,-0.75 z m -1.3,14.6 -9.05,0 0,-11.5 9.05,0 0,11.5 z M 751.2,12.5 l 0,7 -9.4,0 c -0.45,0 -0.9,0.1 -1.3,0.25 -0.4,0.2 -0.75,0.45 -1.05,0.75 -0.3,0.3 -0.55,0.65 -0.7,1.05 -0.2,0.4 -0.3,0.85 -0.3,1.3 l 0,11.5 c 0,0.45 0.1,0.9 0.3,1.3 0.15,0.4 0.4,0.75 0.7,1.1 0.3,0.25 0.65,0.5 1.05,0.7 0.4,0.15 0.85,0.25 1.3,0.25 l 6.05,0 c 0.45,0 0.85,-0.1 1.2,-0.25 0.4,-0.15 0.75,-0.4 1.05,-0.65 0.3,-0.25 0.55,-0.6 0.75,-1 0.2,-0.35 0.3,-0.75 0.35,-1.2 l 0,3.1 3.35,0 0,-25.2 -3.35,0 z m -9.4,21.85 0,-11.5 9.4,0 0,11.5 -9.4,0 z M 731.9,20.5 c -0.35,-0.3 -0.7,-0.55 -1.1,-0.75 -0.4,-0.15 -0.85,-0.25 -1.3,-0.25 l -6.05,0 c -0.45,0 -0.85,0.1 -1.25,0.25 -0.4,0.15 -0.75,0.4 -1.05,0.7 -0.3,0.25 -0.55,0.6 -0.75,1 -0.15,0.4 -0.25,0.8 -0.3,1.25 l 0,-3.2 -3.35,0 0,18.2 3.35,0 0,-14.85 9.4,0 0,14.85 3.35,0 0,-14.85 c 0,-0.45 -0.1,-0.9 -0.25,-1.3 -0.2,-0.4 -0.45,-0.75 -0.7,-1.05 z m -24.45,-8 0,3.5 3.7,0 0,-3.5 -3.7,0 z m 3.55,7 -3.4,0 0,18.2 3.4,0 0,-18.2 z m -7.4,-6.3 -3.5,0 -5.45,19.5 -5.4,-19.5 -3.5,0 -5.4,19.5 -5.45,-19.5 -3.5,0 7,24.5 3.85,0 5.25,-18.35 5.25,18.35 3.85,0 7,-24.5 z m -52,6.55 c -0.4,-0.15 -0.8,-0.25 -1.25,-0.25 l -6.05,0 c -0.45,0 -0.9,0.1 -1.3,0.25 -0.4,0.2 -0.75,0.45 -1.05,0.75 -0.3,0.3 -0.55,0.65 -0.7,1.05 -0.2,0.4 -0.3,0.85 -0.3,1.3 l 0,10.8 c 0,0.45 0.1,0.9 0.3,1.3 0.15,0.4 0.4,0.75 0.7,1.1 0.3,0.25 0.65,0.5 1.05,0.7 0.4,0.15 0.85,0.25 1.3,0.25 l 9.4,0 0,4.7 -10.65,0 0,3.35 10.65,0 c 0.45,0 0.9,-0.1 1.3,-0.25 0.4,-0.2 0.75,-0.45 1.1,-0.75 0.25,-0.3 0.5,-0.65 0.7,-1.05 0.15,-0.4 0.25,-0.85 0.25,-1.3 l 0,-22.2 -3.35,0 0,3.2 c -0.05,-0.45 -0.15,-0.85 -0.3,-1.25 -0.2,-0.4 -0.45,-0.75 -0.75,-1 -0.3,-0.3 -0.65,-0.55 -1.05,-0.7 z m 2.1,13.9 -9.4,0 0,-10.8 9.4,0 0,10.8 z M 632,19.5 l -6.05,0 c -0.45,0 -0.85,0.1 -1.25,0.25 -0.4,0.15 -0.75,0.4 -1.05,0.7 -0.3,0.25 -0.55,0.6 -0.75,1 -0.15,0.4 -0.25,0.8 -0.3,1.25 l 0,-3.2 -3.35,0 0,18.2 3.35,0 0,-14.85 9.4,0 0,14.85 3.35,0 0,-14.85 c 0,-0.45 -0.1,-0.9 -0.25,-1.3 -0.2,-0.4 -0.45,-0.75 -0.7,-1.05 -0.35,-0.3 -0.7,-0.55 -1.1,-0.75 -0.4,-0.15 -0.85,-0.25 -1.3,-0.25 z m -22.05,-7 0,3.5 3.7,0 0,-3.5 -3.7,0 z m 3.55,7 -3.4,0 0,18.2 3.4,0 0,-18.2 z m -21.6,1.95 c -0.15,0.4 -0.25,0.8 -0.3,1.25 l 0,-3.2 -3.35,0 0,18.2 3.35,0 0,-14.85 9.4,0 0,14.85 3.35,0 0,-14.85 c 0,-0.45 -0.1,-0.9 -0.25,-1.3 -0.2,-0.4 -0.45,-0.75 -0.7,-1.05 -0.35,-0.3 -0.7,-0.55 -1.1,-0.75 -0.4,-0.15 -0.85,-0.25 -1.3,-0.25 l -6.05,0 c -0.45,0 -0.85,0.1 -1.25,0.25 -0.4,0.15 -0.75,0.4 -1.05,0.7 -0.3,0.25 -0.55,0.6 -0.75,1 z m -12.95,-8.95 0,3.5 3.7,0 0,-3.5 -3.7,0 z m -5.6,10.35 c 0,-0.45 -0.1,-0.9 -0.25,-1.3 -0.2,-0.4 -0.45,-0.75 -0.7,-1.05 -0.35,-0.3 -0.7,-0.55 -1.1,-0.75 -0.4,-0.15 -0.85,-0.25 -1.3,-0.25 l -11,0 0,3.35 11,0 0,3.55 -8.7,0 c -0.45,0 -0.9,0.1 -1.3,0.25 -0.4,0.15 -0.75,0.4 -1.05,0.75 -0.3,0.3 -0.55,0.65 -0.7,1.05 -0.2,0.4 -0.3,0.85 -0.3,1.3 l 0,4.6 c 0,0.45 0.1,0.9 0.3,1.3 0.15,0.4 0.4,0.75 0.7,1.1 0.3,0.25 0.65,0.5 1.05,0.7 0.4,0.15 0.85,0.25 1.3,0.25 l 5.35,0 c 0.45,0 0.85,-0.1 1.2,-0.25 0.4,-0.15 0.75,-0.4 1.05,-0.65 0.3,-0.25 0.55,-0.6 0.75,-1 0.2,-0.35 0.3,-0.75 0.35,-1.2 l 0,3.1 3.35,0 0,-14.85 z m -3.35,11.5 -8.7,0 0,-4.6 8.7,0 0,4.6 z m 12.5,-14.85 -3.4,0 0,18.2 3.4,0 0,-18.2 z m -36.15,3.35 6,0 0,-3.35 -6,0 0,-5.6 -3.35,0 0,5.6 -4.45,0 0,3.35 4.45,0 0,11.5 c 0,0.45 0.1,0.9 0.25,1.3 0.15,0.4 0.4,0.75 0.75,1.1 0.3,0.25 0.65,0.5 1.05,0.7 0.4,0.15 0.85,0.25 1.3,0.25 l 6,0 0,-3.35 -6,0 0,-11.5 z m -12.35,0 c 0,-0.45 -0.1,-0.9 -0.25,-1.3 -0.2,-0.4 -0.45,-0.75 -0.7,-1.05 -0.35,-0.3 -0.7,-0.55 -1.1,-0.75 -0.4,-0.15 -0.85,-0.25 -1.3,-0.25 l -6.05,0 c -0.45,0 -0.85,0.1 -1.25,0.25 -0.4,0.15 -0.75,0.4 -1.05,0.7 -0.3,0.25 -0.55,0.6 -0.75,1 -0.15,0.4 -0.25,0.8 -0.3,1.25 l 0,-3.2 -3.35,0 0,18.2 3.35,0 0,-14.85 9.4,0 0,14.85 3.35,0 0,-14.85 z m -25.4,-10.35 0,3.5 3.7,0 0,-3.5 -3.7,0 z m 3.55,7 -3.4,0 0,18.2 3.4,0 0,-18.2 z m -23.5,0 0,3.35 11,0 0,3.55 -8.7,0 c -0.45,0 -0.9,0.1 -1.3,0.25 -0.4,0.15 -0.75,0.4 -1.05,0.75 -0.3,0.3 -0.55,0.65 -0.7,1.05 -0.2,0.4 -0.3,0.85 -0.3,1.3 l 0,4.6 c 0,0.45 0.1,0.9 0.3,1.3 0.15,0.4 0.4,0.75 0.7,1.1 0.3,0.25 0.65,0.5 1.05,0.7 0.4,0.15 0.85,0.25 1.3,0.25 l 5.35,0 c 0.45,0 0.85,-0.1 1.2,-0.25 0.4,-0.15 0.75,-0.4 1.05,-0.65 0.3,-0.25 0.55,-0.6 0.75,-1 0.2,-0.35 0.3,-0.75 0.35,-1.2 l 0,3.1 3.35,0 0,-14.85 c 0,-0.45 -0.1,-0.9 -0.25,-1.3 -0.2,-0.4 -0.45,-0.75 -0.7,-1.05 -0.35,-0.3 -0.7,-0.55 -1.1,-0.75 -0.4,-0.15 -0.85,-0.25 -1.3,-0.25 l -11,0 z m 11,10.25 0,4.6 -8.7,0 0,-4.6 8.7,0 z m -18,-16.55 -3.8,0 -9.35,18.45 -9.35,-18.45 -3.8,0 0,24.5 3.5,0 0,-17.95 9.15,17.95 1.05,0 9.15,-17.95 0,17.95 3.45,0 0,-24.5 z m -42.75,-0.7 -3.35,0 0,7 -9.4,0 c -0.45,0 -0.9,0.1 -1.3,0.25 -0.4,0.2 -0.75,0.45 -1.05,0.75 -0.3,0.3 -0.55,0.65 -0.7,1.05 -0.2,0.4 -0.3,0.85 -0.3,1.3 l 0,11.5 c 0,0.45 0.1,0.9 0.3,1.3 0.15,0.4 0.4,0.75 0.7,1.1 0.3,0.25 0.65,0.5 1.05,0.7 0.4,0.15 0.85,0.25 1.3,0.25 l 6.05,0 c 0.45,0 0.85,-0.1 1.2,-0.25 0.4,-0.15 0.75,-0.4 1.05,-0.65 0.3,-0.25 0.55,-0.6 0.75,-1 0.2,-0.35 0.3,-0.75 0.35,-1.2 l 0,3.1 3.35,0 0,-25.2 z m -3.35,10.35 0,11.5 -9.4,0 0,-11.5 9.4,0 z m -30.05,-2.4 c -0.3,0.25 -0.55,0.6 -0.75,1 -0.15,0.4 -0.25,0.8 -0.3,1.25 l 0,-3.2 -3.35,0 0,18.2 3.35,0 0,-14.85 9.4,0 0,14.85 3.35,0 0,-14.85 c 0,-0.45 -0.1,-0.9 -0.25,-1.3 -0.2,-0.4 -0.45,-0.75 -0.7,-1.05 -0.35,-0.3 -0.7,-0.55 -1.1,-0.75 -0.4,-0.15 -0.85,-0.25 -1.3,-0.25 l -6.05,0 c -0.45,0 -0.85,0.1 -1.25,0.25 -0.4,0.15 -0.75,0.4 -1.05,0.7 z m -13.35,2.4 0,3.55 -8.7,0 c -0.45,0 -0.9,0.1 -1.3,0.25 -0.4,0.15 -0.75,0.4 -1.05,0.75 -0.3,0.3 -0.55,0.65 -0.7,1.05 -0.2,0.4 -0.3,0.85 -0.3,1.3 l 0,4.6 c 0,0.45 0.1,0.9 0.3,1.3 0.15,0.4 0.4,0.75 0.7,1.1 0.3,0.25 0.65,0.5 1.05,0.7 0.4,0.15 0.85,0.25 1.3,0.25 l 5.35,0 c 0.45,0 0.85,-0.1 1.2,-0.25 0.4,-0.15 0.75,-0.4 1.05,-0.65 0.3,-0.25 0.55,-0.6 0.75,-1 0.2,-0.35 0.3,-0.75 0.35,-1.2 l 0,3.1 3.35,0 0,-14.85 c 0,-0.45 -0.1,-0.9 -0.25,-1.3 -0.2,-0.4 -0.45,-0.75 -0.7,-1.05 -0.35,-0.3 -0.7,-0.55 -1.1,-0.75 -0.4,-0.15 -0.85,-0.25 -1.3,-0.25 l -11,0 0,3.35 11,0 z m 0,6.9 0,4.6 -8.7,0 0,-4.6 8.7,0 z m -29.1,14.3 c 0.25,-0.3 0.5,-0.65 0.7,-1.05 0.15,-0.4 0.25,-0.85 0.25,-1.3 l 0,-22.2 -3.35,0 0,3.2 c -0.05,-0.45 -0.15,-0.85 -0.3,-1.25 -0.2,-0.4 -0.45,-0.75 -0.75,-1 -0.3,-0.3 -0.65,-0.55 -1.05,-0.7 -0.4,-0.15 -0.8,-0.25 -1.25,-0.25 l -6.05,0 c -0.45,0 -0.9,0.1 -1.3,0.25 -0.4,0.2 -0.75,0.45 -1.05,0.75 -0.3,0.3 -0.55,0.65 -0.7,1.05 -0.2,0.4 -0.3,0.85 -0.3,1.3 l 0,10.8 c 0,0.45 0.1,0.9 0.3,1.3 0.15,0.4 0.4,0.75 0.7,1.1 0.3,0.25 0.65,0.5 1.05,0.7 0.4,0.15 0.85,0.25 1.3,0.25 l 9.4,0 0,4.7 -10.65,0 0,3.35 10.65,0 c 0.45,0 0.9,-0.1 1.3,-0.25 0.4,-0.2 0.75,-0.45 1.1,-0.75 z m -2.4,-21.2 0,10.8 -9.4,0 0,-10.8 9.4,0 z m -30.8,-1.4 c -0.15,0.4 -0.25,0.8 -0.3,1.25 l 0,-3.2 -3.35,0 0,18.2 3.35,0 0,-14.85 9.4,0 0,14.85 3.35,0 0,-14.85 c 0,-0.45 -0.1,-0.9 -0.25,-1.3 -0.2,-0.4 -0.45,-0.75 -0.7,-1.05 -0.35,-0.3 -0.7,-0.55 -1.1,-0.75 -0.4,-0.15 -0.85,-0.25 -1.3,-0.25 l -6.05,0 c -0.45,0 -0.85,0.1 -1.25,0.25 -0.4,0.15 -0.75,0.4 -1.05,0.7 -0.3,0.25 -0.55,0.6 -0.75,1 z M 312,20.4 l 0,-0.9 -15.05,0 0,3.35 9.35,0 -9.7,13.95 0,0.9 15.4,0 0,-3.35 -9.7,0 9.7,-13.95 z m 8.45,-0.9 -3.4,0 0,18.2 3.4,0 0,-18.2 z m 0.15,-7 -3.7,0 0,3.5 3.7,0 0,-3.5 z m -38.2,10.35 c 0,-0.45 -0.1,-0.9 -0.25,-1.3 -0.2,-0.4 -0.45,-0.75 -0.75,-1.05 -0.3,-0.3 -0.65,-0.55 -1.05,-0.75 C 279.9,19.6 279.45,19.5 279,19.5 l -4.3,0 c -0.45,0 -0.9,0.1 -1.3,0.25 -0.4,0.15 -0.75,0.4 -1.05,0.7 -0.3,0.25 -0.55,0.6 -0.7,1 -0.2,0.4 -0.3,0.8 -0.3,1.25 -0.05,-0.45 -0.15,-0.85 -0.3,-1.25 -0.2,-0.4 -0.45,-0.75 -0.75,-1 -0.35,-0.3 -0.7,-0.55 -1.1,-0.7 -0.35,-0.15 -0.8,-0.25 -1.25,-0.25 l -4.35,0 c -0.45,0 -0.85,0.1 -1.25,0.25 -0.4,0.15 -0.75,0.4 -1.05,0.7 -0.3,0.25 -0.55,0.6 -0.75,1 -0.15,0.4 -0.25,0.8 -0.3,1.25 l 0,-3.2 -3.35,0 0,18.2 3.35,0 0,-14.85 7.7,0 0,14.85 3.4,0 0,-14.85 7.65,0 0,14.85 3.4,0 0,-14.85 z m 5.6,-10.35 0,3.5 3.7,0 0,-3.5 -3.7,0 z m 3.55,7 -3.4,0 0,18.2 3.4,0 0,-18.2 z m -42.3,0.25 c -0.4,-0.15 -0.85,-0.25 -1.3,-0.25 l -9.05,0 c -0.45,0 -0.9,0.1 -1.3,0.25 -0.4,0.2 -0.75,0.45 -1.05,0.75 -0.3,0.3 -0.55,0.65 -0.7,1.05 -0.2,0.4 -0.3,0.85 -0.3,1.3 l 0,11.5 c 0,0.45 0.1,0.9 0.3,1.3 0.15,0.4 0.4,0.75 0.7,1.1 0.3,0.25 0.65,0.5 1.05,0.7 0.4,0.15 0.85,0.25 1.3,0.25 l 9.05,0 c 0.45,0 0.9,-0.1 1.3,-0.25 0.4,-0.2 0.75,-0.45 1.05,-0.7 0.3,-0.35 0.55,-0.7 0.75,-1.1 0.15,-0.4 0.25,-0.85 0.25,-1.3 l 0,-11.5 c 0,-0.45 -0.1,-0.9 -0.25,-1.3 -0.2,-0.4 -0.45,-0.75 -0.75,-1.05 -0.3,-0.3 -0.65,-0.55 -1.05,-0.75 z m -1.3,14.6 -9.05,0 0,-11.5 9.05,0 0,11.5 z m -24,-11.5 6,0 0,-3.35 -6,0 0,-5.6 -3.35,0 0,5.6 -4.45,0 0,3.35 4.45,0 0,11.5 c 0,0.45 0.1,0.9 0.25,1.3 0.15,0.4 0.4,0.75 0.75,1.1 0.3,0.25 0.65,0.5 1.05,0.7 0.4,0.15 0.85,0.25 1.3,0.25 l 6,0 0,-3.35 -6,0 0,-11.5 z M 209.9,27 c -0.4,-0.15 -0.85,-0.25 -1.3,-0.25 l -8,0 0,-3.9 10.65,0 0,-3.35 -10.65,0 c -0.45,0 -0.9,0.1 -1.3,0.25 -0.4,0.2 -0.75,0.45 -1.05,0.75 -0.35,0.3 -0.6,0.65 -0.75,1.05 -0.15,0.4 -0.25,0.85 -0.25,1.3 l 0,3.9 c 0,0.45 0.1,0.9 0.25,1.3 0.15,0.45 0.4,0.8 0.75,1.1 0.3,0.3 0.65,0.55 1.05,0.7 0.4,0.15 0.85,0.25 1.3,0.25 l 8,0 0,4.25 -11.35,0 0,3.35 11.35,0 c 0.45,0 0.9,-0.1 1.3,-0.25 0.4,-0.2 0.75,-0.45 1.05,-0.7 0.35,-0.35 0.6,-0.7 0.75,-1.1 0.15,-0.4 0.25,-0.85 0.25,-1.3 l 0,-4.25 c 0,-0.45 -0.1,-0.9 -0.25,-1.3 -0.15,-0.4 -0.4,-0.75 -0.75,-1.05 -0.3,-0.3 -0.65,-0.55 -1.05,-0.75 z m -17.9,-7.5 -3.35,0 0,14.85 -9.4,0 0,-14.85 -3.35,0 0,14.85 c 0,0.45 0.1,0.9 0.3,1.3 0.15,0.4 0.4,0.75 0.7,1.1 0.3,0.25 0.65,0.5 1.05,0.7 0.4,0.15 0.85,0.25 1.3,0.25 l 6.05,0 c 0.45,0 0.85,-0.1 1.2,-0.25 0.4,-0.15 0.75,-0.4 1.05,-0.65 0.3,-0.25 0.55,-0.6 0.75,-1 0.2,-0.35 0.3,-0.75 0.35,-1.2 l 0,3.1 3.35,0 0,-18.2 z m -23.5,-6 c -0.45,-0.2 -0.9,-0.3 -1.35,-0.3 l -13.3,0 c -0.45,0 -0.9,0.1 -1.35,0.3 -0.45,0.15 -0.8,0.4 -1.15,0.75 -0.3,0.3 -0.55,0.65 -0.75,1.1 -0.15,0.45 -0.25,0.9 -0.25,1.35 l 0,17.5 c 0,0.45 0.1,0.9 0.25,1.35 0.2,0.45 0.45,0.8 0.75,1.1 0.35,0.35 0.7,0.6 1.15,0.8 0.45,0.15 0.9,0.25 1.35,0.25 l 13.3,0 c 0.45,0 0.9,-0.1 1.35,-0.25 0.45,-0.2 0.8,-0.45 1.1,-0.8 0.35,-0.3 0.6,-0.65 0.75,-1.1 0.2,-0.45 0.3,-0.9 0.3,-1.35 l 0,-3.15 -3.5,0 0,3.15 -13.3,0 0,-17.5 13.3,0 0,3.15 3.5,0 0,-3.15 c 0,-0.45 -0.1,-0.9 -0.3,-1.35 -0.15,-0.45 -0.4,-0.8 -0.75,-1.1 -0.3,-0.35 -0.65,-0.6 -1.1,-0.75 z"
         inkscape:connector-curvature="0"
         style="fill:#ffffff;fill-opacity:1" />
    </g>
    <g
       id="drawingObject28">
      <path
         id="path402"
         d="m 856.4,12.5 0,-1.05 -18.9,0 0,3.5 13.7,0 -11,21 4.05,0 L 856.4,12.5 z M 810.5,18 c -0.4,0.2 -0.75,0.45 -1.05,0.75 -0.35,0.3 -0.6,0.65 -0.75,1.05 -0.15,0.4 -0.25,0.85 -0.25,1.3 l 0,3.9 c 0,0.45 0.1,0.9 0.25,1.3 0.15,0.45 0.4,0.8 0.75,1.1 0.3,0.3 0.65,0.55 1.05,0.7 0.4,0.15 0.85,0.25 1.3,0.25 l 8,0 0,4.25 -11.35,0 0,3.35 11.35,0 c 0.45,0 0.9,-0.1 1.3,-0.25 0.4,-0.2 0.75,-0.45 1.05,-0.7 0.35,-0.35 0.6,-0.7 0.75,-1.1 0.15,-0.4 0.25,-0.85 0.25,-1.3 l 0,-4.25 c 0,-0.45 -0.1,-0.9 -0.25,-1.3 -0.15,-0.4 -0.4,-0.75 -0.75,-1.05 -0.3,-0.3 -0.65,-0.55 -1.05,-0.75 C 820.7,25.1 820.25,25 819.8,25 l -8,0 0,-3.9 10.65,0 0,-3.35 -10.65,0 c -0.45,0 -0.9,0.1 -1.3,0.25 z m -5.2,-0.25 -3.4,0 -4.3,13.7 -4.05,-13.7 -3.45,0 -4,13.7 -4.3,-13.7 -3.4,0 5.9,18.2 3.5,0 4.05,-13.35 4.05,13.35 3.5,0 5.9,-18.2 z M 772.85,18 c -0.4,-0.15 -0.85,-0.25 -1.3,-0.25 l -9.05,0 c -0.45,0 -0.9,0.1 -1.3,0.25 -0.4,0.2 -0.75,0.45 -1.05,0.75 -0.3,0.3 -0.55,0.65 -0.7,1.05 -0.2,0.4 -0.3,0.85 -0.3,1.3 l 0,11.5 c 0,0.45 0.1,0.9 0.3,1.3 0.15,0.4 0.4,0.75 0.7,1.1 0.3,0.25 0.65,0.5 1.05,0.7 0.4,0.15 0.85,0.25 1.3,0.25 l 9.05,0 c 0.45,0 0.9,-0.1 1.3,-0.25 0.4,-0.2 0.75,-0.45 1.05,-0.7 0.3,-0.35 0.55,-0.7 0.75,-1.1 0.15,-0.4 0.25,-0.85 0.25,-1.3 l 0,-11.5 c 0,-0.45 -0.1,-0.9 -0.25,-1.3 -0.2,-0.4 -0.45,-0.75 -0.75,-1.05 -0.3,-0.3 -0.65,-0.55 -1.05,-0.75 z m -1.3,14.6 -9.05,0 0,-11.5 9.05,0 0,11.5 z m -21.35,-21.85 0,7 -9.4,0 c -0.45,0 -0.9,0.1 -1.3,0.25 -0.4,0.2 -0.75,0.45 -1.05,0.75 -0.3,0.3 -0.55,0.65 -0.7,1.05 -0.2,0.4 -0.3,0.85 -0.3,1.3 l 0,11.5 c 0,0.45 0.1,0.9 0.3,1.3 0.15,0.4 0.4,0.75 0.7,1.1 0.3,0.25 0.65,0.5 1.05,0.7 0.4,0.15 0.85,0.25 1.3,0.25 l 6.05,0 c 0.45,0 0.85,-0.1 1.2,-0.25 0.4,-0.15 0.75,-0.4 1.05,-0.65 0.3,-0.25 0.55,-0.6 0.75,-1 0.2,-0.35 0.3,-0.75 0.35,-1.2 l 0,3.1 3.35,0 0,-25.2 -3.35,0 z m -9.4,21.85 0,-11.5 9.4,0 0,11.5 -9.4,0 z m -9.9,-13.85 c -0.35,-0.3 -0.7,-0.55 -1.1,-0.75 -0.4,-0.15 -0.85,-0.25 -1.3,-0.25 l -6.05,0 c -0.45,0 -0.85,0.1 -1.25,0.25 -0.4,0.15 -0.75,0.4 -1.05,0.7 -0.3,0.25 -0.55,0.6 -0.75,1 -0.15,0.4 -0.25,0.8 -0.3,1.25 l 0,-3.2 -3.35,0 0,18.2 3.35,0 0,-14.85 9.4,0 0,14.85 3.35,0 0,-14.85 c 0,-0.45 -0.1,-0.9 -0.25,-1.3 -0.2,-0.4 -0.45,-0.75 -0.7,-1.05 z m -24.45,-8 0,3.5 3.7,0 0,-3.5 -3.7,0 z m 3.55,7 -3.4,0 0,18.2 3.4,0 0,-18.2 z m -7.4,-6.3 -3.5,0 -5.45,19.5 -5.4,-19.5 -3.5,0 -5.4,19.5 -5.45,-19.5 -3.5,0 7,24.5 3.85,0 5.25,-18.35 5.25,18.35 3.85,0 7,-24.5 z m -52,6.55 c -0.4,-0.15 -0.8,-0.25 -1.25,-0.25 l -6.05,0 c -0.45,0 -0.9,0.1 -1.3,0.25 -0.4,0.2 -0.75,0.45 -1.05,0.75 -0.3,0.3 -0.55,0.65 -0.7,1.05 -0.2,0.4 -0.3,0.85 -0.3,1.3 l 0,10.8 c 0,0.45 0.1,0.9 0.3,1.3 0.15,0.4 0.4,0.75 0.7,1.1 0.3,0.25 0.65,0.5 1.05,0.7 0.4,0.15 0.85,0.25 1.3,0.25 l 9.4,0 0,4.7 -10.65,0 0,3.35 10.65,0 c 0.45,0 0.9,-0.1 1.3,-0.25 0.4,-0.2 0.75,-0.45 1.1,-0.75 0.25,-0.3 0.5,-0.65 0.7,-1.05 0.15,-0.4 0.25,-0.85 0.25,-1.3 l 0,-22.2 -3.35,0 0,3.2 c -0.05,-0.45 -0.15,-0.85 -0.3,-1.25 -0.2,-0.4 -0.45,-0.75 -0.75,-1 -0.3,-0.3 -0.65,-0.55 -1.05,-0.7 z m 2.1,13.9 -9.4,0 0,-10.8 9.4,0 0,10.8 z M 631,17.75 l -6.05,0 c -0.45,0 -0.85,0.1 -1.25,0.25 -0.4,0.15 -0.75,0.4 -1.05,0.7 -0.3,0.25 -0.55,0.6 -0.75,1 -0.15,0.4 -0.25,0.8 -0.3,1.25 l 0,-3.2 -3.35,0 0,18.2 3.35,0 0,-14.85 9.4,0 0,14.85 3.35,0 0,-14.85 c 0,-0.45 -0.1,-0.9 -0.25,-1.3 -0.2,-0.4 -0.45,-0.75 -0.7,-1.05 -0.35,-0.3 -0.7,-0.55 -1.1,-0.75 -0.4,-0.15 -0.85,-0.25 -1.3,-0.25 z m -22.05,-7 0,3.5 3.7,0 0,-3.5 -3.7,0 z m 3.55,7 -3.4,0 0,18.2 3.4,0 0,-18.2 z m -21.6,1.95 c -0.15,0.4 -0.25,0.8 -0.3,1.25 l 0,-3.2 -3.35,0 0,18.2 3.35,0 0,-14.85 9.4,0 0,14.85 3.35,0 0,-14.85 c 0,-0.45 -0.1,-0.9 -0.25,-1.3 -0.2,-0.4 -0.45,-0.75 -0.7,-1.05 -0.35,-0.3 -0.7,-0.55 -1.1,-0.75 -0.4,-0.15 -0.85,-0.25 -1.3,-0.25 l -6.05,0 c -0.45,0 -0.85,0.1 -1.25,0.25 -0.4,0.15 -0.75,0.4 -1.05,0.7 -0.3,0.25 -0.55,0.6 -0.75,1 z m -12.95,-8.95 0,3.5 3.7,0 0,-3.5 -3.7,0 z m -5.6,10.35 c 0,-0.45 -0.1,-0.9 -0.25,-1.3 -0.2,-0.4 -0.45,-0.75 -0.7,-1.05 -0.35,-0.3 -0.7,-0.55 -1.1,-0.75 -0.4,-0.15 -0.85,-0.25 -1.3,-0.25 l -11,0 0,3.35 11,0 0,3.55 -8.7,0 c -0.45,0 -0.9,0.1 -1.3,0.25 -0.4,0.15 -0.75,0.4 -1.05,0.75 -0.3,0.3 -0.55,0.65 -0.7,1.05 -0.2,0.4 -0.3,0.85 -0.3,1.3 l 0,4.6 c 0,0.45 0.1,0.9 0.3,1.3 0.15,0.4 0.4,0.75 0.7,1.1 0.3,0.25 0.65,0.5 1.05,0.7 0.4,0.15 0.85,0.25 1.3,0.25 l 5.35,0 c 0.45,0 0.85,-0.1 1.2,-0.25 0.4,-0.15 0.75,-0.4 1.05,-0.65 0.3,-0.25 0.55,-0.6 0.75,-1 0.2,-0.35 0.3,-0.75 0.35,-1.2 l 0,3.1 3.35,0 0,-14.85 z m -3.35,11.5 -8.7,0 0,-4.6 8.7,0 0,4.6 z m 12.5,-14.85 -3.4,0 0,18.2 3.4,0 0,-18.2 z m -36.15,3.35 6,0 0,-3.35 -6,0 0,-5.6 -3.35,0 0,5.6 -4.45,0 0,3.35 4.45,0 0,11.5 c 0,0.45 0.1,0.9 0.25,1.3 0.15,0.4 0.4,0.75 0.75,1.1 0.3,0.25 0.65,0.5 1.05,0.7 0.4,0.15 0.85,0.25 1.3,0.25 l 6,0 0,-3.35 -6,0 0,-11.5 z m -12.35,0 c 0,-0.45 -0.1,-0.9 -0.25,-1.3 -0.2,-0.4 -0.45,-0.75 -0.7,-1.05 -0.35,-0.3 -0.7,-0.55 -1.1,-0.75 -0.4,-0.15 -0.85,-0.25 -1.3,-0.25 l -6.05,0 c -0.45,0 -0.85,0.1 -1.25,0.25 -0.4,0.15 -0.75,0.4 -1.05,0.7 -0.3,0.25 -0.55,0.6 -0.75,1 -0.15,0.4 -0.25,0.8 -0.3,1.25 l 0,-3.2 -3.35,0 0,18.2 3.35,0 0,-14.85 9.4,0 0,14.85 3.35,0 0,-14.85 z m -25.4,-10.35 0,3.5 3.7,0 0,-3.5 -3.7,0 z m 3.55,7 -3.4,0 0,18.2 3.4,0 0,-18.2 z m -23.5,0 0,3.35 11,0 0,3.55 -8.7,0 c -0.45,0 -0.9,0.1 -1.3,0.25 -0.4,0.15 -0.75,0.4 -1.05,0.75 -0.3,0.3 -0.55,0.65 -0.7,1.05 -0.2,0.4 -0.3,0.85 -0.3,1.3 l 0,4.6 c 0,0.45 0.1,0.9 0.3,1.3 0.15,0.4 0.4,0.75 0.7,1.1 0.3,0.25 0.65,0.5 1.05,0.7 0.4,0.15 0.85,0.25 1.3,0.25 l 5.35,0 c 0.45,0 0.85,-0.1 1.2,-0.25 0.4,-0.15 0.75,-0.4 1.05,-0.65 0.3,-0.25 0.55,-0.6 0.75,-1 0.2,-0.35 0.3,-0.75 0.35,-1.2 l 0,3.1 3.35,0 0,-14.85 c 0,-0.45 -0.1,-0.9 -0.25,-1.3 -0.2,-0.4 -0.45,-0.75 -0.7,-1.05 -0.35,-0.3 -0.7,-0.55 -1.1,-0.75 -0.4,-0.15 -0.85,-0.25 -1.3,-0.25 l -11,0 z m 11,10.25 0,4.6 -8.7,0 0,-4.6 8.7,0 z m -18,-16.55 -3.8,0 -9.35,18.45 -9.35,-18.45 -3.8,0 0,24.5 3.5,0 0,-17.95 9.15,17.95 1.05,0 9.15,-17.95 0,17.95 3.45,0 0,-24.5 z m -42.75,-0.7 -3.35,0 0,7 -9.4,0 c -0.45,0 -0.9,0.1 -1.3,0.25 -0.4,0.2 -0.75,0.45 -1.05,0.75 -0.3,0.3 -0.55,0.65 -0.7,1.05 -0.2,0.4 -0.3,0.85 -0.3,1.3 l 0,11.5 c 0,0.45 0.1,0.9 0.3,1.3 0.15,0.4 0.4,0.75 0.7,1.1 0.3,0.25 0.65,0.5 1.05,0.7 0.4,0.15 0.85,0.25 1.3,0.25 l 6.05,0 c 0.45,0 0.85,-0.1 1.2,-0.25 0.4,-0.15 0.75,-0.4 1.05,-0.65 0.3,-0.25 0.55,-0.6 0.75,-1 0.2,-0.35 0.3,-0.75 0.35,-1.2 l 0,3.1 3.35,0 0,-25.2 z m -3.35,10.35 0,11.5 -9.4,0 0,-11.5 9.4,0 z M 404.5,18.7 c -0.3,0.25 -0.55,0.6 -0.75,1 -0.15,0.4 -0.25,0.8 -0.3,1.25 l 0,-3.2 -3.35,0 0,18.2 3.35,0 0,-14.85 9.4,0 0,14.85 3.35,0 0,-14.85 c 0,-0.45 -0.1,-0.9 -0.25,-1.3 -0.2,-0.4 -0.45,-0.75 -0.7,-1.05 -0.35,-0.3 -0.7,-0.55 -1.1,-0.75 -0.4,-0.15 -0.85,-0.25 -1.3,-0.25 l -6.05,0 c -0.45,0 -0.85,0.1 -1.25,0.25 -0.4,0.15 -0.75,0.4 -1.05,0.7 z m -13.35,2.4 0,3.55 -8.7,0 c -0.45,0 -0.9,0.1 -1.3,0.25 -0.4,0.15 -0.75,0.4 -1.05,0.75 -0.3,0.3 -0.55,0.65 -0.7,1.05 -0.2,0.4 -0.3,0.85 -0.3,1.3 l 0,4.6 c 0,0.45 0.1,0.9 0.3,1.3 0.15,0.4 0.4,0.75 0.7,1.1 0.3,0.25 0.65,0.5 1.05,0.7 0.4,0.15 0.85,0.25 1.3,0.25 l 5.35,0 c 0.45,0 0.85,-0.1 1.2,-0.25 0.4,-0.15 0.75,-0.4 1.05,-0.65 0.3,-0.25 0.55,-0.6 0.75,-1 0.2,-0.35 0.3,-0.75 0.35,-1.2 l 0,3.1 3.35,0 0,-14.85 c 0,-0.45 -0.1,-0.9 -0.25,-1.3 -0.2,-0.4 -0.45,-0.75 -0.7,-1.05 -0.35,-0.3 -0.7,-0.55 -1.1,-0.75 -0.4,-0.15 -0.85,-0.25 -1.3,-0.25 l -11,0 0,3.35 11,0 z m 0,6.9 0,4.6 -8.7,0 0,-4.6 8.7,0 z m -29.1,14.3 c 0.25,-0.3 0.5,-0.65 0.7,-1.05 0.15,-0.4 0.25,-0.85 0.25,-1.3 l 0,-22.2 -3.35,0 0,3.2 c -0.05,-0.45 -0.15,-0.85 -0.3,-1.25 -0.2,-0.4 -0.45,-0.75 -0.75,-1 -0.3,-0.3 -0.65,-0.55 -1.05,-0.7 -0.4,-0.15 -0.8,-0.25 -1.25,-0.25 l -6.05,0 c -0.45,0 -0.9,0.1 -1.3,0.25 -0.4,0.2 -0.75,0.45 -1.05,0.75 -0.3,0.3 -0.55,0.65 -0.7,1.05 -0.2,0.4 -0.3,0.85 -0.3,1.3 l 0,10.8 c 0,0.45 0.1,0.9 0.3,1.3 0.15,0.4 0.4,0.75 0.7,1.1 0.3,0.25 0.65,0.5 1.05,0.7 0.4,0.15 0.85,0.25 1.3,0.25 l 9.4,0 0,4.7 -10.65,0 0,3.35 10.65,0 c 0.45,0 0.9,-0.1 1.3,-0.25 0.4,-0.2 0.75,-0.45 1.1,-0.75 z m -2.4,-21.2 0,10.8 -9.4,0 0,-10.8 9.4,0 z m -30.8,-1.4 c -0.15,0.4 -0.25,0.8 -0.3,1.25 l 0,-3.2 -3.35,0 0,18.2 3.35,0 0,-14.85 9.4,0 0,14.85 3.35,0 0,-14.85 c 0,-0.45 -0.1,-0.9 -0.25,-1.3 -0.2,-0.4 -0.45,-0.75 -0.7,-1.05 -0.35,-0.3 -0.7,-0.55 -1.1,-0.75 -0.4,-0.15 -0.85,-0.25 -1.3,-0.25 l -6.05,0 c -0.45,0 -0.85,0.1 -1.25,0.25 -0.4,0.15 -0.75,0.4 -1.05,0.7 -0.3,0.25 -0.55,0.6 -0.75,1 z M 311,18.65 l 0,-0.9 -15.05,0 0,3.35 9.35,0 -9.7,13.95 0,0.9 15.4,0 0,-3.35 -9.7,0 9.7,-13.95 z m 8.45,-0.9 -3.4,0 0,18.2 3.4,0 0,-18.2 z m 0.15,-7 -3.7,0 0,3.5 3.7,0 0,-3.5 z M 281.4,21.1 c 0,-0.45 -0.1,-0.9 -0.25,-1.3 -0.2,-0.4 -0.45,-0.75 -0.75,-1.05 -0.3,-0.3 -0.65,-0.55 -1.05,-0.75 -0.45,-0.15 -0.9,-0.25 -1.35,-0.25 l -4.3,0 c -0.45,0 -0.9,0.1 -1.3,0.25 -0.4,0.15 -0.75,0.4 -1.05,0.7 -0.3,0.25 -0.55,0.6 -0.7,1 -0.2,0.4 -0.3,0.8 -0.3,1.25 -0.05,-0.45 -0.15,-0.85 -0.3,-1.25 -0.2,-0.4 -0.45,-0.75 -0.75,-1 -0.35,-0.3 -0.7,-0.55 -1.1,-0.7 -0.35,-0.15 -0.8,-0.25 -1.25,-0.25 l -4.35,0 c -0.45,0 -0.85,0.1 -1.25,0.25 -0.4,0.15 -0.75,0.4 -1.05,0.7 -0.3,0.25 -0.55,0.6 -0.75,1 -0.15,0.4 -0.25,0.8 -0.3,1.25 l 0,-3.2 -3.35,0 0,18.2 3.35,0 0,-14.85 7.7,0 0,14.85 3.4,0 0,-14.85 7.65,0 0,14.85 3.4,0 0,-14.85 z m 5.6,-10.35 0,3.5 3.7,0 0,-3.5 -3.7,0 z m 3.55,7 -3.4,0 0,18.2 3.4,0 0,-18.2 z M 248.25,18 c -0.4,-0.15 -0.85,-0.25 -1.3,-0.25 l -9.05,0 c -0.45,0 -0.9,0.1 -1.3,0.25 -0.4,0.2 -0.75,0.45 -1.05,0.75 -0.3,0.3 -0.55,0.65 -0.7,1.05 -0.2,0.4 -0.3,0.85 -0.3,1.3 l 0,11.5 c 0,0.45 0.1,0.9 0.3,1.3 0.15,0.4 0.4,0.75 0.7,1.1 0.3,0.25 0.65,0.5 1.05,0.7 0.4,0.15 0.85,0.25 1.3,0.25 l 9.05,0 c 0.45,0 0.9,-0.1 1.3,-0.25 0.4,-0.2 0.75,-0.45 1.05,-0.7 0.3,-0.35 0.55,-0.7 0.75,-1.1 0.15,-0.4 0.25,-0.85 0.25,-1.3 l 0,-11.5 c 0,-0.45 -0.1,-0.9 -0.25,-1.3 -0.2,-0.4 -0.45,-0.75 -0.75,-1.05 -0.3,-0.3 -0.65,-0.55 -1.05,-0.75 z m -1.3,14.6 -9.05,0 0,-11.5 9.05,0 0,11.5 z m -24,-11.5 6,0 0,-3.35 -6,0 0,-5.6 -3.35,0 0,5.6 -4.45,0 0,3.35 4.45,0 0,11.5 c 0,0.45 0.1,0.9 0.25,1.3 0.15,0.4 0.4,0.75 0.75,1.1 0.3,0.25 0.65,0.5 1.05,0.7 0.4,0.15 0.85,0.25 1.3,0.25 l 6,0 0,-3.35 -6,0 0,-11.5 z M 208.9,25.25 C 208.5,25.1 208.05,25 207.6,25 l -8,0 0,-3.9 10.65,0 0,-3.35 -10.65,0 c -0.45,0 -0.9,0.1 -1.3,0.25 -0.4,0.2 -0.75,0.45 -1.05,0.75 -0.35,0.3 -0.6,0.65 -0.75,1.05 -0.15,0.4 -0.25,0.85 -0.25,1.3 l 0,3.9 c 0,0.45 0.1,0.9 0.25,1.3 0.15,0.45 0.4,0.8 0.75,1.1 0.3,0.3 0.65,0.55 1.05,0.7 0.4,0.15 0.85,0.25 1.3,0.25 l 8,0 0,4.25 -11.35,0 0,3.35 11.35,0 c 0.45,0 0.9,-0.1 1.3,-0.25 0.4,-0.2 0.75,-0.45 1.05,-0.7 0.35,-0.35 0.6,-0.7 0.75,-1.1 0.15,-0.4 0.25,-0.85 0.25,-1.3 l 0,-4.25 c 0,-0.45 -0.1,-0.9 -0.25,-1.3 -0.15,-0.4 -0.4,-0.75 -0.75,-1.05 -0.3,-0.3 -0.65,-0.55 -1.05,-0.75 z m -17.9,-7.5 -3.35,0 0,14.85 -9.4,0 0,-14.85 -3.35,0 0,14.85 c 0,0.45 0.1,0.9 0.3,1.3 0.15,0.4 0.4,0.75 0.7,1.1 0.3,0.25 0.65,0.5 1.05,0.7 0.4,0.15 0.85,0.25 1.3,0.25 l 6.05,0 c 0.45,0 0.85,-0.1 1.2,-0.25 0.4,-0.15 0.75,-0.4 1.05,-0.65 0.3,-0.25 0.55,-0.6 0.75,-1 0.2,-0.35 0.3,-0.75 0.35,-1.2 l 0,3.1 3.35,0 0,-18.2 z m -23.5,-6 c -0.45,-0.2 -0.9,-0.3 -1.35,-0.3 l -13.3,0 c -0.45,0 -0.9,0.1 -1.35,0.3 -0.45,0.15 -0.8,0.4 -1.15,0.75 -0.3,0.3 -0.55,0.65 -0.75,1.1 -0.15,0.45 -0.25,0.9 -0.25,1.35 l 0,17.5 c 0,0.45 0.1,0.9 0.25,1.35 0.2,0.45 0.45,0.8 0.75,1.1 0.35,0.35 0.7,0.6 1.15,0.8 0.45,0.15 0.9,0.25 1.35,0.25 l 13.3,0 c 0.45,0 0.9,-0.1 1.35,-0.25 0.45,-0.2 0.8,-0.45 1.1,-0.8 0.35,-0.3 0.6,-0.65 0.75,-1.1 0.2,-0.45 0.3,-0.9 0.3,-1.35 l 0,-3.15 -3.5,0 0,3.15 -13.3,0 0,-17.5 13.3,0 0,3.15 3.5,0 0,-3.15 c 0,-0.45 -0.1,-0.9 -0.3,-1.35 -0.15,-0.45 -0.4,-0.8 -0.75,-1.1 -0.3,-0.35 -0.65,-0.6 -1.1,-0.75 z"
         inkscape:connector-curvature="0"
         style="fill:#1e3b43;fill-opacity:1" />
    </g>
  </g>
  <rect
     style="fill:#2f3239;fill-opacity:1;fill-rule:evenodd;stroke:none"
     id="rect3129"
     width="165.78079"
     height="4.3093233"
     x="304.89197"
     y="313.51459" />
</svg>
