<?xml version="1.0" encoding="utf-8"?>
<!-- Generator: Adobe Illustrator 16.0.0, SVG Export Plug-In . SVG Version: 6.00 Build 0)  -->
<!DOCTYPE svg PUBLIC "-//W3C//DTD SVG 1.1//EN" "http://www.w3.org/Graphics/SVG/1.1/DTD/svg11.dtd">
<svg version="1.1" xmlns="http://www.w3.org/2000/svg" xmlns:xlink="http://www.w3.org/1999/xlink" x="0px" y="0px" width="600px"
	 height="600px" viewBox="0 0 600 600" enable-background="new 0 0 600 600" xml:space="preserve">
<symbol  id="Sgymbol_8" viewBox="-6.194 -102.575 105.611 102.825">
	<g id="Layer_3_1_">
		<path fill-rule="evenodd" clip-rule="evenodd" fill="#579A43" d="M61.925-100.925l-39.2,1.9c-0.421,0.754-0.813,1.529-1.175,2.325
			c-0.733,1.867-1.1,2.817-1.1,2.85c0.966,4.867,1.45,7.533,1.45,8c0,0.233-0.1,0.75-0.3,1.55c-0.2,0.767-0.3,1.283-0.3,1.55
			c0,0.5,0.45,1.033,1.35,1.6c1.2,0.667,2.1,1.217,2.7,1.65C17.45-72.4,11.933-66,8.8-60.3c-3.433,6.333-5.15,13.85-5.15,22.55
			c0,4.533,0.35,8.667,1.05,12.4c0.5,2.8,1,4.6,1.5,5.4c1.533,2.434,2.7,4.184,3.5,5.25c1.633,2.2,2.883,3.3,3.75,3.3
			c0.297,0,1.131-2.317,2.5-6.95c0.058-3.177,0.608-6.094,1.65-8.75l2-2.6c1.9-1.833,4.233-2.95,7-3.35
			c2.467-0.367,3.917,0.733,4.35,3.3c0.496,2.819,1.254,4.502,2.275,5.05c0.979-0.332,1.787-0.982,2.425-1.95
			c0.6-0.867,1.233-2.467,1.9-4.8c0.7-2.333,1.333-3.917,1.9-4.75c0.933-1.466,2.25-2.2,3.95-2.2c7.067,0,12.3,3.233,15.7,9.7
			c1.133,2.133,2.566,5.633,4.3,10.5c1.365,3.854,2.541,7.021,3.525,9.5c4.044-1.432,7.353-4.016,9.925-7.75
			C80.817-22.183,82.8-30.367,82.8-41c0-0.1,0.067-1.583,0.2-4.45c0.1-1.7,0.033-3.183-0.2-4.45c-0.6-3.567-2.783-7.733-6.55-12.5
			c-1.833-2.333-4.583-4.917-8.25-7.75c-3.033-2.4-4.55-3.717-4.55-3.95c1.1,0.434,3,0.1,5.7-1c2.7-1.1,4.05-2.066,4.05-2.9
			c0-0.067-1.284-0.983-3.85-2.75c-2.6-1.733-3.9-2.717-3.9-2.95c0-0.867,1.133-1.633,3.4-2.3c-0.167-0.667-0.65-1.483-1.45-2.45
			c-0.733-0.9-1.1-1.566-1.1-2c0-0.233,0.284-0.55,0.85-0.95c0.567-0.367,0.85-0.8,0.85-1.3c-1.1-2.466-2.8-4.883-5.1-7.25
			C62.58-100.286,62.255-100.611,61.925-100.925z"/>
		<path fill-rule="evenodd" clip-rule="evenodd" fill="#468533" d="M33.225-24.7c0.07,0.039,0.145,0.072,0.225,0.1
			c4.066,1.533,6.6-0.65,7.6-6.55c0.434-2.667,2.15-3.467,5.15-2.4c2.7,0.933,5.3,2.816,7.8,5.65c2.667,2.933,4.733,6.283,6.2,10.05
			C62.1-13.017,63.25-7.067,63.65,0C64.683-0.7,65.8-1.417,67-2.15c5.6-3.333,12.983-6.667,22.15-10
			c5.923-2.37,8.981-6.878,9.175-13.525c0.193-6.636,0.501-14.677,0.925-24.125c0.424-9.458,0.041-20.142-1.15-32.05
			c0.032-9.657-0.626-16.565-1.975-20.725l-34.2,1.65c0.33,0.313,0.655,0.639,0.975,0.975c2.3,2.367,4,4.784,5.1,7.25
			c0,0.5-0.283,0.934-0.85,1.3c-0.566,0.4-0.85,0.717-0.85,0.95c0,0.434,0.367,1.1,1.1,2c0.8,0.967,1.283,1.784,1.45,2.45
			c-2.267,0.667-3.4,1.433-3.4,2.3c0,0.233,1.3,1.217,3.9,2.95c2.566,1.767,3.85,2.683,3.85,2.75c0,0.833-1.35,1.8-4.05,2.9
			c-2.7,1.1-4.6,1.434-5.7,1c0,0.233,1.517,1.55,4.55,3.95c3.667,2.833,6.417,5.417,8.25,7.75c3.767,4.767,5.95,8.933,6.55,12.5
			c0.233,1.267,0.3,2.75,0.2,4.45c-0.133,2.867-0.2,4.35-0.2,4.45c0,10.633-1.983,18.817-5.95,24.55
			c-2.573,3.734-5.881,6.318-9.925,7.75c-0.984-2.479-2.16-5.646-3.525-9.5c-1.733-4.867-3.167-8.367-4.3-10.5
			c-3.4-6.466-8.633-9.7-15.7-9.7c-1.7,0-3.017,0.733-3.95,2.2c-0.567,0.833-1.2,2.417-1.9,4.75c-0.667,2.333-1.3,3.934-1.9,4.8
			C35.012-25.682,34.204-25.032,33.225-24.7z"/>
		<path fill-rule="evenodd" clip-rule="evenodd" fill="#66AF50" d="M15.95-18.35c-1.369,4.633-2.203,6.95-2.5,6.95
			c-0.867,0-2.117-1.1-3.75-3.3c-0.8-1.066-1.967-2.816-3.5-5.25c-0.5-0.8-1-2.6-1.5-5.4c-0.7-3.733-1.05-7.867-1.05-12.4
			c0-8.7,1.717-16.217,5.15-22.55c3.133-5.7,8.65-12.1,16.55-19.2c-0.6-0.433-1.5-0.983-2.7-1.65c-0.9-0.567-1.35-1.1-1.35-1.6
			c0-0.267,0.1-0.783,0.3-1.55c0.2-0.8,0.3-1.317,0.3-1.55c0-0.467-0.483-3.133-1.45-8c0-0.033,0.367-0.983,1.1-2.85
			c0.363-0.795,0.754-1.57,1.175-2.325L7.6-98.3c0.058,0.77,0.108,1.536,0.15,2.3v0.05c0,0.2,0,0.383,0,0.55
			c0.233,4.933-0.167,10-1.2,15.2L-2.2-55c-3.286,9.539-4.544,17.797-3.775,24.775S-3.214-17.289,0-12.35
			c0.133,0.033,0.267,0.067,0.4,0.1c4.934,1.8,9.367,3.583,13.3,5.35c1.466,0.933,2.816,1.6,4.05,2L16.4-12
			C16.052-14.219,15.902-16.335,15.95-18.35z"/>
		
			<path fill-rule="evenodd" clip-rule="evenodd" fill="none" stroke="#3A7B27" stroke-width="0.5" stroke-linecap="round" stroke-linejoin="round" stroke-miterlimit="3" d="
			M89.15-12.15C79.983-8.817,72.6-5.483,67-2.15C65.8-1.417,64.683-0.7,63.65,0c-0.4-7.067-1.55-13.017-3.45-17.85
			c-1.467-3.767-3.534-7.117-6.2-10.05c-2.5-2.833-5.1-4.717-7.8-5.65c-3-1.067-4.717-0.267-5.15,2.4c-1,5.9-3.533,8.083-7.6,6.55
			c-0.08-0.028-0.155-0.062-0.225-0.1c-1.021-0.547-1.779-2.231-2.275-5.05c-0.434-2.567-1.883-3.667-4.35-3.3
			c-2.767,0.4-5.1,1.517-7,3.35l-2,2.6c-1.042,2.656-1.592,5.573-1.65,8.75c-0.048,2.015,0.102,4.131,0.45,6.35l1.35,7.1
			c-1.233-0.4-2.583-1.067-4.05-2c-3.934-1.767-8.367-3.55-13.3-5.35c-0.133-0.033-0.267-0.067-0.4-0.1"/>
	</g>
</symbol>
<symbol  id="Sygmbol_11_FLM_x5F_FRAME_x5F_0" viewBox="-0.5 -84.8 201.55 85.3">
	<g id="Layer_1_2_">
		<g>
			<path fill-rule="evenodd" clip-rule="evenodd" fill="#8D95A3" d="M170.95-15.45l1.1,0.05L168.1-2.6l-15.25-0.1l0.35-1.2h-1.1
				l4-13.1l15.2,0.4L170.95-15.45z M200.3-74.05H5v0.4V-0.8L5.25,0h113.1h12h3h12.9h4.7h15.25h14.35l19.85-73.4l0.05-0.3
				L200.3-74.05z M158.3-20.7h-1.1l5.4-17.95l15.35,0.6l-0.35,1.15l1.1,0.05l-5.4,17.5l-15.35-0.15L158.3-20.7z M165.15-43.25
				l-1.1-0.05L170.9-66l15.55,0.35l-0.35,1.15l1.1,0.05l-7.1,22.95l-15.3-0.6L165.15-43.25z M146.3-44l-1.1-0.05l6.05-22.4L166-66.1
				l-0.35,1.15l1.1,0.05L160-42.3l-14.05-0.55L146.3-44z M151-16l1.1,0.05L148.15-2.7l-13-0.1L135.5-4h-1.1l3.65-13.5l13.3,0.35
				L151-16z M140.05-20.85h-1.1l5-18.5l13.9,0.55l-0.35,1.15l1.1,0.05l-5.4,18.05l-13.5-0.1L140.05-20.85z M140.4-38.3l1.05,0.05
				l-4.9,18.6L124.1-19.8l0.3-1.2h-1.05l4.55-18.95l12.8,0.5L140.4-38.3z M120.35-4.1h-1.05l3.3-13.8l12.35,0.3l-0.3,1.15l1.05,0.05
				l-3.55,13.55l-12.1-0.05L120.35-4.1z M147.5-65.35l1.05,0.05L142.7-43l-12.9-0.5l0.3-1.15l-1.05-0.05l5.3-22.1l13.45,0.3
				L147.5-65.35z M103.5-23.8c-2.633,0.066-3.75-1.184-3.35-3.75l1.95-12.1c0.4-2.567,1.917-3.883,4.55-3.95l10.8-0.4
				c2.633-0.1,3.75,1.133,3.35,3.7l-1.95,12.1c-0.4,2.567-1.917,3.9-4.55,4L103.5-23.8z M101.45-63.2l-9,54.4H14.1v-54.4H101.45z"/>
			<path fill-rule="evenodd" clip-rule="evenodd" fill="#6B7485" d="M153.2-3.9l3.65-11.9l14.1,0.35l0.35-1.15L156.1-17l-4,13.1
				H153.2z M158.3-20.7l5.05-16.75l14.25,0.55l0.35-1.15l-15.35-0.6l-5.4,17.95H158.3z M165.15-43.25l6.5-21.55l14.45,0.3l0.35-1.15
				L170.9-66l-6.85,22.7L165.15-43.25z M146.3-44l5.7-21.25l13.65,0.3L166-66.1l-14.75-0.35l-6.05,22.4L146.3-44z M140.4-38.3
				l0.3-1.15l-12.8-0.5L123.35-21h1.05l4.25-17.75L140.4-38.3z M135.5-4l3.3-12.3L151-16l0.35-1.15l-13.3-0.35L134.4-4H135.5z
				 M140.05-20.85l4.65-17.3l12.8,0.5l0.35-1.15l-13.9-0.55l-5,18.5H140.05z M120.35-4.1l3-12.6l11.3,0.25l0.3-1.15l-12.35-0.3
				l-3.3,13.8H120.35z M130.1-44.65l5-20.95l12.4,0.25l0.3-1.15l-13.45-0.3l-5.3,22.1L130.1-44.65z"/>
			<path fill-rule="evenodd" clip-rule="evenodd" fill="#475162" d="M170.95-15.45l-14.1-0.35L153.2-3.9l-0.35,1.2l15.25,0.1
				l3.95-12.8L170.95-15.45z M177.6-36.9l-14.25-0.55L158.3-20.7l-0.35,1.2l15.35,0.15l5.4-17.5L177.6-36.9z M186.1-64.5l-14.45-0.3
				l-6.5,21.55l-0.35,1.15l15.3,0.6l7.1-22.95L186.1-64.5z M165.65-64.95L152-65.25L146.3-44l-0.35,1.15L160-42.3l6.75-22.6
				L165.65-64.95z M135.5-4l-0.35,1.2l13,0.1l3.95-13.25L151-16l-12.2-0.3L135.5-4z M140.4-38.3l-11.75-0.45L124.4-21l-0.3,1.2
				l12.45,0.15l4.9-18.6L140.4-38.3z M140.05-20.85l-0.35,1.2l13.5,0.1l5.4-18.05l-1.1-0.05l-12.8-0.5L140.05-20.85z M134.65-16.45
				l-11.3-0.25l-3,12.6l-0.3,1.2l12.1,0.05l3.55-13.55L134.65-16.45z M147.5-65.35l-12.4-0.25l-5,20.95l-0.3,1.15l12.9,0.5
				l5.85-22.3L147.5-65.35z M103.5-23.8l10.8-0.4c2.633-0.1,4.15-1.433,4.55-4l1.95-12.1c0.4-2.567-0.716-3.8-3.35-3.7l-10.8,0.4
				c-2.633,0.067-4.15,1.383-4.55,3.95l-1.95,12.1C99.75-24.983,100.867-23.733,103.5-23.8z"/>
			<path fill-rule="evenodd" clip-rule="evenodd" fill="#B3BBC9" d="M200.3-74.05l0.15,0.35l0.1-0.35H200.3z M5.25,0L5-0.8V0H5.25z"
				/>
			<polygon fill-rule="evenodd" clip-rule="evenodd" fill="#525962" points="0.1,-84.05 5,-73.65 5,-74.05 200.3,-74.05 
				196.05,-84.3 			"/>
			<polygon fill-rule="evenodd" clip-rule="evenodd" fill="#6A717B" points="5,-73.65 0.1,-84.05 0,-84.05 0,-16.3 5,-0.8 			"/>
			
				<path fill-rule="evenodd" clip-rule="evenodd" fill="none" stroke="#151414" stroke-linecap="round" stroke-linejoin="round" stroke-miterlimit="3" stroke-opacity="0.4" d="
				M5.25,0h113.1h12h3h12.9h4.7h15.25h14.35l19.85-73.4l0.05-0.3l0.1-0.35h-0.25l-4.25-10.25L0.1-84.05H0v67.75L5-0.8V0H5.25L5-0.8
				v-72.85v-0.4h195.3l0.15,0.35 M5-73.65l-4.9-10.4"/>
		</g>
		
			<use xlink:href="#Symbgol_10"  width="87.35" height="54.4" y="-54.4" transform="matrix(1 0 0 1 14.1001 -8.7998)" overflow="visible"/>
	</g>
	<g id="Layer_2_2_">
	</g>
	<g id="Layer_3_8_">
	</g>
	<g id="Layer_4_1_">
	</g>
</symbol>
<symbol  id="Sygmbol_12" viewBox="-0.02 -23.95 8.97 23.96">
	<path fill-rule="evenodd" clip-rule="evenodd" fill="#2E4F74" d="M7.7-7.8C7.333-7.933,6.833-8.017,6.2-8.05
		C5.4-8.083,4.933-8.167,4.8-8.3v-1.8c0-0.7,0.534-2.783,1.6-6.25c0.167,0.033,0.35,0.067,0.55,0.1c0.767,0.1,1.35-0.067,1.75-0.5
		v0.05c0.1-0.1,0.183-0.183,0.25-0.25v-6.15c-0.233-0.233-0.517-0.4-0.85-0.5c-0.133-0.066-0.35-0.183-0.65-0.35H4.7
		c-2.2,0.1-3.617,2.3-4.25,6.6c-0.267,1.767-0.4,4.8-0.4,9.1c-0.167,1.9-0.033,3.6,0.4,5.1C1.317-0.383,3.733,0.567,7.7-0.3V-7.8z"
		/>
</symbol>
<symbol  id="Sygmbol_14" viewBox="0 -12.225 20.475 12.225">
	<path fill-rule="evenodd" clip-rule="evenodd" fill="#2E4F74" d="M20.475-3.525l-1.3-1.8C19.081-5.235,18.99-5.144,18.9-5.05
		C17-3.15,14.717-2.2,12.05-2.2c-2.667,0-4.966-0.95-6.9-2.85c-1.9-1.934-2.85-4.233-2.85-6.9c0-0.09,0-0.182,0-0.275L0-11.9
		c0.022,3.256,1.189,6.056,3.5,8.4C5.867-1.167,8.7,0,12,0s6.117-1.167,8.45-3.5L20.475-3.525z"/>
</symbol>
<symbol  id="Sygmbol_17" viewBox="0 -18.95 126.75 18.95">
	<g id="Layer_3_2_">
		<polygon fill-rule="evenodd" clip-rule="evenodd" fill="#9C9C9C" points="84.6,-13.9 125,-2.55 126.75,-2.05 126.75,-7.05 
			84.35,-18.95 83.8,-18.95 82.55,-14.5 		"/>
		<polygon fill-rule="evenodd" clip-rule="evenodd" fill="#484848" points="82.55,-14.5 83.8,-18.95 0,-13.3 0,-9.7 		"/>
		<polygon fill-rule="evenodd" clip-rule="evenodd" fill="#838383" points="125,-2.55 84.6,-13.9 78.15,0 		"/>
	</g>
</symbol>
<symbol  id="Sygmbol_4" viewBox="-0.268 -23.43 58.568 23.704">
	<g id="Layer_3_3_">
		<g>
			<path fill-rule="evenodd" clip-rule="evenodd" fill="#ECA865" d="M51.5-2.75c4.967-3.2,7.15-7.133,6.55-11.8
				c-2.9-1.7-6.566-3.034-11-4c-3.1-0.667-7.933,0.383-14.5,3.15L20.8-22.3c-2.6-1.467-3.517-1.1-2.75,1.1l6.05,6.1
				c0.066,2.333-0.617,3.05-2.05,2.15l-8.7-8.6c-3.267-0.967-4.4-0.25-3.4,2.15l7,6.25c2.2,2.133,2.667,3.2,1.4,3.2
				c-0.867-0.433-1.7-0.9-2.5-1.4c-3.2-1.867-6.1-4.217-8.7-7.05c-3.3-1.3-4.316-0.583-3.05,2.15c1.633,1.633,3.25,3.067,4.85,4.3
				c1.6,1.3,3.167,2.4,4.7,3.3c1.533,0.933,2.133,1.517,1.8,1.75c-0.333,0.267-1.583,0.217-3.75-0.15L2.6-14.9
				c-2.833-0.8-3.367,0.183-1.6,2.95c1.6,1.8,3.1,3.25,4.5,4.35c2.9,2.3,5.017,3.767,6.35,4.4c0.867,0.434,2.267,0.9,4.2,1.4
				c0.967,0.267,2.067,0.533,3.3,0.8c3.7,0.867,7.066,1.183,10.1,0.95c3-0.233,5.95-0.8,8.85-1.7c2.867-0.9,5.917-1.35,9.15-1.35
				C47.883-3.1,49.233-2.983,51.5-2.75z"/>
			
				<path fill-rule="evenodd" clip-rule="evenodd" fill="none" stroke="#C98949" stroke-width="0.5" stroke-linecap="round" stroke-linejoin="round" stroke-miterlimit="3" d="
				M51.5-2.75c-2.267-0.233-3.617-0.35-4.05-0.35c-3.233,0-6.284,0.45-9.15,1.35c-2.9,0.9-5.85,1.467-8.85,1.7
				c-3.034,0.233-6.4-0.083-10.1-0.95c-1.233-0.267-2.333-0.533-3.3-0.8c-1.933-0.5-3.333-0.967-4.2-1.4
				C10.517-3.833,8.4-5.3,5.5-7.6C4.1-8.7,2.6-10.15,1-11.95c-1.767-2.767-1.233-3.75,1.6-2.95l9.1,7.85
				c2.167,0.367,3.417,0.417,3.75,0.15c0.333-0.233-0.267-0.817-1.8-1.75c-1.533-0.9-3.1-2-4.7-3.3c-1.6-1.233-3.217-2.667-4.85-4.3
				c-1.267-2.733-0.25-3.45,3.05-2.15c2.6,2.833,5.5,5.183,8.7,7.05c0.8,0.5,1.633,0.967,2.5,1.4c1.267,0,0.8-1.066-1.4-3.2l-7-6.25
				c-1-2.4,0.133-3.117,3.4-2.15l8.7,8.6c1.434,0.9,2.117,0.184,2.05-2.15l-6.05-6.1c-0.767-2.2,0.15-2.566,2.75-1.1l11.75,6.9
				c6.567-2.767,11.4-3.817,14.5-3.15c4.434,0.966,8.1,2.3,11,4"/>
		</g>
	</g>
</symbol>
<symbol  id="Sygmbol_5" viewBox="-0.268 -30.38 121.968 30.63">
	<g id="Layer_3_4_">
		<path fill-rule="evenodd" clip-rule="evenodd" fill="#579A43" d="M57.1-25.75c1.267,0.533,1.566,2.983,0.9,7.35
			c-0.352,2.304-1.31,4.362-2.875,6.175c1.382,0.639,3.491,1.614,6.325,2.925c5.5,2.133,10.566,3.333,15.2,3.6
			c3.8,0.2,9.967,0.5,18.5,0.9c3.864,0.32,7.147,0.795,9.85,1.425c4.72-2.422,10.203-7.397,16.45-14.925
			c-2.2-3.534-6.983-5.4-14.35-5.6L57.1-25.75z"/>
		<path fill-rule="evenodd" clip-rule="evenodd" fill="#3E772D" d="M55.125-12.225C56.69-14.038,57.648-16.096,58-18.4
			c0.667-4.367,0.367-6.817-0.9-7.35c-7.167,4.033-10.783,8.117-10.85,12.25c-0.033,2.433,1.033,4.3,3.2,5.6
			C51.828-9.144,53.72-10.586,55.125-12.225z"/>
		<path fill-rule="evenodd" clip-rule="evenodd" fill="#66AF50" d="M55.125-12.225C53.72-10.586,51.828-9.144,49.45-7.9
			c1.333,0.8,3.1,1.383,5.3,1.75c7.2,1.267,19.183,2.8,35.95,4.6L96.6,0v-1.95c2.462,0.652,5.263,0.177,8.4-1.425
			c-2.703-0.629-5.986-1.104-9.85-1.425c-8.533-0.4-14.7-0.7-18.5-0.9c-4.633-0.267-9.7-1.466-15.2-3.6
			C58.616-10.611,56.507-11.586,55.125-12.225z"/>
		
			<path fill-rule="evenodd" clip-rule="evenodd" fill="none" stroke="#3A7B27" stroke-width="0.5" stroke-linecap="round" stroke-linejoin="round" stroke-miterlimit="3" d="
			M96.6,0l-5.9-1.55c-16.767-1.8-28.75-3.333-35.95-4.6c-2.2-0.367-3.967-0.95-5.3-1.75c2.378-1.244,4.27-2.686,5.675-4.325
			 M121.45-18.3c-2.2-3.534-6.983-5.4-14.35-5.6l-50-1.85c-7.167,4.033-10.783,8.117-10.85,12.25c-0.033,2.433,1.033,4.3,3.2,5.6
			 M57.1-25.75c1.267,0.533,1.566,2.983,0.9,7.35c-0.352,2.304-1.31,4.362-2.875,6.175"/>
	</g>
	
		<use xlink:href="#Sygmbol_4"  width="58.568" height="23.704" x="-0.268" y="-23.43" transform="matrix(1 0 0 1 0 -6.9502)" overflow="visible"/>
</symbol>
<symbol  id="Sygmbol_7" viewBox="-0.234 -98.701 31.084 98.901">
	<g id="Layer_3_5_">
		<path fill-rule="evenodd" clip-rule="evenodd" fill="#579A43" d="M0.35-33.1c0.744,5.518,1.994,11.151,3.75,16.9h0.1
			c0.8,0.4,1.517,0.6,2.15,0.6c4.867,0,8.517-3.05,10.95-9.15c1.9-4.667,2.85-10.167,2.85-16.5c0-4.033-0.233-8.8-0.7-14.3
			c-0.467-5.5-0.7-8.934-0.7-10.3c0-2.2,1.183-7.483,3.55-15.85c1.779-6.29,2.888-11.848,3.325-16.675
			c-7.603,0.416-13.169,2.316-16.7,5.7C8.494-90.897,8.119-89.022,7.8-87.05C6.933-81.783,6.5-74.167,6.5-64.2
			c0,5.4,0.15,11.034,0.45,16.9c0.267,5.867,0.4,9.3,0.4,10.3L7.1-32.15c-1.067-0.667-1.9-1.517-2.5-2.55
			c-0.367-0.566-1.15-0.85-2.35-0.85c-0.712,0-1.362,0.525-1.95,1.575C0.313-33.683,0.33-33.392,0.35-33.1z"/>
		<path fill-rule="evenodd" clip-rule="evenodd" fill="#468533" d="M25.625-98.375C25.188-93.548,24.079-87.99,22.3-81.7
			c-2.367,8.367-3.55,13.65-3.55,15.85c0,1.367,0.233,4.8,0.7,10.3c0.466,5.5,0.7,10.267,0.7,14.3c0,6.333-0.95,11.833-2.85,16.5
			c-2.433,6.1-6.083,9.15-10.95,9.15c-0.633,0-1.35-0.2-2.15-0.6H4.1c0.129,0.433,0.262,0.866,0.4,1.3
			C6.533-8.5,8.733-3.55,11.1-0.05c0.267,0,0.433-0.017,0.5-0.05C23.067-2.367,28.9-10.333,29.1-24c0-0.367,0-0.733,0-1.1l1.5-67.95
			c0-2.1-0.467-3.9-1.4-5.4C27.964-98.455,26.773-98.43,25.625-98.375z"/>
		<path fill-rule="evenodd" clip-rule="evenodd" fill="#66AF50" d="M8.925-92.675C6.17-90.045,4.646-86.52,4.35-82.1v22.5
			C0.722-56.985-0.628-48.443,0.3-33.975c0.588-1.05,1.238-1.575,1.95-1.575c1.2,0,1.983,0.283,2.35,0.85
			c0.6,1.034,1.433,1.883,2.5,2.55L7.35-37c0-1-0.133-4.433-0.4-10.3C6.65-53.167,6.5-58.8,6.5-64.2c0-9.966,0.433-17.583,1.3-22.85
			C8.119-89.022,8.494-90.897,8.925-92.675z M4.35-59.6v16.5V-59.6z"/>
		
			<path fill-rule="evenodd" clip-rule="evenodd" fill="none" stroke="#3A7B27" stroke-width="0.5" stroke-linecap="round" stroke-linejoin="round" stroke-miterlimit="3" d="
			M25.625-98.375c1.148-0.055,2.339-0.08,3.575-0.075c0.933,1.5,1.4,3.3,1.4,5.4L29.1-25.1c0,0.367,0,0.733,0,1.1
			C28.9-10.333,23.067-2.367,11.6-0.1c-0.067,0.033-0.233,0.05-0.5,0.05 M8.925-92.675c3.531-3.384,9.098-5.284,16.7-5.7
			 M0.3-33.975c0.014,0.292,0.03,0.583,0.05,0.875 M8.925-92.675C6.17-90.045,4.646-86.52,4.35-82.1v22.5
			C0.722-56.985-0.628-48.443,0.3-33.975 M4.35-59.6v16.5"/>
	</g>
</symbol>
<symbol  id="Symbgol_1" viewBox="-0.947 -83.15 75.491 84.949">
	<g id="Layer_3_6_">
		<path fill-rule="evenodd" clip-rule="evenodd" fill="#1C1B1B" d="M3.5-18.25c0.036,0.079,0.07,0.154,0.1,0.225
			c0.125,0.256,0.25,0.506,0.375,0.75C8.884-7.712,14.342-2.013,20.35-0.175c0.519,0.158,1.019,0.308,1.5,0.45
			c-0.067-0.042-0.133-0.084-0.2-0.125c-0.167-0.133-0.316-0.283-0.45-0.45c-2.2-0.8-4.233-1.917-6.1-3.35
			c-3.167-2.533-5.817-5.567-7.95-9.1c-1.1-1.806-2.258-3.564-3.475-5.275C4.133-17.492,4.658-16.95,5.25-16.4
			c0.5,0.5,0.867,1.066,1.1,1.7c1.867,2.133,3.95,4.05,6.25,5.75c1.7,1.267,3.533,2.284,5.5,3.05c-1.8-0.967-3.367-2.167-4.7-3.6
			c-0.167-0.167-0.4-0.3-0.7-0.4l0.75,0.15c-0.467-0.7-1.233-1.533-2.3-2.5c-0.267-0.233-0.533-0.433-0.8-0.6l-0.75-1.4
			c2.167,2.567,4.767,4.8,7.8,6.7c2.333,1.466,4.533,3,6.6,4.6C22.924-3.091,21.799-3.441,20.625-4
			c0.136,0.162,0.228,0.361,0.275,0.6c0.033,0.2,0.083,0.35,0.15,0.45c-0.767,0-1.466-0.117-2.1-0.35
			c-0.133-0.067-0.15-0.184-0.05-0.35l0.025-0.025C18.68-3.695,18.138-3.887,17.3-4.25c-0.433-0.233-0.933-0.517-1.5-0.85
			c-0.04-0.013-0.081-0.03-0.125-0.05C19.051-3.201,22.592-1.018,26.3,1.4c2.397,0.497,3.864,0.53,4.4,0.1
			c0.139-0.11,0.48-0.202,1.025-0.275C29.366-1.063,28.724-3.822,29.8-7.05c0.6-1.733,1.684-3.15,3.25-4.25
			c0.115-0.074,0.223-0.149,0.325-0.225c0.615-1.655,1.423-3.297,2.425-4.925l-4.2,3.75c-0.133-0.4-0.05-0.833,0.25-1.3
			c0.033-0.067,0.05-0.15,0.05-0.25c-0.033-0.333-0.233-0.433-0.6-0.3c-0.233-0.034-0.433-0.034-0.6,0
			c1.8-4.9,4.95-9.217,9.45-12.95c0.8-0.667,1.667-1.167,2.6-1.5c0.167,0.067,0.333,0.067,0.5,0c0.2,0.1,0.3,0.05,0.3-0.15
			c-2.433,0.333-4.917,1.316-7.45,2.95c-1.333,1.967-2.85,3.65-4.55,5.05c-0.033,0.033-0.066,0.05-0.1,0.05
			c-2.034,1.434-3.367,3.45-4,6.05l0.3,1.25c-0.734-1.916-1.109-3.875-1.125-5.875c-2.24,0.117-4.298-0.858-6.175-2.925
			c0.4,0.5,0.85,1.083,1.35,1.75c0.034,0.067,0.05,0.15,0.05,0.25c-2.867-2.133-5.533-4.433-8-6.9c-1.7-1.7-2.967-3.533-3.8-5.5
			c0.716,3.476,2.042,6.476,3.975,9c4.386,2.112,8.061,4.995,11.025,8.65c0.534,0.667,1.167,1.333,1.9,2l0.45,0.8
			c-1.533-0.434-3.083-1.15-4.65-2.15c1.067,1.034,1.967,2.1,2.7,3.2l-0.05,0.05l-1.25-0.5c0.833,0.467,1.867,1.2,3.1,2.2
			c0.1,0.1,0.2,0.2,0.3,0.3v0.6c0.434,0.7,0.767,1.45,1,2.25c0.133,0.4,0.267,0.783,0.4,1.15L28-5.75c-1.5-0.733-3.1-1.967-4.8-3.7
			c-1.1-1.1-2.184-2.083-3.25-2.95c0.533,0.1,0.983,0.233,1.35,0.4c0.2,0.1,0.434,0.117,0.7,0.05L21.65-13l0.65-0.95
			c-0.4-0.5-0.7-0.983-0.9-1.45c-0.1-0.2-0.117-0.333-0.05-0.4c0.2-0.2,0.316-0.467,0.35-0.8c0-0.066-0.017-0.267-0.05-0.6
			c-0.333-0.667-0.783-1.233-1.35-1.7c-1.617-1.917-3.675-3.575-6.175-4.975c0.473,0.6,0.981,1.175,1.525,1.725
			c-0.9-0.697-1.717-1.439-2.45-2.225c-0.383-0.158-0.817-0.349-1.3-0.575c0.431,0.175,0.855,0.358,1.275,0.55
			c-2.239-2.418-3.647-5.235-4.225-8.45l0.5,3.7C7.417-32.417,6.567-36.067,6.9-40.1c0.333-3.867,1.133-7.533,2.4-11
			c0.136-0.805,0.286-1.588,0.45-2.35c-0.591,0.329-1.166,0.704-1.725,1.125c-0.339,0.87-0.747,1.728-1.225,2.575v0.5
			c-1.181,2.17-1.873,4.52-2.075,7.05c0.038-0.787,0.063-1.587,0.075-2.4c0-0.566-0.1-0.983-0.3-1.25c-0.3-0.1-0.467-0.1-0.5,0
			c0,0.067,0,0.117,0,0.15c-0.167,2.633-0.383,5.267-0.65,7.9c-0.02,0.1-0.037,0.191-0.05,0.275c0.085,1.134,0.319,2.226,0.7,3.275
			c0.167,0.533,0.317,1,0.45,1.4c0.058,0.232,0.149,0.466,0.275,0.7c-1.062-1.736-1.887-3.52-2.475-5.35
			C2.183-37.733,2.1-37.883,2-37.95l0.8,8.05l-0.3-0.725l0.075,1c1.109,1.471,2.209,2.946,3.3,4.425L5.85-25.25
			c0-0.033,0-0.083,0-0.15c0.031,0.1,0.064,0.2,0.1,0.3c0.248,0.353,0.498,0.702,0.75,1.05c0.066,0.1,0.1,0.267,0.1,0.5l-0.45-0.375
			c1.681,4.459,4.464,7.984,8.35,10.575c0.167,0.1,0.316,0.167,0.45,0.2c-0.967-0.667-1.833-1.5-2.6-2.5
			c-0.066-0.1-0.117-0.2-0.15-0.3l1.05,0.15c-0.8-0.967-1.6-2.05-2.4-3.25C11.017-19.083,11-19.133,11-19.2l0.3-0.8
			c-0.633-1.6-1.417-3.1-2.35-4.5c-0.8-2.067-2.133-3.917-4-5.55c-0.267-0.267-0.483-0.467-0.65-0.6
			c5.567,3.667,10.517,8.333,14.85,14c0.667,0.867,1.15,1.816,1.45,2.85c-2.367-1.8-4.75-3.967-7.15-6.5
			c1.1,1.533,2.233,3.283,3.4,5.25c0.066,0.133,0.133,0.25,0.2,0.35l-1.4-0.5l2.15,1.7c0.1,0.267-0.05,0.533-0.45,0.8
			c-0.067,0.067-0.117,0.117-0.15,0.15c1.267,1.133,2.583,2.466,3.95,4c1.4,1.566,3.067,2.867,5,3.9
			c0.633,0.367,1.15,0.833,1.55,1.4l2.35,4.8c-2.066-3.667-4.9-6.383-8.5-8.15c-1.8-0.9-3.55-1.9-5.25-3
			c-1.5-0.967-3.017-2.1-4.55-3.4c-2.275-3.532-4.091-7.19-5.45-10.975l-3.5-3.05l0.075,0.75L4.65-23.1
			c-0.649-0.409-1.182-0.842-1.6-1.3v0.05C4.018-23.005,5.034-21.556,6.1-20c0.8,1.2,1.667,2.367,2.6,3.5
			c0.8,0.933,1.466,1.783,2,2.55c-1.367-1.066-2.717-2.466-4.05-4.2c-1.133-1.333-2.233-2.783-3.3-4.35
			c-0.044-0.059-0.094-0.134-0.15-0.225l0.4,4.6C3.563-18.165,3.53-18.206,3.5-18.25z M34.275,1.05
			c0.44-0.006,1.082,0.027,1.925,0.1c0.504,0.035,1.004,0.06,1.5,0.075c2.253-2.279,4.669-4.287,7.25-6.025
			c-1.666,0.074-3.266,0.549-4.8,1.425c-0.073,0.09-0.156,0.181-0.25,0.275c-0.5,0.434-0.933,0.684-1.3,0.75
			c0.509-0.39,1.025-0.731,1.55-1.025c0.056-0.077,0.106-0.152,0.15-0.225c-1.733,0.733-3.283,1.667-4.65,2.8
			C35.517-0.7,35.3-0.6,35-0.5L34.275,1.05z M65.325-45.875c0.294,0.883,0.569,1.774,0.825,2.675c-0.3-0.767-0.533-1.483-0.7-2.15
			C65.41-45.526,65.368-45.701,65.325-45.875z M43.6,0.9c3.594-0.491,7.111-1.541,10.55-3.15c2.448-0.784,4.881-1.95,7.3-3.5
			L64.2-7.6c2.167-1.733,4.033-3.883,5.6-6.45c4.967-8.267,6.034-19.217,3.2-32.85s-6.033-23.75-9.6-30.35
			c-1.8-3.3-3.433-5.267-4.9-5.9c0.186,2.405,0.286,4.497,0.3,6.275c1.49,1.817,2.773,3.843,3.85,6.075
			c1.133,2.367,2.133,4.633,3,6.8c-1.033-1.4-2.2-3.067-3.5-5c-0.167-0.2-0.333-0.283-0.5-0.25c0.3,0.867,0.717,1.8,1.25,2.8
			c0.167,0.3,0.367,0.55,0.6,0.75v0.5c0.633,0.667,1.133,1.534,1.5,2.6c0.11,0.33,0.243,0.646,0.4,0.95
			c2.881,3.611,4.031,6.094,3.45,7.45c-0.112,0.268-0.237,0.501-0.375,0.7c0.634,1.487,1.276,3.02,1.925,4.6
			c1.2,2.967,1.667,6.05,1.4,9.25c-0.066,0.833-0.2,1.65-0.4,2.45c-0.509-2.677-1.042-5.394-1.6-8.15
			c0.288,1.816,0.371,3.749,0.25,5.8c0,0.033-0.017,0.05-0.05,0.05l-0.3-0.45c0.1,0.967,0,1.883-0.3,2.75
			c-0.133-0.833-0.383-1.867-0.75-3.1c-0.031-0.031-0.048-0.082-0.05-0.15c-0.001,1.904-0.285,3.721-0.85,5.45
			c-0.033,0.133-0.05,0.233-0.05,0.3l-0.8,0.45l-0.45,0.5v0.6L66-32.35c1.1-3.867,1.183-7.733,0.25-11.6
			c-0.633-2.667-0.983-5.417-1.05-8.25c1,3.067,1.733,6.217,2.2,9.45v-4.65c0.434,0.533,0.833,1.2,1.2,2
			c-0.021-2.366-0.354-4.799-1-7.3c-0.76,0.373-1.744,0.223-2.95-0.45c-0.55-0.31-1.116-0.718-1.7-1.225
			c0.924,2.849,1.715,5.682,2.375,8.5c-0.584-1.772-1.242-3.514-1.975-5.225v-0.8l-0.55,2.725c0.15,0.533,0.284,1.058,0.4,1.575
			l-1.05-3.05c0.043,0.043,0.085,0.093,0.125,0.15L61.8-52.05c-0.333,0.8-0.517,1.633-0.55,2.5c0,0.367-0.017,0.767-0.05,1.2
			c-0.534-1.767-1.217-3.417-2.05-4.95c1.467,5.033,2,10.1,1.6,15.2c-0.133,1.967-0.6,3.817-1.4,5.55l0.15-3.4l0.45-0.75
			c0.233-2.566,0.283-5.15,0.15-7.75c-0.327,0.509-0.644,1.092-0.95,1.75c-0.036-3.914-0.352-7.814-0.95-11.7
			c-0.051-0.355-0.102-0.714-0.15-1.075c0.037,1.056,0.062,2.122,0.075,3.2c0.017,0.652,0.025,1.311,0.025,1.975
			c0.029,3.269-0.079,6.002-0.325,8.2c-0.31,2.862-0.852,4.812-1.625,5.85c-0.085,0.115-0.186,0.223-0.3,0.325
			c1.052-0.44,2.019-1.031,2.9-1.775c0.267-0.2,0.6-0.383,1-0.55c-1.566,4.533-4.716,7.367-9.45,8.5c-0.3,0.133-0.5,0.233-0.6,0.3
			h-0.5L47.85-29c-4.3,2.067-8.3,4.767-12,8.1c-0.7,0.633-1.184,1.35-1.45,2.15c3.2-3.3,7.233-5.417,12.1-6.35
			c0.333-0.333,0.733-0.6,1.2-0.8c0.167-0.033,0.333-0.083,0.5-0.15L46.65-24c0.633,0.233,1.5,0.067,2.6-0.5
			c-0.6,0.433-0.9,0.8-0.9,1.1c0,0.066,0.05,0.117,0.15,0.15l-0.15,0.95c-0.106,0.098-0.214,0.198-0.325,0.3
			c-1.74,1.619-3.432,3.269-5.075,4.95c-2.796,2.863-5.447,5.813-7.95,8.85c1.9-4.3,4.95-8.017,9.15-11.15
			c-1.7,0.8-3.4,1.567-5.1,2.3l2.45-1.85l-2.15,0.75c0.267-0.244,0.542-0.478,0.825-0.7l-0.375,0.1
			c-2.536,1.976-4.527,4.259-5.975,6.85c0.219-0.204,0.411-0.42,0.575-0.65l1.1-0.65l-0.15,0.8c-1.4,1.833-2.617,3.717-3.65,5.65
			c-0.367,0.7-0.7,1.35-1,1.95c0.6-0.7,1.45-1.45,2.55-2.25c0.233-0.133,0.467-0.217,0.7-0.25c1.2-0.233,2.566-0.967,4.1-2.2
			c0.6-0.467,1.184-0.817,1.75-1.05C38.653-8.974,37.395-7.457,36.025-6c0.152-0.14,0.311-0.273,0.475-0.4
			c0.167-0.1,0.35-0.15,0.55-0.15C36.283-5.583,35.5-4.7,34.7-3.9c-0.1,0.066-0.2,0.117-0.3,0.15l-0.6,1.4L33-1.25
			c2.3-1.767,4.783-3.317,7.45-4.65c-0.167,0.433,0.483,0.083,1.95-1.05c4.1-3.133,8.617-5.566,13.55-7.3
			c0.167-0.167,0.417-0.25,0.75-0.25v0.05c-1.967,1.2-4.034,2.55-6.2,4.05l-0.45,0.45c0.4,0.2,0.967,0.05,1.7-0.45
			c0.6-0.067,1.217-0.217,1.85-0.45c-2.033,0.967-3.934,2.05-5.7,3.25L51-7.45c-1.367,0.8-2.867,1.517-4.5,2.15
			c-0.367,0.867-0.867,1.617-1.5,2.25c-0.267,0.267-0.6,0.55-1,0.85c6.367-3.367,13.017-6.983,19.95-10.85
			c1.833-1,3.6-1.767,5.3-2.3c0.1,0.267-0.05,0.4-0.45,0.4c-0.066,0-0.117,0.017-0.15,0.05c-4.367,3.267-8.816,6.367-13.35,9.3
			c-2.933,2.467-6.05,4.333-9.35,5.6C45.16,0.322,44.376,0.622,43.6,0.9z M61.6-22.85c-0.267,0.2-0.6,0.383-1,0.55
			c0.066-0.333,0.25-0.583,0.55-0.75c0.233-0.2,0.417-0.417,0.55-0.65c0.066-0.133,0.167-0.283,0.3-0.45
			c-2.2,1.733-4.633,3.383-7.3,4.95c-2.7,1.6-4.917,3.617-6.65,6.05c0.7-2.967,2.383-5.717,5.05-8.25
			c0.733-0.7,1.417-1.35,2.05-1.95c-2.467,1.567-4.45,3.483-5.95,5.75c-0.633,0.967-1.284,1.833-1.95,2.6
			c-0.4,0.1-0.75,0.35-1.05,0.75c-0.2,0.233-0.4,0.467-0.6,0.7c-0.2,0.167-0.317,0.35-0.35,0.55l-0.45,0.3
			c-0.133,0.4-0.433,0.784-0.9,1.15c-0.533,0.5-1.033,0.933-1.5,1.3c-0.566,0.433-1.017,0.767-1.35,1
			c0.067-0.567,0.6-1.483,1.6-2.75c0.667-0.833,1.217-1.683,1.65-2.55l-0.45,1.15c1.732-3.001,3.715-5.851,5.95-8.55
			c0.233-0.267,0.367-0.483,0.4-0.65l0.45-0.15c0.567-0.9,1.35-1.667,2.35-2.3c1.733-1.133,3.283-2.383,4.65-3.75
			c1.4-0.9,2.567-2.167,3.5-3.8c2.58-4.662,3.264-9.662,2.05-15l2.05,5.95c0.433,2.1,0.333,4.1-0.3,6c-1.267,3.8-3.3,7.267-6.1,10.4
			c-0.722,0.819-1.497,1.603-2.325,2.35c0.883-0.715,1.842-1.465,2.875-2.25c0.667-0.5,1.217-1.033,1.65-1.6
			c0.133-0.267,0.15-0.217,0.05,0.15c-0.033,0.067-0.05,0.117-0.05,0.15h-0.1c-0.034,0.067-0.05,0.117-0.05,0.15
			c0.9-0.534,1.967-1.333,3.2-2.4c0.467-0.4,0.9-0.733,1.3-1c0.167-0.3,0.367-0.617,0.6-0.95c0.3-0.333,0.583-0.65,0.85-0.95
			c0.167-0.233,0.4-0.533,0.7-0.9c-1,2.1-2.267,4.05-3.8,5.85c-0.233,0.3-0.417,0.617-0.55,0.95c0.7-0.6,1.833-1.267,3.4-2
			c0.333-0.133,0.65-0.233,0.95-0.3c-0.466,0.933-1.117,1.767-1.95,2.5c-0.233,0.2-0.517,0.45-0.85,0.75
			c2.067-0.5,3.917-1.65,5.55-3.45c1.034-1.133,1.817-2.15,2.35-3.05c-0.467,2.9-1.983,5.317-4.55,7.25
			c-3.2,2.433-6.583,4.15-10.15,5.15c1.066-1.3,2.6-2.583,4.6-3.85c0.534-0.367,0.967-0.75,1.3-1.15
			C63.417-23.883,62.667-23.55,61.6-22.85z M24-21.175c0.82,0.521,1.695,0.963,2.625,1.325c0.006-0.374,0.023-0.749,0.05-1.125
			c-0.648,0.115-1.44,0.073-2.375-0.125C24.198-21.12,24.098-21.145,24-21.175z M58.6-59.6c0.309,0.745,0.608,1.511,0.9,2.3
			c0.067,0.867,0.267,1.683,0.6,2.45c0.033,0.067,0.083,0.117,0.15,0.15l0.3,1.55c-0.033-1.067,0.1-2.083,0.4-3.05
			c0-0.033,0.033-0.05,0.1-0.05l0.9,1.55c0.144,0.072,0.318,0.039,0.525-0.1C61.239-55.971,59.947-57.571,58.6-59.6z M60.825-67.1
			c-0.029-0.05-0.054-0.101-0.075-0.15c-0.2-0.5-0.533-0.9-1-1.2c-0.121-0.169-0.237-0.336-0.35-0.5
			c0.028,0.114,0.062,0.214,0.1,0.3C59.949-68.123,60.391-67.606,60.825-67.1z M59.05-70.925c0.646,0.644,1.246,1.352,1.8,2.125
			c0.033,0.066,0.083,0.133,0.15,0.2c-0.133-0.7-0.483-1.633-1.05-2.8c-0.233-0.533-0.184-0.7,0.15-0.5
			c0.233,0.233,0.35,0.3,0.35,0.2c0-0.066-0.017-0.133-0.05-0.2c-0.512-0.764-1.028-1.522-1.55-2.275
			C58.893-72.879,58.959-71.796,59.05-70.925z M59.15-42.7c0.003,0.449,0.003,0.899,0,1.35l-0.3,0.45v2.2l-0.45-2.2
			C58.643-41.552,58.893-42.152,59.15-42.7z"/>
		<path fill-rule="evenodd" clip-rule="evenodd" fill="#2C2C2C" d="M26.3,1.4c-3.708-2.417-7.249-4.601-10.625-6.55
			C15.719-5.13,15.76-5.113,15.8-5.1c0.567,0.333,1.067,0.617,1.5,0.85c0.838,0.363,1.38,0.555,1.625,0.575L18.9-3.65
			c-0.1,0.167-0.083,0.283,0.05,0.35c0.633,0.233,1.333,0.35,2.1,0.35c-0.066-0.1-0.117-0.25-0.15-0.45
			c-0.047-0.239-0.139-0.438-0.275-0.6C21.799-3.441,22.924-3.091,24-2.95c-2.067-1.6-4.267-3.133-6.6-4.6
			c-3.033-1.9-5.633-4.133-7.8-6.7l0.75,1.4c0.267,0.167,0.533,0.367,0.8,0.6c1.067,0.967,1.833,1.8,2.3,2.5L12.7-9.9
			c0.3,0.1,0.533,0.233,0.7,0.4c1.333,1.433,2.9,2.633,4.7,3.6c-1.967-0.767-3.8-1.783-5.5-3.05c-2.3-1.7-4.383-3.617-6.25-5.75
			c-0.233-0.633-0.6-1.2-1.1-1.7c-0.592-0.55-1.117-1.092-1.575-1.625c1.217,1.711,2.375,3.469,3.475,5.275
			c2.133,3.533,4.783,6.567,7.95,9.1C16.967-2.217,19-1.1,21.2-0.3c0.133,0.167,0.283,0.316,0.45,0.45
			c0.067,0.041,0.133,0.083,0.2,0.125C23.581,0.775,25.064,1.15,26.3,1.4z M31.725,1.225c0.183-0.016,0.383-0.033,0.6-0.05
			c0.172-0.021,0.355-0.038,0.55-0.05C33.099,1.118,33.34,1.11,33.6,1.1c0.116-0.039,0.341-0.056,0.675-0.05L35-0.5
			c0.3-0.1,0.517-0.2,0.65-0.3c1.367-1.133,2.917-2.067,4.65-2.8c-0.043,0.073-0.094,0.148-0.15,0.225
			C39.625-3.082,39.109-2.74,38.6-2.35c0.367-0.066,0.8-0.316,1.3-0.75c0.094-0.094,0.177-0.185,0.25-0.275
			c1.535-0.875,3.135-1.351,4.8-1.425c-2.581,1.738-4.997,3.746-7.25,6.025c1.988,0.057,3.955-0.052,5.9-0.325
			c0.776-0.278,1.56-0.578,2.35-0.9c3.3-1.267,6.417-3.133,9.35-5.6c4.534-2.933,8.983-6.033,13.35-9.3
			c0.033-0.033,0.083-0.05,0.15-0.05c0.4,0,0.55-0.133,0.45-0.4c-1.7,0.533-3.467,1.3-5.3,2.3C57.017-9.183,50.367-5.567,44-2.2
			c0.4-0.3,0.733-0.583,1-0.85c0.633-0.633,1.133-1.383,1.5-2.25c1.633-0.633,3.133-1.35,4.5-2.15L47.9-7.6
			c1.767-1.2,3.667-2.283,5.7-3.25c-0.633,0.233-1.25,0.383-1.85,0.45c-0.733,0.5-1.3,0.65-1.7,0.45l0.45-0.45
			c2.167-1.5,4.233-2.85,6.2-4.05v-0.05c-0.333,0-0.583,0.083-0.75,0.25c-4.934,1.733-9.45,4.167-13.55,7.3
			c-1.467,1.133-2.117,1.483-1.95,1.05C37.783-4.567,35.3-3.017,33-1.25l0.8-1.1l0.6-1.4c0.1-0.033,0.2-0.083,0.3-0.15
			c0.8-0.8,1.583-1.684,2.35-2.65c-0.2,0-0.383,0.05-0.55,0.15c-0.165,0.126-0.323,0.26-0.475,0.4
			c1.37-1.457,2.628-2.974,3.775-4.55c-0.566,0.233-1.15,0.583-1.75,1.05c-1.533,1.233-2.9,1.967-4.1,2.2
			c-0.233,0.033-0.467,0.117-0.7,0.25c-1.1,0.8-1.95,1.55-2.55,2.25c0.3-0.6,0.633-1.25,1-1.95c1.033-1.933,2.25-3.817,3.65-5.65
			l0.15-0.8l-1.1,0.65c-0.164,0.229-0.355,0.446-0.575,0.65c1.447-2.591,3.439-4.875,5.975-6.85l0.375-0.1
			c-0.283,0.223-0.558,0.456-0.825,0.7l2.15-0.75l-2.45,1.85c1.7-0.733,3.4-1.5,5.1-2.3C39.95-16.217,36.9-12.5,35-8.2
			c2.503-3.037,5.154-5.987,7.95-8.85c1.643-1.682,3.334-3.332,5.075-4.95c0.111-0.102,0.219-0.202,0.325-0.3l0.15-0.95
			c-0.1-0.033-0.15-0.083-0.15-0.15c0-0.3,0.3-0.667,0.9-1.1c-1.1,0.567-1.967,0.733-2.6,0.5l1.55-2.05
			c-0.167,0.066-0.333,0.117-0.5,0.15c-0.467,0.2-0.867,0.467-1.2,0.8c-4.867,0.934-8.9,3.05-12.1,6.35
			c0.267-0.8,0.75-1.517,1.45-2.15c3.7-3.333,7.7-6.033,12-8.1l1.4-0.45h0.5c0.1-0.066,0.3-0.167,0.6-0.3
			c4.733-1.133,7.883-3.967,9.45-8.5c-0.4,0.167-0.733,0.35-1,0.55c-0.881,0.744-1.848,1.335-2.9,1.775
			c-0.743,0.76-2.06,1.401-3.95,1.925c-2.934,0.667-5.3,1.267-7.1,1.8C37.617-30.167,31.667-26.45,27-21.05
			c-0.105,0.03-0.213,0.055-0.325,0.075c-0.027,0.376-0.043,0.751-0.05,1.125c-0.93-0.362-1.805-0.803-2.625-1.325
			c-2.128-0.484-4.178-1.776-6.15-3.875c-0.832-0.896-2.099-2.246-3.8-4.05c-1.704-1.811-3.254-4.211-4.65-7.2
			c-1.394-2.985-1.027-8.835,1.1-17.55c-0.25,0.123-0.5,0.256-0.75,0.4c-0.165,0.762-0.314,1.545-0.45,2.35
			c-1.267,3.467-2.066,7.133-2.4,11c-0.333,4.033,0.517,7.684,2.55,10.95l-0.5-3.7c0.578,3.215,1.986,6.032,4.225,8.45
			c-0.419-0.192-0.844-0.375-1.275-0.55c0.483,0.226,0.917,0.417,1.3,0.575c0.733,0.786,1.55,1.528,2.45,2.225
			c-0.543-0.55-1.052-1.125-1.525-1.725c2.5,1.4,4.558,3.058,6.175,4.975c0.567,0.467,1.017,1.033,1.35,1.7
			c0.033,0.333,0.05,0.534,0.05,0.6c-0.034,0.333-0.15,0.6-0.35,0.8c-0.067,0.066-0.05,0.2,0.05,0.4c0.2,0.467,0.5,0.95,0.9,1.45
			L21.65-13L22-11.95c-0.267,0.067-0.5,0.05-0.7-0.05c-0.367-0.167-0.816-0.3-1.35-0.4c1.066,0.867,2.15,1.85,3.25,2.95
			c1.7,1.733,3.3,2.967,4.8,3.7l0.95,0.3c-0.133-0.367-0.267-0.75-0.4-1.15c-0.233-0.8-0.566-1.55-1-2.25v-0.6
			c-0.1-0.1-0.2-0.2-0.3-0.3c-1.233-1-2.267-1.733-3.1-2.2l1.25,0.5l0.05-0.05c-0.733-1.1-1.633-2.167-2.7-3.2
			c1.567,1,3.117,1.717,4.65,2.15l-0.45-0.8c-0.733-0.667-1.367-1.333-1.9-2c-2.964-3.655-6.639-6.538-11.025-8.65
			c-1.934-2.524-3.259-5.524-3.975-9c0.833,1.967,2.1,3.8,3.8,5.5c2.467,2.467,5.133,4.767,8,6.9c0-0.1-0.017-0.183-0.05-0.25
			c-0.5-0.667-0.95-1.25-1.35-1.75c1.876,2.067,3.935,3.042,6.175,2.925c0.016,2,0.391,3.959,1.125,5.875l-0.3-1.25
			c0.633-2.6,1.966-4.617,4-6.05c0.033,0,0.066-0.017,0.1-0.05c1.7-1.4,3.217-3.083,4.55-5.05c2.533-1.633,5.017-2.617,7.45-2.95
			c0,0.2-0.1,0.25-0.3,0.15c-0.167,0.067-0.333,0.067-0.5,0c-0.933,0.333-1.8,0.833-2.6,1.5c-4.5,3.733-7.65,8.05-9.45,12.95
			c0.167-0.034,0.367-0.034,0.6,0c0.367-0.133,0.567-0.034,0.6,0.3c0,0.1-0.017,0.183-0.05,0.25c-0.3,0.467-0.383,0.9-0.25,1.3
			l4.2-3.75c-1.002,1.628-1.81,3.27-2.425,4.925c-0.103,0.076-0.21,0.151-0.325,0.225c-1.566,1.1-2.65,2.517-3.25,4.25
			C28.724-3.822,29.366-1.063,31.725,1.225z M65.325-45.875c0.043,0.174,0.084,0.349,0.125,0.525c0.167,0.667,0.4,1.383,0.7,2.15
			C65.894-44.101,65.619-44.992,65.325-45.875z M58.8-76.875c0.008,0.987,0.024,1.887,0.05,2.7c0.521,0.752,1.038,1.511,1.55,2.275
			c0.033,0.066,0.05,0.133,0.05,0.2c0,0.1-0.117,0.034-0.35-0.2c-0.333-0.2-0.383-0.033-0.15,0.5c0.566,1.167,0.917,2.1,1.05,2.8
			c-0.067-0.066-0.117-0.133-0.15-0.2c-0.554-0.773-1.154-1.481-1.8-2.125c0.089,0.873,0.206,1.531,0.35,1.975
			c0.113,0.164,0.229,0.331,0.35,0.5c0.467,0.3,0.8,0.7,1,1.2c0.021,0.049,0.046,0.1,0.075,0.15c1.566,1.854,2.991,3.554,4.275,5.1
			c0.099,0.121,0.198,0.237,0.3,0.35c-0.157-0.304-0.29-0.62-0.4-0.95c-0.367-1.066-0.867-1.933-1.5-2.6v-0.5
			c-0.233-0.2-0.433-0.45-0.6-0.75c-0.533-1-0.95-1.933-1.25-2.8c0.167-0.033,0.333,0.05,0.5,0.25c1.3,1.933,2.467,3.6,3.5,5
			c-0.867-2.167-1.867-4.433-3-6.8C61.573-73.032,60.29-75.058,58.8-76.875z M62.475-54.8c-0.207,0.138-0.381,0.172-0.525,0.1
			l-0.9-1.55c-0.066,0-0.1,0.017-0.1,0.05c-0.3,0.967-0.434,1.983-0.4,3.05l-0.3-1.55c-0.067-0.033-0.117-0.083-0.15-0.15
			c-0.333-0.767-0.533-1.583-0.6-2.45c-0.292-0.789-0.591-1.556-0.9-2.3c-0.3-0.448-0.6-0.915-0.9-1.4
			c0.158,1.798,0.275,3.64,0.35,5.525c0.049,0.361,0.099,0.72,0.15,1.075c0.598,3.886,0.914,7.786,0.95,11.7
			c0.307-0.658,0.623-1.241,0.95-1.75c0.133,2.6,0.083,5.184-0.15,7.75l-0.45,0.75l-0.15,3.4c0.8-1.733,1.267-3.583,1.4-5.55
			c0.4-5.1-0.133-10.167-1.6-15.2c0.833,1.533,1.517,3.183,2.05,4.95c0.033-0.433,0.05-0.833,0.05-1.2
			c0.033-0.867,0.217-1.7,0.55-2.5l0.475,1.55c-0.04-0.057-0.082-0.107-0.125-0.15l1.05,3.05c-0.117-0.517-0.25-1.042-0.4-1.575
			l0.55-2.725v0.8c0.733,1.711,1.391,3.453,1.975,5.225c-0.66-2.818-1.451-5.651-2.375-8.5C62.795-54.506,62.637-54.647,62.475-54.8
			z M3.5-18.25c0.03,0.044,0.063,0.085,0.1,0.125l-0.4-4.6c0.056,0.091,0.106,0.167,0.15,0.225c1.066,1.567,2.167,3.017,3.3,4.35
			c1.333,1.733,2.684,3.133,4.05,4.2c-0.534-0.767-1.2-1.617-2-2.55c-0.934-1.133-1.8-2.3-2.6-3.5
			c-1.066-1.556-2.083-3.005-3.05-4.35v-0.05c0.418,0.458,0.951,0.891,1.6,1.3l-1.775-3.175L2.8-27.025l3.5,3.05
			C7.659-20.19,9.475-16.532,11.75-13c1.533,1.3,3.05,2.433,4.55,3.4c1.7,1.1,3.45,2.1,5.25,3c3.6,1.767,6.434,4.483,8.5,8.15
			l-2.35-4.8c-0.4-0.567-0.917-1.033-1.55-1.4c-1.933-1.033-3.6-2.333-5-3.9c-1.367-1.534-2.683-2.867-3.95-4
			c0.033-0.034,0.083-0.083,0.15-0.15c0.4-0.267,0.55-0.533,0.45-0.8l-2.15-1.7l1.4,0.5c-0.066-0.1-0.133-0.216-0.2-0.35
			c-1.167-1.967-2.3-3.717-3.4-5.25c2.4,2.533,4.783,4.7,7.15,6.5c-0.3-1.034-0.783-1.983-1.45-2.85
			c-4.333-5.667-9.283-10.333-14.85-14c0.167,0.133,0.383,0.333,0.65,0.6c1.867,1.633,3.2,3.483,4,5.55
			c0.933,1.4,1.716,2.9,2.35,4.5L11-19.2c0,0.067,0.017,0.117,0.05,0.15c0.8,1.2,1.6,2.283,2.4,3.25l-1.05-0.15
			c0.033,0.1,0.083,0.2,0.15,0.3c0.767,1,1.633,1.833,2.6,2.5c-0.133-0.033-0.283-0.1-0.45-0.2c-3.886-2.59-6.669-6.115-8.35-10.575
			L6.8-23.55c0-0.233-0.033-0.4-0.1-0.5c-0.252-0.348-0.502-0.698-0.75-1.05c-0.036-0.1-0.069-0.2-0.1-0.3c0,0.066,0,0.117,0,0.15
			l0.025,0.05c-1.091-1.479-2.191-2.954-3.3-4.425l-0.075-1L2.8-29.9L2-37.95c0.1,0.067,0.183,0.217,0.25,0.45
			c0.588,1.831,1.414,3.614,2.475,5.35c-0.125-0.234-0.217-0.468-0.275-0.7c-0.133-0.4-0.284-0.867-0.45-1.4
			c-0.381-1.049-0.615-2.141-0.7-3.275C3.313-37.608,3.33-37.7,3.35-37.8c0.267-2.633,0.483-5.267,0.65-7.9c0-0.033,0-0.083,0-0.15
			c0.033-0.1,0.2-0.1,0.5,0c0.2,0.267,0.3,0.684,0.3,1.25c-0.012,0.813-0.037,1.613-0.075,2.4c0.202-2.53,0.894-4.879,2.075-7.05
			v-0.5c0.478-0.847,0.886-1.706,1.225-2.575c-2.648,1.966-4.873,4.858-6.675,8.675c-0.375,0.798-0.734,1.64-1.075,2.525
			c-1.044,2.707-1.419,5.707-1.125,9c0.374,4.124,1.798,8.707,4.275,13.75C3.447-18.33,3.472-18.289,3.5-18.25z M67.6-52.7
			c0.646,2.501,0.979,4.935,1,7.3c-0.367-0.8-0.767-1.467-1.2-2v4.65c-0.467-3.233-1.2-6.383-2.2-9.45
			c0.066,2.833,0.417,5.583,1.05,8.25c0.933,3.867,0.85,7.733-0.25,11.6l0.45-0.8v-0.6l0.45-0.5l0.8-0.45
			c0-0.066,0.017-0.167,0.05-0.3c0.565-1.729,0.849-3.546,0.85-5.45c0.002,0.069,0.019,0.119,0.05,0.15
			c0.367,1.233,0.617,2.267,0.75,3.1c0.3-0.867,0.4-1.783,0.3-2.75L70-39.5c0.033,0,0.05-0.017,0.05-0.05
			c0.121-2.051,0.038-3.984-0.25-5.8c0.558,2.756,1.091,5.473,1.6,8.15c0.2-0.8,0.333-1.617,0.4-2.45c0.267-3.2-0.2-6.283-1.4-9.25
			c-0.649-1.58-1.291-3.113-1.925-4.6C68.226-53.13,67.934-52.863,67.6-52.7z M61.6-22.85c1.066-0.7,1.816-1.033,2.25-1
			c-0.333,0.4-0.767,0.783-1.3,1.15c-2,1.267-3.533,2.55-4.6,3.85c3.566-1,6.95-2.717,10.15-5.15c2.566-1.933,4.083-4.35,4.55-7.25
			c-0.533,0.9-1.316,1.917-2.35,3.05c-1.633,1.8-3.483,2.95-5.55,3.45c0.333-0.3,0.617-0.55,0.85-0.75
			c0.833-0.733,1.483-1.567,1.95-2.5c-0.3,0.067-0.617,0.167-0.95,0.3c-1.567,0.733-2.7,1.4-3.4,2c0.133-0.333,0.316-0.65,0.55-0.95
			c1.533-1.8,2.8-3.75,3.8-5.85c-0.3,0.367-0.533,0.667-0.7,0.9c-0.267,0.3-0.55,0.617-0.85,0.95c-0.233,0.333-0.433,0.65-0.6,0.95
			c-0.4,0.267-0.833,0.6-1.3,1c-1.233,1.067-2.3,1.867-3.2,2.4c0-0.034,0.017-0.083,0.05-0.15h0.1c0-0.033,0.017-0.083,0.05-0.15
			c0.1-0.367,0.083-0.417-0.05-0.15c-0.433,0.567-0.983,1.1-1.65,1.6c-1.033,0.785-1.992,1.535-2.875,2.25
			c0.829-0.748,1.604-1.531,2.325-2.35c2.8-3.133,4.833-6.6,6.1-10.4c0.633-1.9,0.733-3.9,0.3-6L63.2-47.6
			c1.213,5.338,0.53,10.338-2.05,15c-0.933,1.633-2.1,2.9-3.5,3.8c-1.367,1.367-2.917,2.617-4.65,3.75c-1,0.633-1.783,1.4-2.35,2.3
			L50.2-22.6c-0.034,0.167-0.167,0.383-0.4,0.65c-2.234,2.699-4.218,5.549-5.95,8.55l0.45-1.15c-0.433,0.867-0.983,1.716-1.65,2.55
			c-1,1.267-1.533,2.183-1.6,2.75c0.333-0.233,0.784-0.567,1.35-1c0.467-0.367,0.967-0.8,1.5-1.3c0.467-0.367,0.767-0.75,0.9-1.15
			l0.45-0.3c0.033-0.2,0.15-0.383,0.35-0.55c0.2-0.233,0.4-0.467,0.6-0.7c0.3-0.4,0.65-0.65,1.05-0.75
			c0.667-0.767,1.317-1.633,1.95-2.6c1.5-2.267,3.483-4.183,5.95-5.75c-0.633,0.6-1.316,1.25-2.05,1.95
			c-2.667,2.533-4.35,5.283-5.05,8.25c1.733-2.434,3.95-4.45,6.65-6.05c2.667-1.566,5.1-3.216,7.3-4.95
			c-0.133,0.167-0.233,0.316-0.3,0.45c-0.133,0.233-0.317,0.45-0.55,0.65c-0.3,0.167-0.483,0.417-0.55,0.75
			C61-22.467,61.333-22.65,61.6-22.85z M59.15-42.7c-0.257,0.548-0.507,1.148-0.75,1.8l0.45,2.2v-2.2l0.3-0.45
			C59.153-41.801,59.153-42.251,59.15-42.7z"/>
	</g>
</symbol>
<symbol  id="Symbgol_10" viewBox="0 -54.4 87.35 54.4">
	<polygon fill-rule="evenodd" clip-rule="evenodd" points="0,0 78.35,0 87.35,-54.4 0,-54.4 	"/>
</symbol>
<symbol  id="Symbol_23" viewBox="-0.233 -120 92.333 120.237">
	<g id="Layer_3_9_">
		<path fill-rule="evenodd" clip-rule="evenodd" fill="#ECA865" d="M74.6-64.7c-0.14,2.082-0.499,3.907-1.075,5.475
			c-1.098,2.966-2.973,5.033-5.625,6.2c-0.64,0.274-1.323,0.499-2.05,0.675L66-51.7l1.9,2l-7.5,20.5c-0.333,1.8-0.217,3.6,0.35,5.4
			v0.55l2.5,15.05l7,7.75c3,1,4.3,0.284,3.9-2.15l-7.75-10v-9l5.5,6.5l12.15,8.5c3.2,1.4,4.317,0.2,3.35-3.6
			c-3.4-1.3-7.367-3.75-11.9-7.35l-5.35-7.25l9.8,6.6L88-14.6c2.1,0.667,3.017,0.017,2.75-1.95c-0.1-0.967-1.183-1.75-3.25-2.35
			c-1.7-0.133-4.033-1.434-7-3.9l-6-4.75c5.167,2.7,10.417,4.566,15.75,5.6c2.133-0.767,2.133-1.716,0-2.85
			c-4.733-1.5-8.567-3.55-11.5-6.15l3.4-10.25c1.533-6.1,1.117-11.6-1.25-16.5l-6-7H74.6z"/>
		<path fill-rule="evenodd" clip-rule="evenodd" fill="#398024" d="M63.675-69.425c-1.295,2.634-3.021,4.759-5.175,6.375
			c2.768,1.809,5.102,3.992,7,6.55c0.698,0.959,1.498,2.118,2.4,3.475c2.652-1.167,4.527-3.234,5.625-6.2
			C67.578-65.001,64.295-68.401,63.675-69.425z"/>
		<path fill-rule="evenodd" clip-rule="evenodd" fill="#579A43" d="M58.5-63.05c2.154-1.616,3.879-3.741,5.175-6.375
			c-1.393-2.27-4.018-5.011-7.875-8.225c-4.767-3.9-8.45-6.467-11.05-7.7c-0.9-0.433-3.1-2.65-6.6-6.65
			c-3.667-4.133-7.083-7.1-10.25-8.9c-0.414-0.238-1.139-0.73-2.175-1.475c-2.305-1.656-6.146-4.564-11.525-8.725
			c-2.057-1.596-4.265-3.137-6.625-4.625c-1.1,0.334-2.091,0.843-2.975,1.525c-0.946,0.925-1.747,1.85-2.4,2.775
			c2.171,5.67,5.671,10.846,10.5,15.525c2.133,2.066,9.933,8.183,23.4,18.35c4.6,3.433,7.667,5.667,9.2,6.7
			c2.934,1.967,6.567,4.117,10.9,6.45C56.994-63.975,57.761-63.525,58.5-63.05z M31.25-107.075L65.8-75.95l0.4-0.4
			c-0.1,0-0.2,0-0.3,0l1.25-0.95c0.991-6.969,1.007-14.244,0.05-21.825c-2.681-1.906-5.281-3.831-7.8-5.775
			c-3.833-2.533-8.583-3.8-14.25-3.8c-5.1,0-9.083,0.35-11.95,1.05C32.499-107.479,31.849-107.288,31.25-107.075z"/>
		<path fill-rule="evenodd" clip-rule="evenodd" fill="#66AF50" d="M2.2-111.425c-3.396,4.851-2.829,9.792,1.7,14.825l46.5,37
			c0.967-0.2,1.9-0.45,2.8-0.75c1.984-0.641,3.75-1.541,5.3-2.7c-0.739-0.475-1.506-0.925-2.3-1.35
			c-4.333-2.333-7.967-4.483-10.9-6.45c-1.533-1.033-4.6-3.267-9.2-6.7C22.633-87.717,14.833-93.833,12.7-95.9
			C7.872-100.579,4.372-105.754,2.2-111.425z"/>
		<path fill-rule="evenodd" clip-rule="evenodd" fill="#44912D" d="M53.2-60.35l8.7,8.5c1.434-0.033,2.75-0.2,3.95-0.5
			c0.727-0.176,1.41-0.401,2.05-0.675c-0.902-1.357-1.702-2.516-2.4-3.475c-1.898-2.558-4.232-4.741-7-6.55
			C56.951-61.891,55.184-60.991,53.2-60.35z"/>
		<path fill-rule="evenodd" clip-rule="evenodd" fill="#468533" d="M65.8-75.95l-34.55-31.125l-3.1-2.775
			c-6.167-4-11.633-6.117-16.4-6.35c4.767,0.233,10.233,2.35,16.4,6.35l3.1,2.775c0.599-0.212,1.249-0.404,1.95-0.575
			c2.867-0.7,6.85-1.05,11.95-1.05c5.667,0,10.417,1.267,14.25,3.8c2.519,1.944,5.119,3.869,7.8,5.775
			c-0.855-6.72-2.472-13.678-4.85-20.875c-0.067,0.3-0.133,0.6-0.2,0.9c-0.267,0-0.533,0-0.8,0c-4.4,0.133-7.217,0.8-8.45,2
			l-41.15,0.9c-1.533-0.071-2.925,0.087-4.175,0.475c2.36,1.488,4.568,3.029,6.625,4.625c5.379,4.161,9.22,7.069,11.525,8.725
			c1.036,0.745,1.761,1.237,2.175,1.475c3.167,1.8,6.583,4.767,10.25,8.9c3.5,4,5.7,6.217,6.6,6.65c2.6,1.233,6.283,3.8,11.05,7.7
			c3.857,3.214,6.482,5.956,7.875,8.225c0.811-1.639,1.452-3.481,1.925-5.525c0.033-0.3,0.083-0.6,0.15-0.9
			C65.75-75.883,65.767-75.917,65.8-75.95z"/>
		<path fill-rule="evenodd" clip-rule="evenodd" fill="#32721F" d="M65.6-74.95c-0.473,2.044-1.115,3.886-1.925,5.525
			c0.62,1.023,3.903,4.423,9.85,10.2c0.577-1.568,0.935-3.393,1.075-5.475c0.066-0.833,0.083-1.716,0.05-2.65L65.6-74.95z"/>
		
			<path fill-rule="evenodd" clip-rule="evenodd" fill="none" stroke="#C98949" stroke-width="0.5" stroke-linecap="round" stroke-linejoin="round" stroke-miterlimit="3" d="
			M74.6-64.7h0.3l6,7c2.367,4.9,2.783,10.4,1.25,16.5l-3.4,10.25c2.933,2.6,6.767,4.65,11.5,6.15c2.133,1.133,2.133,2.083,0,2.85
			c-5.333-1.033-10.583-2.9-15.75-5.6l6,4.75c2.967,2.466,5.3,3.767,7,3.9c2.067,0.6,3.15,1.383,3.25,2.35
			c0.267,1.966-0.65,2.617-2.75,1.95l-8.05-3.6l-9.8-6.6l5.35,7.25c4.533,3.6,8.5,6.05,11.9,7.35c0.967,3.8-0.15,5-3.35,3.6
			L71.9-15.1l-5.5-6.5v9l7.75,10c0.4,2.434-0.9,3.15-3.9,2.15l-7-7.75l-2.5-15.05v-0.55c-0.567-1.8-0.683-3.6-0.35-5.4l7.5-20.5
			l-1.9-2l-0.15-0.65"/>
		
			<path fill-rule="evenodd" clip-rule="evenodd" fill="none" stroke="#3A7B27" stroke-width="0.5" stroke-linecap="round" stroke-linejoin="round" stroke-miterlimit="3" d="
			M65.85-52.35c0.727-0.176,1.41-0.401,2.05-0.675c2.652-1.167,4.527-3.234,5.625-6.2c0.577-1.568,0.935-3.393,1.075-5.475
			c0.066-0.833,0.083-1.716,0.05-2.65l-9.05-7.6c0.033-0.3,0.083-0.6,0.15-0.9c0-0.033,0.017-0.066,0.05-0.1l0.4-0.4
			c-0.1,0-0.2,0-0.3,0l1.25-0.95 M58.5-63.05c-1.549,1.159-3.316,2.059-5.3,2.7c-0.9,0.3-1.833,0.55-2.8,0.75l-46.5-37
			c-4.529-5.032-5.096-9.974-1.7-14.825 M53.2-60.35l8.7,8.5c1.434-0.033,2.75-0.2,3.95-0.5 M52.9-117.1l-41.15,0.9
			c-1.533-0.071-2.925,0.087-4.175,0.475c-1.1,0.334-2.091,0.843-2.975,1.525c-0.946,0.925-1.747,1.85-2.4,2.775 M63.675-69.425
			c0.811-1.639,1.452-3.481,1.925-5.525 M58.5-63.05c2.154-1.616,3.879-3.741,5.175-6.375 M31.25-107.075l-3.1-2.775
			c-6.167-4-11.633-6.117-16.4-6.35 M65.8-75.95l-34.55-31.125"/>
	</g>
</symbol>
<symbol  id="Symgbol_9" viewBox="0 -69.2 118.75 69.2">
	<g id="Layer_3_10_">
		<polygon fill-rule="evenodd" clip-rule="evenodd" fill="#777777" points="0,-2.05 0.9,0 91.9,-4 90.15,-6 		"/>
		<path fill-rule="evenodd" clip-rule="evenodd" fill="#565656" d="M91.9-4l20.4-50.7l6.45-13.9l-2.05-0.6L90.4-6.55
			c-1.033-2.733-3.5-7.367-7.4-13.9c-3.9-6.566-7.833-12.683-11.8-18.35c-4.267-6.034-8.833-10.517-13.7-13.45
			C52.433-55.317,43.6-58.9,31-63L0-2.05L90.15-6L91.9-4z"/>
		<path fill-rule="evenodd" clip-rule="evenodd" fill="#3A3A3A" d="M116.7-69.2l-85.05,4.95L31-63c12.6,4.1,21.433,7.683,26.5,10.75
			c4.867,2.933,9.433,7.417,13.7,13.45c3.966,5.667,7.9,11.783,11.8,18.35c3.9,6.534,6.367,11.167,7.4,13.9L116.7-69.2z"/>
	</g>
</symbol>
<symbol  id="fg_FLM_x5F_FRAME_x5F_0" viewBox="21.132 -122.68 130.844 122.93">
	<g id="Layer_2_3_">
	</g>
	<g id="Layer_6_1_">
	</g>
	<g id="Layer_1_3_">
		
			<use xlink:href="#Sgymbol_8"  width="105.611" height="102.825" x="-6.194" y="-102.575" transform="matrix(1 0 0 1 47.3999 0)" overflow="visible"/>
	</g>
	<g id="Layer_5_1_">
		
			<use xlink:href="#Sygmbol_7"  width="31.084" height="98.901" x="-0.234" y="-98.701" transform="matrix(0.9915 -0.1301 0.1301 0.9915 125.7002 -10.4995)" overflow="visible"/>
	</g>
	<g id="Layer_4_2_">
		
			<use xlink:href="#Sygmbol_5"  width="121.968" height="30.63" x="-0.268" y="-30.38" transform="matrix(1 0 0 1 21.3999 -92.2998)" overflow="visible"/>
	</g>
</symbol>
<g id="Layer_7">
	<g>
		<path fill-rule="evenodd" clip-rule="evenodd" fill="#3D2920" d="M498.868,331.742c11.815,17.724,17.724,39.089,17.724,64.096
			c0,25.008-5.908,46.344-17.724,64.01c-11.815,17.724-26.068,26.585-42.759,26.585s-30.943-8.861-42.759-26.585
			c-11.815-17.666-17.724-39.002-17.724-64.01c0-25.007,5.908-46.372,17.724-64.096c11.815-17.665,26.068-26.498,42.759-26.498
			S487.053,314.077,498.868,331.742z"/>
	</g>
	<g>
		<path fill-rule="evenodd" clip-rule="evenodd" fill="#345AB8" d="M444.495,305.244c16.69,0,30.943,8.833,42.759,26.498
			c11.815,17.724,17.723,39.089,17.723,64.096c0,25.008-5.907,46.344-17.723,64.01c-11.815,17.724-26.068,26.585-42.759,26.585
			c-16.691,0-30.944-8.861-42.76-26.585c-11.815-17.666-17.723-39.002-17.723-64.01c0-25.007,5.907-46.372,17.723-64.096
			C413.551,314.077,427.804,305.244,444.495,305.244z"/>
	</g>
</g>
<g id="Layer_6">
	<g>
		<polygon fill-rule="evenodd" clip-rule="evenodd" fill="#D6AD5F" points="430.987,512.673 430.987,681.988 -18.886,633.465 
			-18.886,487.035 		"/>
		<polygon fill-rule="evenodd" clip-rule="evenodd" fill="#CF9532" points="430.987,681.988 430.987,512.673 673.433,427.585 
			673.433,605.762 		"/>
		<polygon fill-rule="evenodd" clip-rule="evenodd" fill="#D29A30" points="673.433,427.585 430.987,512.673 -18.886,487.035 
			-31.017,486.002 -31.017,472.236 431.848,499.768 685.563,414.508 685.563,424.574 		"/>
		<polygon fill-rule="evenodd" clip-rule="evenodd" fill="#DAA256" points="-31.017,472.236 206.438,389.3 384.959,398.548 
			482.608,403.624 685.563,414.164 685.563,414.508 431.848,499.768 		"/>
	</g>
</g>
<g id="Layer_10">
	
		<use xlink:href="#Sygmbol_11_FLM_x5F_FRAME_x5F_0"  width="201.55" height="85.3" x="-0.5" y="-84.8" transform="matrix(0.3487 -0.1285 -0.2119 -0.243 340.9004 468.2998)" overflow="visible"/>
</g>
<g id="Layer_5">
	
		<use xlink:href="#Sygmbol_17"  width="126.75" height="18.95" y="-18.95" transform="matrix(1.7207 0 0 -1.7207 143.1001 429.4004)" overflow="visible"/>
</g>
<g id="Layer_4">
	<g>
		<g>
			<path fill-rule="evenodd" clip-rule="evenodd" fill="#DE9955" d="M346.416,204.842c17.665-13.307,23.086-44.566,16.26-93.777
				c6.138,7.571,9.895,18.039,11.271,31.402c0.287,8.661-0.144,14.97-1.29,18.928c9.234-11.93,14.683-14.712,16.347-8.345
				c1.95,6.137-0.058,12.532-6.022,19.186c-4.703,4.359-7.887,6.912-9.55,7.657c-0.172,0.229-0.287,1.147-0.345,2.753
				c-1.262,1.262-2.466,2.466-3.613,3.613C361.041,194.289,353.355,200.483,346.416,204.842z"/>
			<path fill-rule="evenodd" clip-rule="evenodd" fill="#F1B274" d="M362.676,111.064c6.826,49.211,1.405,80.471-16.26,93.777
				c-9.35,5.851-17.351,8.288-24.004,7.313c-1.606-0.229-3.126-0.66-4.56-1.291c-9.407-5.449-16.863-14.052-22.369-25.811
				c-3.556-8.03-5.563-16.862-6.022-26.498c-9.923-34.529-3.126-54.919,20.39-61.171C334.515,93.485,352.123,98.044,362.676,111.064
				z"/>
			<path fill-rule="evenodd" clip-rule="evenodd" fill="#E29D59" d="M315.271,232.029c-0.976,3.155-1.549,6.08-1.721,8.775
				c-0.401,5.277,0.573,9.607,2.925,12.991c4.646,3.728,15.056,1.52,31.23-6.625c1.147-0.574,2.266-1.176,3.355-1.807
				c7.571-4.589,13.105-10.611,16.604-18.067c-3.499,6.08-8.518,11.099-15.056,15.056c-1.09,0.631-2.209,1.233-3.355,1.807
				c-16.175,8.145-26.585,10.353-31.23,6.625c-1.663-2.352-2.639-5.162-2.926-8.431c-0.172-1.262-0.2-2.581-0.086-3.958
				c0.229-3.441,1.033-7.256,2.409-11.443c2.008-4.417,3.298-7.514,3.872-9.292c0.057-0.229,0.114-0.43,0.172-0.603
				c0.229-0.688,0.286-1.118,0.172-1.29c0.114,0,0.258,0.028,0.431,0.086c3.728,0.229,8.173-0.631,13.335-2.581
				c4.187-1.549,10.152-4.474,17.896-8.775c3.154-1.778,6.137-3.929,8.947-6.453c2.925-2.695,4.817-5.047,5.678-7.055
				c0.574-1.778,1.09-3.355,1.549-4.732c1.147-1.147,2.352-2.352,3.613-3.613c-0.172,4.359-0.487,8.861-0.946,13.507
				c-0.114,1.147-0.229,2.294-0.344,3.441v61.256c-22.771,4.646-44.623,5.22-65.559,1.721c2.409-10.267,4.818-18.841,7.228-25.724
				C314.038,235.126,314.641,233.52,315.271,232.029z"/>
			<path fill-rule="evenodd" clip-rule="evenodd" fill="#D7924E" d="M317.422,226.953c-1.376,4.187-2.18,8.001-2.409,11.443
				c-0.114,1.376-0.086,2.696,0.086,3.958c0.287,3.269,1.263,6.08,2.926,8.431c4.646,3.728,15.056,1.52,31.23-6.625
				c1.146-0.574,2.266-1.176,3.355-1.807c6.538-3.958,11.557-8.977,15.056-15.056c-3.499,7.456-9.033,13.479-16.604,18.067
				c-1.09,0.631-2.208,1.233-3.355,1.807c-16.175,8.145-26.585,10.353-31.23,6.625c-2.352-3.384-3.326-7.714-2.925-12.991
				c0.172-2.696,0.745-5.621,1.721-8.775c0.516-1.376,1.061-2.639,1.635-3.786C317.078,227.784,317.25,227.354,317.422,226.953z
				 M322.412,212.155c6.653,0.975,14.654-1.462,24.004-7.313c6.939-4.359,14.625-10.553,23.057-18.583
				c-0.459,1.376-0.975,2.954-1.549,4.732c-0.86,2.008-2.753,4.359-5.678,7.055c-2.811,2.524-5.793,4.675-8.947,6.453
				c-7.743,4.301-13.709,7.227-17.896,8.775c-5.162,1.95-9.607,2.81-13.335,2.581c-0.173-0.058-0.316-0.086-0.431-0.086
				C321.925,214.564,322.183,213.359,322.412,212.155z"/>
		</g>
	</g>
</g>
<g id="Layer_3">
	<path fill-rule="evenodd" clip-rule="evenodd" fill="#1C1B1B" d="M304.216,183.419c0.348-2.605,2.541-5.129,6.582-7.571
		c5.448-1.09,11.241-1.09,17.379,0c7.897,2.733,9.59,6.92,5.075,12.561c-1.397-2.307-4.064-4.228-8.001-5.764
		c-6.54-0.113-10.626,0.289-12.26,1.205c-1.631,0.912-3.566,2.518-5.808,4.818C304.857,187.773,303.868,186.024,304.216,183.419z"/>
</g>
<g id="Layer_2">
	<g>
		<path fill-rule="evenodd" clip-rule="evenodd" fill="#1C1B1B" d="M315.615,122.335h0.086c-1.434,3.269-2.781,4.847-4.043,4.732
			l-12.131-0.344c-1.376,0.229-2.753,0.545-4.129,0.946l-3.184,1.549l-4.302,3.441l-2.581,2.839l-0.086,0.172l-0.258,0.258
			l2.323-4.818l4.216-6.625c1.548-1.95,3.67-2.982,6.366-3.097h11.529C313.149,121.389,315.214,121.704,315.615,122.335z
			 M355.363,125.088l3.27,6.625l1.462,4.904l-0.172-0.344l-0.172-0.172l-1.979-2.839l-2.237-2.323
			c-1.376-1.434-2.867-2.38-4.474-2.839l-4.044-1.032l-12.045,0.172c-1.204,0-2.294-1.606-3.269-4.818
			c0.516-0.688,2.638-0.975,6.366-0.86l11.442,0.172C352.151,121.962,354.102,123.081,355.363,125.088z"/>
		<path fill-rule="evenodd" clip-rule="evenodd" fill="#CCDCEC" d="M287.568,147.027c0.373-0.347,0.789-0.705,1.247-1.076
			c0.249-0.18,0.507-0.366,0.774-0.559l-0.301,0.258c-0.162,0.104-0.319,0.205-0.474,0.301c0.154-0.096,0.312-0.196,0.474-0.301
			l0.301-0.258c0.151-0.115,0.309-0.229,0.473-0.344v-0.086l3.183-1.893l0.172-0.086l0.516-0.258v0.086l-0.516,0.172l0.516-0.172
			l1.506-0.473c-0.599,0.79-0.986,1.65-1.162,2.581c-1.129,0.341-2.104,0.786-2.925,1.333l-3.183,2.065l-1.119-0.688
			C287.2,147.432,287.372,147.23,287.568,147.027c-0.196,0.204-0.368,0.405-0.517,0.602l1.119,0.688l-0.172,0.086l-1.118-0.688
			C287.087,147.493,287.316,147.264,287.568,147.027z M305.549,144.919c-0.092-1.353-0.536-2.528-1.333-3.527l0.387,0.043
			l3.012,1.032l0.946,0.688c1.032,0.574,1.692,1.147,1.979,1.721c0.194,0.219,0.424,0.434,0.688,0.645l0.086,0.129l0.215,0.086
			c0.289,0.237,0.619,0.466,0.99,0.688l0.602,0.258l0.431,0.516l-0.259,0.559l-0.172,0.129l-0.602,0.086h-0.087l-0.43,0.086
			l-0.172-0.086l-0.129,0.129c-0.854-0.841-1.899-1.544-3.141-2.108l-2.495-1.032L305.549,144.919z M311.744,148.146l-0.043-0.043
			l0.129-0.129l0.172,0.086l0.43-0.086h0.087l0.602-0.086l0.172-0.129l-0.086,0.215l-0.602,0.172h-0.173l-0.602-0.086v0.086H311.744
			z M311.228,145.521c0.092,0.077,0.192,0.149,0.301,0.215l-0.215-0.086L311.228,145.521z M331.531,142.897l1.291-0.946l0.946-0.516
			c0.344-0.287,0.688-0.459,1.032-0.516l1.979-0.603c-0.786,0.98-1.244,2.127-1.376,3.441h-0.086l-2.581,1.119l-3.613,2.151h-0.774
			l-0.603-0.172l-0.344-0.774l0.43-0.344l0.688-0.43l1.204-0.774l0.86-0.774l-0.86,0.774l-1.204,0.774l2.064-1.549L331.531,142.897
			l-0.946,0.86c0.212-0.303,0.514-0.618,0.903-0.946L331.531,142.897z M354.933,145.736l-1.376,0.774l-0.129-0.086L354.933,145.736
			l-1.505,0.688l-3.055-1.979l-3.011-1.291l-0.086,0.258c-0.007-0.939-0.251-1.799-0.731-2.581l1.419,0.431v-0.086l0.431,0.258
			l-0.431-0.172l0.431,0.172h0.086l3.27,1.807h0.172c0.455,0.325,0.885,0.641,1.29,0.946
			C353.859,144.721,354.434,145.237,354.933,145.736z"/>
		<path fill-rule="evenodd" clip-rule="evenodd" fill="#FFFFFF" d="M288.299,148.532l-0.301-0.129l0.172-0.086l0.086,0.086v0.086
			v-0.086l-0.086-0.086l3.183-2.065c0.821-0.547,1.796-0.992,2.925-1.333c-0.046,0.295-0.075,0.597-0.086,0.903
			c-0.058,1.606,0.43,3.04,1.462,4.302c0.855,0.897,1.83,1.457,2.925,1.678l-2.753-0.215l-1.634-0.516l-5.937-2.581L288.299,148.532
			z M311.701,148.102l0.043,0.043h-0.086L311.701,148.102l-0.043,0.043l-0.259-0.043l-0.172-0.129l-0.086,0.086l-1.893,1.291
			l-0.86,0.43l-4.216,1.419l-2.452,0.474l-1.161,0.172c1.225-0.221,2.314-0.881,3.269-1.979c1.147-1.205,1.721-2.61,1.721-4.216
			c0.009-0.256,0.009-0.5,0-0.731l0.517,0.043l2.495,1.032C309.802,146.558,310.848,147.261,311.701,148.102z M345.47,149.866
			c-1.721,0.458-3.184,0.659-4.389,0.602l-5.334-0.86l-4.043-1.376l-1.894-1.291l-0.688,0.086l3.613-2.151l2.581-1.119h0.086
			c0.005,0.05,0.005,0.107,0,0.172c0,1.548,0.545,2.925,1.635,4.129c1.146,1.262,2.495,1.864,4.043,1.807
			c1.664,0,3.069-0.631,4.216-1.893c1.263-1.205,1.922-2.638,1.979-4.302c0.003-0.086,0.003-0.173,0-0.258l0.086-0.258l3.011,1.291
			l3.055,1.979l-3.484,1.591L345.47,149.866z M353.557,146.511l-3.613,1.505l3.484-1.591L353.557,146.511z M338.242,142.51
			l1.118,0.474c0.345,0.401,0.517,0.832,0.517,1.29c-0.058,0.459-0.258,0.889-0.603,1.291l-0.73,0.344l-0.56,0.258l-1.205-0.516
			c-0.344-0.402-0.516-0.86-0.516-1.377c0.058-0.458,0.229-0.86,0.516-1.204l1.377-0.603L338.242,142.51z"/>
		<path fill-rule="evenodd" clip-rule="evenodd" fill="#5C2E01" d="M300.56,151.845c-0.133,0.029-0.262,0.058-0.388,0.086
			c-0.076-0.005-0.147-0.005-0.215,0l-1.376-0.129c-1.095-0.221-2.07-0.78-2.925-1.678c-1.032-1.262-1.52-2.696-1.462-4.302
			c0.011-0.307,0.04-0.608,0.086-0.903c0.176-0.931,0.563-1.792,1.162-2.581c0.027-0.036,0.056-0.079,0.086-0.129l1.764-0.603
			l6.538-0.344l0.302,0.043c0.03,0.034,0.059,0.063,0.086,0.086c0.797,0.999,1.241,2.175,1.333,3.527
			c0.009,0.231,0.009,0.476,0,0.731c0,1.606-0.573,3.011-1.721,4.216C302.874,150.964,301.784,151.624,300.56,151.845z
			 M296.731,144.661c-0.12,0.353-0.191,0.711-0.215,1.076c0,1.09,0.315,1.95,0.946,2.581c0.631,0.688,1.405,0.975,2.323,0.86
			c0.918,0.115,1.721-0.201,2.409-0.946c0.631-0.746,0.946-1.635,0.946-2.667c0-0.358-0.043-0.702-0.129-1.033
			c-0.152-0.482-0.396-0.94-0.731-1.376c-0.631-0.631-1.377-0.975-2.237-1.032c-0.917,0.057-1.749,0.43-2.495,1.118
			C297.185,143.704,296.912,144.177,296.731,144.661z M346.545,140.832c0.48,0.782,0.725,1.642,0.731,2.581
			c0.003,0.085,0.003,0.172,0,0.258c-0.058,1.664-0.717,3.097-1.979,4.302c-1.146,1.262-2.552,1.893-4.216,1.893
			c-1.548,0.057-2.896-0.545-4.043-1.807c-1.09-1.204-1.635-2.581-1.635-4.129c0.005-0.065,0.005-0.123,0-0.172
			c0.132-1.314,0.59-2.461,1.376-3.441l0.603-0.086l0.431-0.086l3.527-0.172l3.27,0.258l1.893,0.516L346.545,140.832z
			 M338.544,145.908c0.083,0.148,0.184,0.292,0.301,0.43c0.688,0.688,1.463,1.033,2.323,1.033c0.975-0.058,1.835-0.43,2.581-1.119
			c0.688-0.746,1.032-1.577,1.032-2.495c0.015-0.236,0-0.465-0.043-0.688c-0.091-0.651-0.393-1.253-0.903-1.807
			c-0.631-0.631-1.435-0.947-2.409-0.947c-0.86,0.058-1.663,0.402-2.409,1.033c-0.336,0.363-0.594,0.75-0.774,1.161l-0.086-0.043
			l-1.377,0.603c-0.286,0.344-0.458,0.746-0.516,1.204c0,0.517,0.172,0.975,0.516,1.377l1.205,0.516L338.544,145.908z"/>
		<path fill-rule="evenodd" clip-rule="evenodd" d="M296.731,144.661c0.181-0.483,0.454-0.957,0.817-1.419
			c0.746-0.688,1.578-1.061,2.495-1.118c0.86,0.057,1.606,0.401,2.237,1.032c0.335,0.436,0.579,0.895,0.731,1.376
			c0.086,0.331,0.129,0.675,0.129,1.033c0,1.032-0.315,1.921-0.946,2.667c-0.688,0.746-1.491,1.061-2.409,0.946
			c-0.918,0.115-1.692-0.172-2.323-0.86c-0.631-0.631-0.946-1.491-0.946-2.581C296.54,145.372,296.611,145.013,296.731,144.661z
			 M338.242,142.51c0.181-0.411,0.438-0.798,0.774-1.161c0.746-0.631,1.549-0.975,2.409-1.033c0.975,0,1.778,0.315,2.409,0.947
			c0.511,0.554,0.813,1.156,0.903,1.807c0.043,0.223,0.058,0.452,0.043,0.688c0,0.918-0.345,1.75-1.032,2.495
			c-0.746,0.688-1.606,1.061-2.581,1.119c-0.86,0-1.635-0.344-2.323-1.033c-0.117-0.139-0.218-0.282-0.301-0.43l0.73-0.344
			c0.345-0.402,0.545-0.832,0.603-1.291c0-0.458-0.172-0.889-0.517-1.29L338.242,142.51z"/>
		<path fill-rule="evenodd" clip-rule="evenodd" fill="#F4AA79" d="M305.549,138.509c0.444,0.157,0.86,0.315,1.248,0.473
			c2.794,1.27,3.813,2.891,3.054,4.861l-1.29-0.86c-0.114-0.172-0.315-0.287-0.603-0.344l-0.258-0.258l-2.495-0.86l-1.075-0.215
			l-0.302-0.043l-6.538,0.344l-1.764,0.603l-1.162,0.43l-0.43,0.086l-0.516,0.258l-0.172,0.086c-0.996,0.496-2.028,1.07-3.097,1.721
			l-0.086,0.172h-0.086c0.058-1.663,1.262-3.212,3.613-4.646l1.764-0.731l0.903-0.387c1.548-0.631,3.04-0.975,4.474-1.033
			l0.774-0.172h0.603l2.667,0.43l0.344-0.086L305.549,138.509z M298.581,151.802l1.376,0.129c0.067-0.005,0.139-0.005,0.215,0
			c0.126-0.028,0.255-0.057,0.388-0.086l1.161-0.172l1.764-0.258l0.688-0.215l4.216-1.419l0.86-0.43l1.893-1.291l0.086-0.086
			l0.172,0.129l0.086,0.043h0.086l-1.634,2.15l-3.184,2.753c-1.09,0.688-2.208,1.09-3.355,1.205l-1.118,0.086
			c-4.13,1.663-7.6,1.291-10.41-1.119c-0.918-0.746-1.75-1.663-2.495-2.753l-1.076-1.936l-0.043-0.043l5.937,2.581l1.634,0.516
			L298.581,151.802z M337.382,140.23h-0.43l-0.603,0.172l-1.549,0.516c-0.344,0.057-0.688,0.229-1.032,0.516l-0.946,0.516
			l-1.291,0.946l-0.043-0.086c-0.674-2.138,0.918-3.916,4.775-5.334l0.43-0.172l0.431-0.086l2.667-0.258l0.043-0.043l0.043-0.043
			h1.032c1.664,0.115,3.327,0.43,4.99,0.946c0.431,0.155,0.861,0.313,1.291,0.473l0.473,0.172l0.817,0.301l1.204,0.516l2.151,3.872
			l-0.086,0.086c-1.205-0.86-2.467-1.548-3.786-2.065l-1.462-0.43l-1.893-0.516l-3.27-0.258l-3.527,0.172L337.382,140.23z
			 M329.467,147.113l0.344-0.172l1.894,1.291l4.043,1.376l5.334,0.86c1.205,0.057,2.668-0.144,4.389-0.602
			c-2.295,1.778-4.445,2.753-6.453,2.925l-1.463,0.086c-2.352-0.287-4.53-1.548-6.538-3.785L329.467,147.113z"/>
		<path fill-rule="evenodd" clip-rule="evenodd" fill="#EBB683" d="M336.35,140.402l0.603-0.172h0.43l-0.603,0.086L336.35,140.402z
			 M351.75,143.241l0.086-0.086l0.172,0.086h-0.086H351.75z"/>
		
			<path fill-rule="evenodd" clip-rule="evenodd" fill="none" stroke="#BD7D23" stroke-width="0.25" stroke-linecap="round" stroke-linejoin="round" stroke-miterlimit="3" d="
			M305.549,138.509l-0.43-0.172l-0.344,0.086l-2.667-0.43h-0.603l-0.774,0.172c-1.434,0.058-2.925,0.402-4.474,1.033l-0.903,0.387
			l-1.764,0.731 M290.063,144.962l0.086-0.172c1.069-0.651,2.101-1.225,3.097-1.721l0.172-0.086l0.516-0.258l0.43-0.086l1.162-0.43
			l1.764-0.603l6.538-0.344l0.302,0.043l1.075,0.215l2.495,0.86l0.258,0.258c0.287,0.057,0.488,0.172,0.603,0.344l1.29,0.86
			 M293.935,142.811l-0.516,0.172 M293.935,142.811l1.506-0.473 M288.17,148.317l0.086,0.086v0.086l5.937,2.581l1.634,0.516
			l2.753,0.215 M306.797,138.982l1.85,0.473l0.688,0.258c1.605,0.803,2.925,1.664,3.957,2.581l1.807,2.409 M304.216,141.392
			l0.387,0.043l3.012,1.032l0.946,0.688c1.032,0.574,1.692,1.147,1.979,1.721c0.194,0.219,0.424,0.434,0.688,0.645l-0.517-0.731
			l-0.86-0.946 M311.701,148.102l0.129-0.129l0.172,0.086l0.43-0.086h0.087l0.602-0.086l0.172-0.129l0.259-0.559l-0.431-0.516
			l-0.602-0.258c-0.371-0.223-0.701-0.452-0.99-0.688l-0.215-0.086l-0.086-0.129c0.092,0.077,0.192,0.149,0.301,0.215l0.99,0.516
			l0.344,0.258h0.258l0.086,0.086c0.173,0.115,0.315,0.258,0.431,0.43v0.172l-0.086,0.258l-0.172,0.258l-0.087,0.043l-0.086,0.215
			l-0.602,0.172h-0.173l-0.602-0.086v0.086h-0.086h-0.086h-0.087h-0.086l-0.086-0.043 M300.56,151.845l1.161-0.172l2.452-0.474
			l4.216-1.419l0.86-0.43l1.893-1.291l0.086-0.086l0.172,0.129l0.259,0.043l0.043-0.043 M289.59,145.392
			c0.151-0.115,0.309-0.229,0.473-0.344v-0.086L289.59,145.392z M288.815,145.951c0.154-0.096,0.312-0.196,0.474-0.301l0.301-0.258
			C289.322,145.585,289.064,145.771,288.815,145.951z M287.912,144.188l4.388-3.355c1.017-0.486,2.035-0.902,3.055-1.247
			 M288.17,148.317l-1.119-0.688c0.148-0.197,0.32-0.398,0.517-0.602c-0.252,0.237-0.481,0.466-0.688,0.688l1.118,0.688
			 M288.299,148.532l-0.301-0.129 M304.173,151.199l-0.688,0.215l-1.764,0.258 M300.56,151.845
			c-0.133,0.029-0.262,0.058-0.388,0.086c-0.076-0.005-0.147-0.005-0.215,0l-1.376-0.129 M287.568,147.027
			c0.373-0.347,0.789-0.705,1.247-1.076 M290.063,144.962l3.183-1.893 M349.685,139.284c0.289,0.161,0.562,0.319,0.817,0.473
			l-0.731-0.559l-2.107-0.731l0.817,0.301 M339.834,136.918l0.043-0.043h1.032c1.664,0.115,3.327,0.43,4.99,0.946
			c0.431,0.155,0.861,0.313,1.291,0.473l0.473,0.172 M346.502,140.746l-1.893-0.516l-3.27-0.258l-3.527,0.172l-0.431,0.086
			l-0.603,0.086 M347.964,141.176l-1.462-0.43 M348.395,141.435l-0.431-0.172l-1.419-0.431 M353.428,146.425l1.505-0.688
			c-0.499-0.5-1.073-1.016-1.721-1.549c-0.405-0.306-0.835-0.621-1.29-0.946h-0.172l-3.27-1.807h-0.086 M347.964,141.176
			l0.431,0.258 M353.212,144.188l-0.516-0.43l-0.774-0.516 M354.072,142.467l-3.57-2.71 M351.75,143.241
			c-1.205-0.86-2.467-1.548-3.786-2.065 M345.47,149.866l1.204-0.344l3.27-1.506L345.47,149.866
			c-1.721,0.458-3.184,0.659-4.389,0.602l-5.334-0.86l-4.043-1.376l-1.894-1.291l-0.344,0.172l-0.344-0.086 M353.557,146.511
			l-3.613,1.505l3.484-1.591 M353.557,146.511l1.376-0.774 M336.264,137.477h-0.172l-0.259,0.086h-0.344l-2.064,0.774h-0.216
			c-0.174,0.059-0.346,0.13-0.516,0.215l-0.388,0.215h-0.086c-1.721,0.746-3.154,1.635-4.302,2.667
			c-0.803,0.688-1.434,1.462-1.893,2.323 M333.209,138.337l-0.301,0.086l-0.215,0.129 M336.35,140.402l-1.549,0.516l1.979-0.603
			L336.35,140.402z M335.489,137.563c-0.871,0.22-1.731,0.507-2.581,0.86l-0.688,0.344 M331.488,142.811
			c-0.39,0.328-0.691,0.644-0.903,0.946l0.946-0.86l1.291-0.946l0.946-0.516c0.344-0.287,0.688-0.459,1.032-0.516 M330.585,143.757
			l-0.86,0.774l-1.204,0.774l-0.688,0.43l-0.43,0.344l0.344,0.774l0.603,0.172h0.774 M328.521,145.306l-0.344,0.172l-0.345,0.258
			 M328.521,145.306l2.064-1.549 M337.124,137.219l2.667-0.258l0.043-0.043C338.936,136.953,338.032,137.054,337.124,137.219z
			 M336.264,137.477l0.43-0.172l0.431-0.086c-0.55,0.088-1.095,0.203-1.635,0.344 M337.382,140.23h-0.43l-0.603,0.172
			 M327.402,146.081v0.43l0.344,0.344 M329.811,146.941l-0.688,0.086"/>
	</g>
	<g>
		
			<path fill-rule="evenodd" clip-rule="evenodd" fill="none" stroke="#DA825C" stroke-width="0.2" stroke-linecap="round" stroke-linejoin="round" stroke-miterlimit="3" d="
			M315.787,155.286c0.345,2.868,0.086,5.392-0.774,7.571c-0.917,2.18-1.09,3.872-0.516,5.076c0.344,0.803,1.09,1.434,2.236,1.893
			 M313.034,167.933c-0.459-0.344-0.889-0.229-1.29,0.344l-1.119,2.667l0.173,0.516l0.688,0.86l1.635,0.43h0.259l-0.173-0.172
			l-0.688-0.946l0.86-0.172l2.408,1.549l0.86,0.43c0.229,0.172,0.459,0.315,0.688,0.43c0.287,0.172,0.573,0.315,0.86,0.43h2.064
			c0.345-0.115,0.688-0.287,1.033-0.517l0.172-0.172l0.172-0.086l0.603-0.172c0.229-0.229,0.459-0.459,0.688-0.688
			c0.573-0.401,1.176-0.717,1.807-0.946l1.032,0.172l-0.345,0.603l-0.43,0.344l0.774,0.086l1.376-0.43
			c0.459-0.229,0.804-0.574,1.033-1.033l0.086-0.086v-0.43c0.114-0.459-0.086-1.032-0.603-1.721l-0.258-0.516
			c-0.746-0.803-1.721-0.946-2.926-0.43 M322.24,173.354l2.322-0.517h0.431 M313.379,172.751l2.408,0.258"/>
	</g>
	<g>
		<g>
			<path fill-rule="evenodd" clip-rule="evenodd" fill="#F4A571" d="M329.811,185.312l-10.237-0.86l-9.292,1.893l-0.258-0.258
				c1.09-0.918,2.093-1.664,3.011-2.237c0.459-0.287,0.946-0.516,1.463-0.688c1.09-0.458,2.122-0.688,3.097-0.688l6.625-0.258
				c0.287,0,0.573,0.086,0.86,0.258c0.517,0.172,1.032,0.401,1.549,0.688c1.032,0.516,2.18,1.205,3.441,2.065L329.811,185.312z"/>
			<path fill-rule="evenodd" clip-rule="evenodd" fill="#601C0B" d="M309.851,186.431l0.431-0.086l1.204,0.344l6.883,0.774
				l5.851-0.43l4.13-0.774l1.462-0.946l0.517,0.172h0.086l0.172,0.086l-0.172,0.258V186l-0.086,0.258l-0.172,1.721l-0.774,2.839
				l-0.86,1.979l-1.463,1.979l-0.774-0.602l-2.839-1.291c-1.146,0.115-2.236,0.545-3.27,1.291h-0.258l-2.667-0.774
				c-1.491,0-2.553,0.746-3.184,2.237c-1.146-0.803-2.036-1.979-2.667-3.527l-1.462-4.646l-0.087-0.43l-0.172-0.516h0.086
				l0.259,0.602v-0.43l-0.173-0.086h0.087L309.851,186.431z"/>
			<polygon fill-rule="evenodd" clip-rule="evenodd" fill="#D8D7B8" points="328.349,186.258 321.38,185.57 313.379,186.345 
				311.485,186.688 310.281,186.345 319.573,184.452 329.811,185.312 			"/>
			<polygon fill-rule="evenodd" clip-rule="evenodd" fill="#FFFFFF" points="311.485,186.688 313.379,186.345 321.38,185.57 
				328.349,186.258 324.219,187.033 318.368,187.463 			"/>
			<path fill-rule="evenodd" clip-rule="evenodd" fill="#FF8484" d="M327.058,194.776c-1.146,1.032-2.638,1.75-4.474,2.151h-0.172
				c-2.409,0.688-4.732,0.487-6.969-0.603l-1.377-0.688c0.631-1.491,1.692-2.237,3.184-2.237l2.667,0.774h0.258
				c1.033-0.746,2.123-1.176,3.27-1.291l2.839,1.291L327.058,194.776z M319.917,194.174l0.946,0.86L319.917,194.174z"/>
			
				<path fill-rule="evenodd" clip-rule="evenodd" fill="none" stroke="#825313" stroke-linecap="round" stroke-linejoin="round" stroke-miterlimit="3" d="
				M329.811,185.312l0.259-0.086c-1.262-0.86-2.409-1.549-3.441-2.065c-0.517-0.287-1.032-0.516-1.549-0.688
				c-0.287-0.172-0.573-0.258-0.86-0.258l-6.625,0.258c-0.975,0-2.007,0.229-3.097,0.688c-0.517,0.172-1.004,0.401-1.463,0.688
				c-0.918,0.573-1.921,1.319-3.011,2.237l0.258,0.258l9.292-1.893L329.811,185.312z M309.679,186.517l0.172,0.516l0.087,0.43
				l1.462,4.646c0.631,1.548,1.521,2.724,2.667,3.527c0.631-1.491,1.692-2.237,3.184-2.237l2.667,0.774h0.258
				c1.033-0.746,2.123-1.176,3.27-1.291l2.839,1.291l0.774,0.602l1.463-1.979l0.86-1.979l0.774-2.839l0.172-1.721l0.086-0.258
				v-0.172l0.172-0.258l-0.172-0.086h-0.086l-0.517-0.172l-1.462,0.946l-4.13,0.774l-5.851,0.43l-6.883-0.774l-1.204-0.344
				l-0.431,0.086 M314.066,195.636l1.377,0.688c2.236,1.09,4.56,1.291,6.969,0.603h0.172c1.836-0.401,3.327-1.119,4.474-2.151
				 M319.917,194.174l0.946,0.86 M326.111,200.368l-1.635,1.118l-2.753,0.688h-0.516l-4.818-0.774"/>
		</g>
	</g>
	
		<use xlink:href="#Symbgol_1"  width="75.491" height="84.949" x="-0.947" y="-83.15" transform="matrix(1.7207 0 0 -1.7207 270.7998 61.9502)" overflow="visible"/>
	
		<use xlink:href="#fg_FLM_x5F_FRAME_x5F_0"  width="130.844" height="122.93" x="21.132" y="-122.68" transform="matrix(1.7207 0 0 -1.7207 189.0498 224.9502)" overflow="visible"/>
	<g>
		<g>
			<path fill-rule="evenodd" clip-rule="evenodd" fill="#77BB63" d="M380.142,224.974c-0.688,12.159-2.668,22.397-5.937,30.714
				c-2.524,6.481-6.08,12.245-10.669,17.292c-4.302,4.875-8.775,8.116-13.421,9.722c-5.162,1.835-8.116,0.458-8.861-4.13
				c-1.721-10.152-6.08-13.909-13.077-11.271c-1.95,0.688-3.385,3.642-4.302,8.862c-0.746,4.417-3.241,6.309-7.485,5.678
				c-4.761-0.688-8.775-2.61-12.045-5.765l-3.484-4.474c-2.891-7.432-3.565-16.093-2.021-25.982l2.279-12.217h0.043
				c1.121-2.02,2.383-3.741,3.786-5.162c1.407-1.407,2.425-2.525,3.054-3.355c0.618-0.831,2.482-2.107,5.593-3.828
				c3.112-1.723,5.622-2.885,7.527-3.484c-6.812,15.98-8.359,28.054-4.646,36.22c4.646,3.728,15.056,1.52,31.23-6.625
				c1.147-0.574,2.266-1.176,3.355-1.807c13.88-8.374,20.849-21.624,20.906-39.748C377.703,207.394,380.428,213.847,380.142,224.974
				z"/>
			
				<path fill-rule="evenodd" clip-rule="evenodd" fill="none" stroke="#3A7B27" stroke-width="0.5" stroke-linecap="round" stroke-linejoin="round" stroke-miterlimit="3" d="
				M301.118,233.405h0.043c1.121-2.02,2.383-3.741,3.786-5.162c1.407-1.407,2.425-2.525,3.054-3.355
				c0.618-0.831,2.482-2.107,5.593-3.828c3.112-1.723,5.622-2.885,7.527-3.484c-6.812,15.98-8.359,28.054-4.646,36.22
				c4.646,3.728,15.056,1.52,31.23-6.625c1.147-0.574,2.266-1.176,3.355-1.807c13.88-8.374,20.849-21.624,20.906-39.748
				c5.735,1.778,8.46,8.23,8.174,19.358"/>
		</g>
	</g>
	<g>
		<path fill-rule="evenodd" clip-rule="evenodd" fill="#FFFFFF" d="M159.763,103.166c-0.001,0.516-0.195,0.975-0.579,1.376
			l-1.328,0.556l-1.177-0.582c-0.332-0.365-0.503-0.781-0.511-1.247c0.051-0.508,0.239-0.942,0.564-1.302l1.328-0.556l1.191,0.506
			C159.633,102.292,159.804,102.707,159.763,103.166z"/>
	</g>
</g>
<g id="Layer_1">
	
		<path fill-rule="evenodd" clip-rule="evenodd" fill="none" stroke="#E29D59" stroke-width="0.5" stroke-linecap="round" stroke-linejoin="round" stroke-miterlimit="3" d="
		M375.409,166.814c-0.058-1.262,0.832-3.04,2.667-5.334c1.893-2.294,3.384-3.441,4.474-3.441c1.147,0,1.75,0.172,1.807,0.517
		c0.058,0.344,0.144,1.376,0.259,3.097"/>
</g>
<g id="Layer_8">
	
		<use xlink:href="#Symbol_23"  width="92.333" height="120.237" x="-0.233" y="-120" transform="matrix(1.7207 0 0 -1.7207 169.5498 109.75)" overflow="visible"/>
</g>
<g id="Layer_9">
	
		<use xlink:href="#Symgbol_9"  width="118.75" height="69.2" y="-69.2" transform="matrix(1.7207 0 0 -1.7207 84.3501 335.25)" overflow="visible"/>
</g>
</svg>
