<?xml version="1.0" encoding="utf-8"?>
<!-- Generator: Adobe Illustrator 16.0.0, SVG Export Plug-In . SVG Version: 6.00 Build 0)  -->
<!DOCTYPE svg PUBLIC "-//W3C//DTD SVG 1.1//EN" "http://www.w3.org/Graphics/SVG/1.1/DTD/svg11.dtd">
<svg version="1.1" xmlns="http://www.w3.org/2000/svg" xmlns:xlink="http://www.w3.org/1999/xlink" x="0px" y="0px" width="600px"
	 height="600px" viewBox="0 0 600 600" enable-background="new 0 0 600 600" xml:space="preserve">
<symbol  id="Duplicate_Items_Folder_x2F_Sgymbol_8" viewBox="-6.194 -102.575 105.611 102.825">
	<g id="Layer_3_1_">
		<path fill-rule="evenodd" clip-rule="evenodd" fill="#579A43" d="M61.925-100.925l-39.2,1.9c-0.421,0.754-0.813,1.529-1.175,2.325
			c-0.733,1.867-1.1,2.817-1.1,2.85c0.966,4.867,1.45,7.533,1.45,8c0,0.233-0.1,0.75-0.3,1.55c-0.2,0.767-0.3,1.283-0.3,1.55
			c0,0.5,0.45,1.033,1.35,1.6c1.2,0.667,2.1,1.217,2.7,1.65C17.45-72.4,11.933-66,8.8-60.3c-3.433,6.333-5.15,13.85-5.15,22.55
			c0,4.533,0.35,8.667,1.05,12.4c0.5,2.8,1,4.6,1.5,5.4c1.533,2.434,2.7,4.184,3.5,5.25c1.633,2.2,2.883,3.3,3.75,3.3
			c0.297,0,1.131-2.317,2.5-6.95c0.058-3.177,0.608-6.094,1.65-8.75l2-2.6c1.9-1.833,4.233-2.95,7-3.35
			c2.467-0.367,3.917,0.733,4.35,3.3c0.496,2.819,1.254,4.502,2.275,5.05c0.979-0.332,1.787-0.982,2.425-1.95
			c0.6-0.867,1.233-2.467,1.9-4.8c0.7-2.333,1.333-3.917,1.9-4.75c0.933-1.466,2.25-2.2,3.95-2.2c7.067,0,12.3,3.233,15.7,9.7
			c1.133,2.133,2.566,5.633,4.3,10.5c1.365,3.854,2.541,7.021,3.525,9.5c4.044-1.432,7.353-4.016,9.925-7.75
			C80.817-22.183,82.8-30.367,82.8-41c0-0.1,0.067-1.583,0.2-4.45c0.1-1.7,0.033-3.183-0.2-4.45c-0.6-3.567-2.783-7.733-6.55-12.5
			c-1.833-2.333-4.583-4.917-8.25-7.75c-3.033-2.4-4.55-3.717-4.55-3.95c1.1,0.434,3,0.1,5.7-1c2.7-1.1,4.05-2.066,4.05-2.9
			c0-0.067-1.284-0.983-3.85-2.75c-2.6-1.733-3.9-2.717-3.9-2.95c0-0.867,1.133-1.633,3.4-2.3c-0.167-0.667-0.65-1.483-1.45-2.45
			c-0.733-0.9-1.1-1.566-1.1-2c0-0.233,0.284-0.55,0.85-0.95c0.567-0.367,0.85-0.8,0.85-1.3c-1.1-2.466-2.8-4.883-5.1-7.25
			C62.58-100.286,62.255-100.611,61.925-100.925z"/>
		<path fill-rule="evenodd" clip-rule="evenodd" fill="#468533" d="M61.925-100.925c0.33,0.313,0.655,0.639,0.975,0.975
			c2.3,2.367,4,4.784,5.1,7.25c0,0.5-0.283,0.934-0.85,1.3c-0.566,0.4-0.85,0.717-0.85,0.95c0,0.434,0.367,1.1,1.1,2
			c0.8,0.967,1.283,1.784,1.45,2.45c-2.267,0.667-3.4,1.433-3.4,2.3c0,0.233,1.3,1.217,3.9,2.95c2.566,1.767,3.85,2.683,3.85,2.75
			c0,0.833-1.35,1.8-4.05,2.9c-2.7,1.1-4.6,1.434-5.7,1c0,0.233,1.517,1.55,4.55,3.95c3.667,2.833,6.417,5.417,8.25,7.75
			c3.767,4.767,5.95,8.933,6.55,12.5c0.233,1.267,0.3,2.75,0.2,4.45c-0.133,2.867-0.2,4.35-0.2,4.45
			c0,10.633-1.983,18.817-5.95,24.55c-2.573,3.734-5.881,6.318-9.925,7.75c-0.984-2.479-2.16-5.646-3.525-9.5
			c-1.733-4.867-3.167-8.367-4.3-10.5c-3.4-6.466-8.633-9.7-15.7-9.7c-1.7,0-3.017,0.733-3.95,2.2c-0.567,0.833-1.2,2.417-1.9,4.75
			c-0.667,2.333-1.3,3.934-1.9,4.8c-0.638,0.968-1.446,1.618-2.425,1.95c0.07,0.039,0.145,0.072,0.225,0.1
			c4.066,1.533,6.6-0.65,7.6-6.55c0.434-2.667,2.15-3.467,5.15-2.4c2.7,0.933,5.3,2.816,7.8,5.65c2.667,2.933,4.733,6.283,6.2,10.05
			C62.1-13.017,63.25-7.067,63.65,0C64.683-0.7,65.8-1.417,67-2.15c5.6-3.333,12.983-6.667,22.15-10
			c5.923-2.37,8.981-6.878,9.175-13.525c0.193-6.636,0.501-14.677,0.925-24.125c0.424-9.458,0.041-20.142-1.15-32.05
			c0.032-9.657-0.626-16.565-1.975-20.725L61.925-100.925z"/>
		<path fill-rule="evenodd" clip-rule="evenodd" fill="#66AF50" d="M22.725-99.025L7.6-98.3c0.058,0.77,0.108,1.536,0.15,2.3v0.05
			c0,0.2,0,0.383,0,0.55c0.233,4.933-0.167,10-1.2,15.2L-2.2-55c-3.286,9.539-4.544,17.797-3.775,24.775S-3.214-17.289,0-12.35
			c0.133,0.033,0.267,0.067,0.4,0.1c4.934,1.8,9.367,3.583,13.3,5.35c1.466,0.933,2.816,1.6,4.05,2L16.4-12
			c-0.348-2.219-0.498-4.335-0.45-6.35c-1.369,4.633-2.203,6.95-2.5,6.95c-0.867,0-2.117-1.1-3.75-3.3
			c-0.8-1.066-1.967-2.816-3.5-5.25c-0.5-0.8-1-2.6-1.5-5.4c-0.7-3.733-1.05-7.867-1.05-12.4c0-8.7,1.717-16.217,5.15-22.55
			c3.133-5.7,8.65-12.1,16.55-19.2c-0.6-0.433-1.5-0.983-2.7-1.65c-0.9-0.567-1.35-1.1-1.35-1.6c0-0.267,0.1-0.783,0.3-1.55
			c0.2-0.8,0.3-1.317,0.3-1.55c0-0.467-0.483-3.133-1.45-8c0-0.033,0.367-0.983,1.1-2.85C21.913-97.496,22.304-98.271,22.725-99.025
			z"/>
		
			<path fill-rule="evenodd" clip-rule="evenodd" fill="none" stroke="#3A7B27" stroke-width="0.5" stroke-linecap="round" stroke-linejoin="round" stroke-miterlimit="3" d="
			M89.15-12.15C79.983-8.817,72.6-5.483,67-2.15C65.8-1.417,64.683-0.7,63.65,0c-0.4-7.067-1.55-13.017-3.45-17.85
			c-1.467-3.767-3.534-7.117-6.2-10.05c-2.5-2.833-5.1-4.717-7.8-5.65c-3-1.067-4.717-0.267-5.15,2.4c-1,5.9-3.533,8.083-7.6,6.55
			c-0.08-0.028-0.155-0.062-0.225-0.1c-1.021-0.547-1.779-2.231-2.275-5.05c-0.434-2.567-1.883-3.667-4.35-3.3
			c-2.767,0.4-5.1,1.517-7,3.35l-2,2.6c-1.042,2.656-1.592,5.573-1.65,8.75c-0.048,2.015,0.102,4.131,0.45,6.35l1.35,7.1
			c-1.233-0.4-2.583-1.067-4.05-2c-3.934-1.767-8.367-3.55-13.3-5.35c-0.133-0.033-0.267-0.067-0.4-0.1"/>
	</g>
</symbol>
<symbol  id="Duplicate_Items_Folder_x2F_Sygmbol_11_FLM_x5F_FRAME_x5F_0" viewBox="-0.5 -84.8 201.55 85.3">
	<g id="Layer_1_2_">
		<g>
			<path fill-rule="evenodd" clip-rule="evenodd" fill="#8D95A3" d="M170.95-15.45l1.1,0.05L168.1-2.6l-15.25-0.1l0.35-1.2h-1.1
				l4-13.1l15.2,0.4L170.95-15.45z M200.3-74.05H5v0.4V-0.8L5.25,0h113.1h12h3h12.9h4.7h15.25h14.35l19.85-73.4l0.05-0.3
				L200.3-74.05z M158.3-20.7h-1.1l5.4-17.95l15.35,0.6l-0.35,1.15l1.1,0.05l-5.4,17.5l-15.35-0.15L158.3-20.7z M186.1-64.5
				l1.1,0.05l-7.1,22.95l-15.3-0.6l0.35-1.15l-1.1-0.05L170.9-66l15.55,0.35L186.1-64.5z M165.65-64.95l1.1,0.05L160-42.3
				l-14.05-0.55L146.3-44l-1.1-0.05l6.05-22.4L166-66.1L165.65-64.95z M151-16l1.1,0.05L148.15-2.7l-13-0.1L135.5-4h-1.1l3.65-13.5
				l13.3,0.35L151-16z M140.4-38.3l1.05,0.05l-4.9,18.6L124.1-19.8l0.3-1.2h-1.05l4.55-18.95l12.8,0.5L140.4-38.3z M140.05-20.85
				h-1.1l5-18.5l13.9,0.55l-0.35,1.15l1.1,0.05l-5.4,18.05l-13.5-0.1L140.05-20.85z M134.65-16.45l1.05,0.05l-3.55,13.55l-12.1-0.05
				l0.3-1.2h-1.05l3.3-13.8l12.35,0.3L134.65-16.45z M130.1-44.65l-1.05-0.05l5.3-22.1l13.45,0.3l-0.3,1.15l1.05,0.05L142.7-43
				l-12.9-0.5L130.1-44.65z M103.5-23.8c-2.633,0.066-3.75-1.184-3.35-3.75l1.95-12.1c0.4-2.567,1.917-3.883,4.55-3.95l10.8-0.4
				c2.633-0.1,3.75,1.133,3.35,3.7l-1.95,12.1c-0.4,2.567-1.917,3.9-4.55,4L103.5-23.8z M101.45-63.2l-9,54.4H14.1v-54.4H101.45z"/>
			<path fill-rule="evenodd" clip-rule="evenodd" fill="#6B7485" d="M153.2-3.9l3.65-11.9l14.1,0.35l0.35-1.15L156.1-17l-4,13.1
				H153.2z M177.6-36.9l0.35-1.15l-15.35-0.6l-5.4,17.95h1.1l5.05-16.75L177.6-36.9z M165.15-43.25l6.5-21.55l14.45,0.3l0.35-1.15
				L170.9-66l-6.85,22.7L165.15-43.25z M165.65-64.95L166-66.1l-14.75-0.35l-6.05,22.4l1.1,0.05l5.7-21.25L165.65-64.95z
				 M130.1-44.65l5-20.95l12.4,0.25l0.3-1.15l-13.45-0.3l-5.3,22.1L130.1-44.65z M135.5-4l3.3-12.3L151-16l0.35-1.15l-13.3-0.35
				L134.4-4H135.5z M157.5-37.65l0.35-1.15l-13.9-0.55l-5,18.5h1.1l4.65-17.3L157.5-37.65z M124.4-21l4.25-17.75l11.75,0.45
				l0.3-1.15l-12.8-0.5L123.35-21H124.4z M120.35-4.1l3-12.6l11.3,0.25l0.3-1.15l-12.35-0.3l-3.3,13.8H120.35z"/>
			<path fill-rule="evenodd" clip-rule="evenodd" fill="#475162" d="M170.95-15.45l-14.1-0.35L153.2-3.9l-0.35,1.2l15.25,0.1
				l3.95-12.8L170.95-15.45z M186.1-64.5l-14.45-0.3l-6.5,21.55l-0.35,1.15l15.3,0.6l7.1-22.95L186.1-64.5z M158.3-20.7l-0.35,1.2
				l15.35,0.15l5.4-17.5l-1.1-0.05l-14.25-0.55L158.3-20.7z M130.1-44.65l-0.3,1.15l12.9,0.5l5.85-22.3l-1.05-0.05l-12.4-0.25
				L130.1-44.65z M165.65-64.95L152-65.25L146.3-44l-0.35,1.15L160-42.3l6.75-22.6L165.65-64.95z M151-16l-12.2-0.3L135.5-4
				l-0.35,1.2l13,0.1l3.95-13.25L151-16z M124.4-21l-0.3,1.2l12.45,0.15l4.9-18.6l-1.05-0.05l-11.75-0.45L124.4-21z M157.5-37.65
				l-12.8-0.5l-4.65,17.3l-0.35,1.2l13.5,0.1l5.4-18.05L157.5-37.65z M134.65-16.45l-11.3-0.25l-3,12.6l-0.3,1.2l12.1,0.05
				l3.55-13.55L134.65-16.45z M103.5-23.8l10.8-0.4c2.633-0.1,4.15-1.433,4.55-4l1.95-12.1c0.4-2.567-0.716-3.8-3.35-3.7l-10.8,0.4
				c-2.633,0.067-4.15,1.383-4.55,3.95l-1.95,12.1C99.75-24.983,100.867-23.733,103.5-23.8z"/>
			<path fill-rule="evenodd" clip-rule="evenodd" fill="#B3BBC9" d="M200.3-74.05l0.15,0.35l0.1-0.35H200.3z M5.25,0L5-0.8V0H5.25z"
				/>
			<polygon fill-rule="evenodd" clip-rule="evenodd" fill="#525962" points="0.1,-84.05 5,-73.65 5,-74.05 200.3,-74.05 
				196.05,-84.3 			"/>
			<polygon fill-rule="evenodd" clip-rule="evenodd" fill="#6A717B" points="5,-73.65 0.1,-84.05 0,-84.05 0,-16.3 5,-0.8 			"/>
			
				<path fill-rule="evenodd" clip-rule="evenodd" fill="none" stroke="#151414" stroke-linecap="round" stroke-linejoin="round" stroke-miterlimit="3" stroke-opacity="0.4" d="
				M5.25,0h113.1h12h3h12.9h4.7h15.25h14.35l19.85-73.4l0.05-0.3l0.1-0.35h-0.25l-4.25-10.25L0.1-84.05H0v67.75L5-0.8V0H5.25L5-0.8
				v-72.85v-0.4h195.3l0.15,0.35 M5-73.65l-4.9-10.4"/>
		</g>
		
			<use xlink:href="#Duplicate_Items_Folder_x2F_Symbgol_10"  width="87.35" height="54.4" y="-54.4" transform="matrix(1 0 0 1 14.1001 -8.7998)" overflow="visible"/>
	</g>
	<g id="Layer_2_2_">
	</g>
	<g id="Layer_3_11_">
	</g>
	<g id="Layer_4_1_">
	</g>
</symbol>
<symbol  id="Duplicate_Items_Folder_x2F_Sygmbol_12" viewBox="-0.02 -23.95 8.97 23.96">
	<path fill-rule="evenodd" clip-rule="evenodd" fill="#2E4F74" d="M7.7-7.8C7.333-7.933,6.833-8.017,6.2-8.05
		C5.4-8.083,4.933-8.167,4.8-8.3v-1.8c0-0.7,0.534-2.783,1.6-6.25c0.167,0.033,0.35,0.067,0.55,0.1c0.767,0.1,1.35-0.067,1.75-0.5
		v0.05c0.1-0.1,0.183-0.183,0.25-0.25v-6.15c-0.233-0.233-0.517-0.4-0.85-0.5c-0.133-0.066-0.35-0.183-0.65-0.35H4.7
		c-2.2,0.1-3.617,2.3-4.25,6.6c-0.267,1.767-0.4,4.8-0.4,9.1c-0.167,1.9-0.033,3.6,0.4,5.1C1.317-0.383,3.733,0.567,7.7-0.3V-7.8z"
		/>
</symbol>
<symbol  id="Duplicate_Items_Folder_x2F_Sygmbol_14" viewBox="0 -12.225 20.475 12.225">
	<path fill-rule="evenodd" clip-rule="evenodd" fill="#2E4F74" d="M20.475-3.525l-1.3-1.8C19.081-5.235,18.99-5.144,18.9-5.05
		C17-3.15,14.717-2.2,12.05-2.2c-2.667,0-4.966-0.95-6.9-2.85c-1.9-1.934-2.85-4.233-2.85-6.9c0-0.09,0-0.182,0-0.275L0-11.9
		c0.022,3.256,1.189,6.056,3.5,8.4C5.867-1.167,8.7,0,12,0s6.117-1.167,8.45-3.5L20.475-3.525z"/>
</symbol>
<symbol  id="Duplicate_Items_Folder_x2F_Sygmbol_17" viewBox="0 -18.95 126.75 18.95">
	<g id="Layer_3_2_">
		<polygon fill-rule="evenodd" clip-rule="evenodd" fill="#9C9C9C" points="84.6,-13.9 125,-2.55 126.75,-2.05 126.75,-7.05 
			84.35,-18.95 83.8,-18.95 82.55,-14.5 		"/>
		<polygon fill-rule="evenodd" clip-rule="evenodd" fill="#484848" points="82.55,-14.5 83.8,-18.95 0,-13.3 0,-9.7 		"/>
		<polygon fill-rule="evenodd" clip-rule="evenodd" fill="#838383" points="125,-2.55 84.6,-13.9 78.15,0 		"/>
	</g>
</symbol>
<symbol  id="Duplicate_Items_Folder_x2F_Sygmbol_2" viewBox="-0.4 -6.263 13.05 6.863">
	<g id="Layer_3_3_">
		<polygon fill-rule="evenodd" clip-rule="evenodd" fill="#601C0B" points="1.05,-2.5 2.15,-2.3 6.8,-1.85 10.85,-2.25 8.45,-2.7 
			5.05,-2.95 		"/>
		<polygon fill-rule="evenodd" clip-rule="evenodd" fill="#D8D7B8" points="10.85,-2.25 6.8,-1.85 2.15,-2.3 1.05,-2.5 0.35,-2.3 
			5.75,-1.2 11.7,-1.7 		"/>
		<path fill-rule="evenodd" clip-rule="evenodd" fill="#F4A571" d="M11.7-1.7L5.75-1.2l-5.4-1.1l0.7-0.2l4-0.45l3.4,0.25l2.4,0.45
			L11.7-1.7L12-1.8h0.05l0.1-0.05L12.05-2v-0.1L12-2.25V-2.3c-0.646-1.797-1.445-2.881-2.4-3.25C8.733-5.85,6.567-5.833,3.1-5.5
			C2.2-5.467,1.45-4.95,0.85-3.95C0.632-3.586,0.457-3.228,0.325-2.875C0.276-2.777,0.234-2.677,0.2-2.575V-2.5H0.175L0.1-2.45h0.05
			L0.1-2.35L0.35-2.3L0.2-2.15c0.633,0.533,1.216,0.967,1.75,1.3c0.267,0.167,0.55,0.3,0.85,0.4c0.633,0.267,1.233,0.4,1.8,0.4
			L8.45,0.1c0.167,0,0.333-0.05,0.5-0.15c0.3-0.1,0.6-0.233,0.9-0.4c0.6-0.3,1.267-0.7,2-1.2L11.7-1.7z"/>
		
			<path fill-rule="evenodd" clip-rule="evenodd" fill="none" stroke="#825313" stroke-linecap="round" stroke-linejoin="round" stroke-miterlimit="3" d="
			M0.35-2.3L0.1-2.35l0.05-0.1H0.1L0.175-2.5H0.2v-0.075c0.034-0.102,0.076-0.202,0.125-0.3C0.457-3.228,0.632-3.586,0.85-3.95
			c0.6-1,1.35-1.517,2.25-1.55c3.467-0.333,5.633-0.35,6.5-0.05c0.955,0.369,1.754,1.453,2.4,3.25v0.05l0.05,0.15V-2l0.1,0.15
			l-0.1,0.05H12l-0.3,0.1l-0.85-0.55L8.45-2.7l-3.4-0.25l-4,0.45L0.35-2.3z M11.7-1.7l0.15,0.05c-0.733,0.5-1.4,0.9-2,1.2
			c-0.3,0.167-0.6,0.3-0.9,0.4C8.783,0.05,8.617,0.1,8.45,0.1L4.6-0.05c-0.567,0-1.167-0.133-1.8-0.4c-0.3-0.1-0.583-0.233-0.85-0.4
			C1.417-1.183,0.833-1.617,0.2-2.15L0.35-2.3l5.4,1.1L11.7-1.7z M0.1-2.45V-2.7l0.225-0.175 M0.1-2.35v-0.1"/>
	</g>
</symbol>
<symbol  id="Duplicate_Items_Folder_x2F_Sygmbol_3" viewBox="-0.235 -26.05 55.435 26.308">
	<g id="Layer_3_4_">
		<path fill-rule="evenodd" clip-rule="evenodd" fill="#579A43" d="M0.9-19.525c4.833,2.295,12.466,5.087,22.9,8.375
			c10.756,3.375,18.806,5.617,24.15,6.725c2.159-1.377,4.492-3.085,7-5.125c-1.233-4.367-5.684-8.35-13.35-11.95
			c-2.533-1.2-5.283-2.267-8.25-3.2l-3.7-1.1l-22.9,0.95C3.89-23.004,1.94-21.229,0.9-19.525z"/>
		<path fill-rule="evenodd" clip-rule="evenodd" fill="#66AF50" d="M47.95-4.425c-5.345-1.108-13.395-3.35-24.15-6.725
			c-10.434-3.288-18.067-6.08-22.9-8.375c-2.576,4.222,0.474,7.997,9.15,11.325c7.633,2.934,13.317,4.95,17.05,6.05
			c1.9,0.566,3.017,0.833,3.35,0.8L32-0.75c1.3,0.433,2.667,0.683,4.1,0.75c2.3,0.1,5.083-0.7,8.35-2.4
			C45.562-2.968,46.729-3.643,47.95-4.425z"/>
		
			<path fill-rule="evenodd" clip-rule="evenodd" fill="none" stroke="#3A7B27" stroke-width="0.5" stroke-linecap="round" stroke-linejoin="round" stroke-miterlimit="3" d="
			M54.95-9.55c-1.233-4.367-5.684-8.35-13.35-11.95c-2.533-1.2-5.283-2.267-8.25-3.2l-3.7-1.1l-22.9,0.95
			c-2.86,1.846-4.81,3.621-5.85,5.325c-2.576,4.222,0.474,7.997,9.15,11.325c7.633,2.934,13.317,4.95,17.05,6.05
			c1.9,0.566,3.017,0.833,3.35,0.8L32-0.75c1.3,0.433,2.667,0.683,4.1,0.75c2.3,0.1,5.083-0.7,8.35-2.4"/>
	</g>
</symbol>
<symbol  id="Duplicate_Items_Folder_x2F_Sygmbol_4" viewBox="-0.268 -23.43 58.568 23.704">
	<g id="Layer_3_5_">
		<g>
			<path fill-rule="evenodd" clip-rule="evenodd" fill="#ECA865" d="M51.5-2.75c4.967-3.2,7.15-7.133,6.55-11.8
				c-2.9-1.7-6.566-3.034-11-4c-3.1-0.667-7.933,0.383-14.5,3.15L20.8-22.3c-2.6-1.467-3.517-1.1-2.75,1.1l6.05,6.1
				c0.066,2.333-0.617,3.05-2.05,2.15l-8.7-8.6c-3.267-0.967-4.4-0.25-3.4,2.15l7,6.25c2.2,2.133,2.667,3.2,1.4,3.2
				c-0.867-0.433-1.7-0.9-2.5-1.4c-3.2-1.867-6.1-4.217-8.7-7.05c-3.3-1.3-4.316-0.583-3.05,2.15c1.633,1.633,3.25,3.067,4.85,4.3
				c1.6,1.3,3.167,2.4,4.7,3.3c1.533,0.933,2.133,1.517,1.8,1.75c-0.333,0.267-1.583,0.217-3.75-0.15L2.6-14.9
				c-2.833-0.8-3.367,0.183-1.6,2.95c1.6,1.8,3.1,3.25,4.5,4.35c2.9,2.3,5.017,3.767,6.35,4.4c0.867,0.434,2.267,0.9,4.2,1.4
				c0.967,0.267,2.067,0.533,3.3,0.8c3.7,0.867,7.066,1.183,10.1,0.95c3-0.233,5.95-0.8,8.85-1.7c2.867-0.9,5.917-1.35,9.15-1.35
				C47.883-3.1,49.233-2.983,51.5-2.75z"/>
			
				<path fill-rule="evenodd" clip-rule="evenodd" fill="none" stroke="#C98949" stroke-width="0.5" stroke-linecap="round" stroke-linejoin="round" stroke-miterlimit="3" d="
				M51.5-2.75c-2.267-0.233-3.617-0.35-4.05-0.35c-3.233,0-6.284,0.45-9.15,1.35c-2.9,0.9-5.85,1.467-8.85,1.7
				c-3.034,0.233-6.4-0.083-10.1-0.95c-1.233-0.267-2.333-0.533-3.3-0.8c-1.933-0.5-3.333-0.967-4.2-1.4
				C10.517-3.833,8.4-5.3,5.5-7.6C4.1-8.7,2.6-10.15,1-11.95c-1.767-2.767-1.233-3.75,1.6-2.95l9.1,7.85
				c2.167,0.367,3.417,0.417,3.75,0.15c0.333-0.233-0.267-0.817-1.8-1.75c-1.533-0.9-3.1-2-4.7-3.3c-1.6-1.233-3.217-2.667-4.85-4.3
				c-1.267-2.733-0.25-3.45,3.05-2.15c2.6,2.833,5.5,5.183,8.7,7.05c0.8,0.5,1.633,0.967,2.5,1.4c1.267,0,0.8-1.066-1.4-3.2l-7-6.25
				c-1-2.4,0.133-3.117,3.4-2.15l8.7,8.6c1.434,0.9,2.117,0.184,2.05-2.15l-6.05-6.1c-0.767-2.2,0.15-2.566,2.75-1.1l11.75,6.9
				c6.567-2.767,11.4-3.817,14.5-3.15c4.434,0.966,8.1,2.3,11,4"/>
		</g>
	</g>
</symbol>
<symbol  id="Duplicate_Items_Folder_x2F_Sygmbol_5" viewBox="-0.268 -30.38 121.968 30.38">
	<g id="Layer_3_6_">
		<path fill-rule="evenodd" clip-rule="evenodd" fill="#579A43" d="M104.45-3.5c0.185,0.041,0.368,0.083,0.55,0.125
			c4.72-2.422,10.203-7.397,16.45-14.925c-2.2-3.534-6.983-5.4-14.35-5.6l-50-1.85c1.267,0.533,1.566,2.983,0.9,7.35
			c-0.352,2.304-1.31,4.362-2.875,6.175c1.382,0.639,3.491,1.614,6.325,2.925c5.5,2.133,10.566,3.333,15.2,3.6
			c3.8,0.2,9.967,0.5,18.5,0.9c3.595,0.298,6.687,0.731,9.275,1.3c0.153-0.103,0.32-0.211,0.5-0.325
			C104.751-3.709,104.593-3.601,104.45-3.5z"/>
		<path fill-rule="evenodd" clip-rule="evenodd" fill="#3E772D" d="M55.125-12.225C56.69-14.038,57.648-16.096,58-18.4
			c0.667-4.367,0.367-6.817-0.9-7.35c-7.167,4.033-10.783,8.117-10.85,12.25c-0.033,2.433,1.033,4.3,3.2,5.6
			C51.828-9.144,53.72-10.586,55.125-12.225z"/>
		<path fill-rule="evenodd" clip-rule="evenodd" fill="#66AF50" d="M104.45-3.5c-0.831,0.575-1.223,0.875-1.175,0.9
			c0.567-0.219,1.142-0.477,1.725-0.775C104.818-3.417,104.635-3.459,104.45-3.5z M55.125-12.225
			C53.72-10.586,51.828-9.144,49.45-7.9c1.333,0.8,3.1,1.383,5.3,1.75c7.2,1.267,16.517,2.5,27.95,3.7L96.6,0
			c4.938-1.485,7.138-2.344,6.6-2.575c-0.062-0.024,0.346-0.333,1.225-0.925c-2.588-0.569-5.68-1.002-9.275-1.3
			c-8.533-0.4-14.7-0.7-18.5-0.9c-4.633-0.267-9.7-1.466-15.2-3.6C58.616-10.611,56.507-11.586,55.125-12.225z"/>
		
			<path fill-rule="evenodd" clip-rule="evenodd" fill="none" stroke="#3A7B27" stroke-width="0.5" stroke-linecap="round" stroke-linejoin="round" stroke-miterlimit="3" d="
			M121.45-18.3c-2.2-3.534-6.983-5.4-14.35-5.6l-50-1.85c-7.167,4.033-10.783,8.117-10.85,12.25c-0.033,2.433,1.033,4.3,3.2,5.6
			c1.333,0.8,3.1,1.383,5.3,1.75c7.2,1.267,16.517,2.5,27.95,3.7 M55.125-12.225C53.72-10.586,51.828-9.144,49.45-7.9 M57.1-25.75
			c1.267,0.533,1.566,2.983,0.9,7.35c-0.352,2.304-1.31,4.362-2.875,6.175"/>
	</g>
	
		<use xlink:href="#Duplicate_Items_Folder_x2F_Sygmbol_4"  width="58.568" height="23.704" x="-0.268" y="-23.43" transform="matrix(1 0 0 1 0 -6.9502)" overflow="visible"/>
</symbol>
<symbol  id="Duplicate_Items_Folder_x2F_Sygmbol_6" viewBox="-0.25 -84.75 25.573 85">
	<g id="Layer_3_7_">
		<path fill-rule="evenodd" clip-rule="evenodd" fill="#579A43" d="M24.5-36.1c0.4-3.967,0.567-14.717,0.5-32.25
			c-0.367,10.4-1.633,20.75-3.8,31.05c2.167-10.3,3.433-20.65,3.8-31.05c0.133-4.867,0.083-9.767-0.15-14.7c0-0.167,0-0.35,0-0.55
			v-0.05c-0.067-0.267-0.133-0.55-0.2-0.85c-5.164,0.474-9.364,0.849-12.6,1.125c0.217,0.816,0.4,1.574,0.55,2.275
			c0.5,2.3,0.75,4.8,0.75,7.5c0,7.3-1,14.283-3,20.95c-2,6.667-3,11.75-3,15.25c0,5.867,0.566,11.417,1.7,16.65
			c1.467,6.833,3.517,10.25,6.15,10.25c1.933,0,3.267-0.25,4-0.75c0.708-0.483,1.758-1.758,3.15-3.825
			c0.016-0.081,0.033-0.165,0.05-0.25c0.139-0.707,0.272-1.432,0.4-2.175C23.933-24,24.5-30.2,24.5-36.1z"/>
		<path fill-rule="evenodd" clip-rule="evenodd" fill="#66AF50" d="M22.35-15.075c-1.392,2.067-2.442,3.342-3.15,3.825
			c-0.733,0.5-2.067,0.75-4,0.75c-2.633,0-4.684-3.417-6.15-10.25c-1.133-5.233-1.7-10.783-1.7-16.65c0-3.5,1-8.583,3-15.25
			c2-6.667,3-13.65,3-20.95c0-2.7-0.25-5.2-0.75-7.5c-0.15-0.701-0.333-1.459-0.55-2.275c-2.911,0.255-5.044,0.43-6.4,0.525
			c-2.867,0.233-4.7,1.1-5.5,2.6v3.95L0-24.9c0,0.367,0,0.733,0,1.1C0.2-10.3,5.9-2.367,17.1,0
			C19.325-3.678,21.075-8.704,22.35-15.075z"/>
		
			<path fill-rule="evenodd" clip-rule="evenodd" fill="none" stroke="#3A7B27" stroke-width="0.5" stroke-linecap="round" stroke-linejoin="round" stroke-miterlimit="3" d="
			M24.65-84.5c0.067,0.3,0.133,0.583,0.2,0.85v0.05c0,0.2,0,0.383,0,0.55c0.233,4.933,0.283,9.833,0.15,14.7
			c-0.367,10.4-1.633,20.75-3.8,31.05 M17.1,0C5.9-2.367,0.2-10.3,0-23.8c0-0.367,0-0.733,0-1.1l0.15-51.4 M24.5-36.1
			c0.4-3.967,0.567-14.717,0.5-32.25"/>
	</g>
</symbol>
<symbol  id="Duplicate_Items_Folder_x2F_Sygmbol_7" viewBox="-0.234 -98.701 31.084 98.951">
	<g id="Layer_3_8_">
		<path fill-rule="evenodd" clip-rule="evenodd" fill="#579A43" d="M25.625-98.375c-7.603,0.416-13.169,2.316-16.7,5.7
			C8.494-90.897,8.119-89.022,7.8-87.05C6.933-81.783,6.5-74.167,6.5-64.2c0,5.4,0.15,11.034,0.45,16.9
			c0.267,5.867,0.4,9.3,0.4,10.3L7.1-32.15c-1.067-0.667-1.9-1.517-2.5-2.55c-0.367-0.566-1.15-0.85-2.35-0.85
			c-0.712,0-1.362,0.525-1.95,1.575c0.014,0.292,0.03,0.583,0.05,0.875c0.744,5.518,1.994,11.151,3.75,16.9h0.1
			c0.8,0.4,1.517,0.6,2.15,0.6c4.867,0,8.517-3.05,10.95-9.15c1.9-4.667,2.85-10.167,2.85-16.5c0-4.033-0.233-8.8-0.7-14.3
			c-0.467-5.5-0.7-8.934-0.7-10.3c0-2.2,1.183-7.483,3.55-15.85C24.079-87.99,25.188-93.548,25.625-98.375z"/>
		<path fill-rule="evenodd" clip-rule="evenodd" fill="#468533" d="M4.1-16.2c0.129,0.433,0.262,0.866,0.4,1.3
			C6.533-8.5,8.817-3.533,11.35,0c0.1-0.033,0.183-0.067,0.25-0.1C23.067-2.367,28.9-10.333,29.1-24c0-0.367,0-0.733,0-1.1
			l1.5-67.95c0-2.1-0.467-3.9-1.4-5.4c-1.236-0.005-2.427,0.02-3.575,0.075C25.188-93.548,24.079-87.99,22.3-81.7
			c-2.367,8.367-3.55,13.65-3.55,15.85c0,1.367,0.233,4.8,0.7,10.3c0.466,5.5,0.7,10.267,0.7,14.3c0,6.333-0.95,11.833-2.85,16.5
			c-2.433,6.1-6.083,9.15-10.95,9.15c-0.633,0-1.35-0.2-2.15-0.6H4.1z"/>
		<path fill-rule="evenodd" clip-rule="evenodd" fill="#66AF50" d="M8.925-92.675C6.17-90.045,4.646-86.52,4.35-82.1v22.5
			C0.722-56.985-0.628-48.443,0.3-33.975c0.588-1.05,1.238-1.575,1.95-1.575c1.2,0,1.983,0.283,2.35,0.85
			c0.6,1.034,1.433,1.883,2.5,2.55L7.35-37c0-1-0.133-4.433-0.4-10.3C6.65-53.167,6.5-58.8,6.5-64.2c0-9.966,0.433-17.583,1.3-22.85
			C8.119-89.022,8.494-90.897,8.925-92.675z M4.35-59.6v16.5V-59.6z"/>
		
			<path fill-rule="evenodd" clip-rule="evenodd" fill="none" stroke="#3A7B27" stroke-width="0.5" stroke-linecap="round" stroke-linejoin="round" stroke-miterlimit="3" d="
			M25.625-98.375c1.148-0.055,2.339-0.08,3.575-0.075c0.933,1.5,1.4,3.3,1.4,5.4L29.1-25.1c0,0.367,0,0.733,0,1.1
			C28.9-10.333,23.067-2.367,11.6-0.1c-0.067,0.033-0.15,0.067-0.25,0.1 M0.3-33.975c0.014,0.292,0.03,0.583,0.05,0.875
			 M8.925-92.675c3.531-3.384,9.098-5.284,16.7-5.7 M8.925-92.675C6.17-90.045,4.646-86.52,4.35-82.1v22.5
			C0.722-56.985-0.628-48.443,0.3-33.975 M4.35-59.6v16.5"/>
	</g>
</symbol>
<symbol  id="Duplicate_Items_Folder_x2F_Symbgol_1" viewBox="-0.947 -83.05 75.491 84.849">
	<g id="Layer_3_9_">
		<path fill-rule="evenodd" clip-rule="evenodd" fill="#1C1B1B" d="M3.5-18.25c0.036,0.079,0.07,0.154,0.1,0.225
			c0.125,0.256,0.25,0.506,0.375,0.75C8.884-7.712,14.342-2.013,20.35-0.175c0.519,0.158,1.019,0.308,1.5,0.45
			c-0.067-0.042-0.133-0.084-0.2-0.125c-0.167-0.133-0.316-0.283-0.45-0.45c-2.2-0.8-4.233-1.917-6.1-3.35
			c-3.167-2.533-5.817-5.567-7.95-9.1c-1.1-1.806-2.258-3.564-3.475-5.275C4.133-17.492,4.658-16.95,5.25-16.4
			c0.5,0.5,0.867,1.066,1.1,1.7c1.867,2.133,3.95,4.05,6.25,5.75c1.7,1.267,3.533,2.284,5.5,3.05c-1.8-0.967-3.367-2.167-4.7-3.6
			c-0.167-0.167-0.4-0.3-0.7-0.4l0.75,0.15c-0.467-0.7-1.233-1.533-2.3-2.5c-0.267-0.233-0.533-0.433-0.8-0.6l-0.75-1.4
			c2.167,2.567,4.767,4.8,7.8,6.7c2.333,1.466,4.533,3,6.6,4.6C22.924-3.091,21.799-3.441,20.625-4
			c0.136,0.162,0.228,0.361,0.275,0.6c0.033,0.2,0.083,0.35,0.15,0.45c-0.767,0-1.466-0.117-2.1-0.35
			c-0.133-0.067-0.15-0.184-0.05-0.35l0.025-0.025C18.68-3.695,18.138-3.887,17.3-4.25c-0.433-0.233-0.933-0.517-1.5-0.85
			c-0.04-0.013-0.081-0.03-0.125-0.05C19.051-3.201,22.592-1.018,26.3,1.4c2.397,0.497,3.864,0.53,4.4,0.1
			c0.139-0.11,0.48-0.202,1.025-0.275C29.366-1.063,28.724-3.822,29.8-7.05c0.6-1.733,1.684-3.15,3.25-4.25
			c0.115-0.074,0.223-0.149,0.325-0.225c0.615-1.655,1.423-3.297,2.425-4.925l-4.2,3.75c-0.133-0.4-0.05-0.833,0.25-1.3
			c0.033-0.067,0.05-0.15,0.05-0.25c-0.033-0.333-0.233-0.433-0.6-0.3c-0.233-0.034-0.433-0.034-0.6,0
			c1.8-4.9,4.95-9.217,9.45-12.95c0.8-0.667,1.667-1.167,2.6-1.5c0.167,0.067,0.333,0.067,0.5,0c0.2,0.1,0.3,0.05,0.3-0.15
			c-2.433,0.333-4.917,1.316-7.45,2.95c-1.333,1.967-2.85,3.65-4.55,5.05c-0.033,0.033-0.066,0.05-0.1,0.05
			c-2.034,1.434-3.367,3.45-4,6.05l0.3,1.25c-0.734-1.916-1.109-3.875-1.125-5.875c-2.24,0.117-4.298-0.858-6.175-2.925
			c0.4,0.5,0.85,1.083,1.35,1.75c0.034,0.067,0.05,0.15,0.05,0.25c-2.867-2.133-5.533-4.433-8-6.9c-1.7-1.7-2.967-3.533-3.8-5.5
			c0.716,3.476,2.042,6.476,3.975,9c4.386,2.112,8.061,4.995,11.025,8.65c0.534,0.667,1.167,1.333,1.9,2l0.45,0.8
			c-1.533-0.434-3.083-1.15-4.65-2.15c1.067,1.034,1.967,2.1,2.7,3.2l-0.05,0.05l-1.25-0.5c0.833,0.467,1.867,1.2,3.1,2.2
			c0.1,0.1,0.2,0.2,0.3,0.3v0.6c0.434,0.7,0.767,1.45,1,2.25c0.133,0.4,0.267,0.783,0.4,1.15L28-5.75c-1.5-0.733-3.1-1.967-4.8-3.7
			c-1.1-1.1-2.184-2.083-3.25-2.95c0.533,0.1,0.983,0.233,1.35,0.4c0.2,0.1,0.434,0.117,0.7,0.05L21.65-13l0.65-0.95
			c-0.4-0.5-0.7-0.983-0.9-1.45c-0.1-0.2-0.117-0.333-0.05-0.4c0.2-0.2,0.316-0.467,0.35-0.8c0-0.066-0.017-0.267-0.05-0.6
			c-0.333-0.667-0.783-1.233-1.35-1.7c-1.617-1.917-3.675-3.575-6.175-4.975c0.473,0.6,0.981,1.175,1.525,1.725
			c-0.9-0.697-1.717-1.439-2.45-2.225c-0.383-0.158-0.817-0.349-1.3-0.575c0.431,0.175,0.855,0.358,1.275,0.55
			c-2.239-2.418-3.647-5.235-4.225-8.45l0.5,3.7C7.417-32.417,6.567-36.067,6.9-40.1c0.333-3.867,1.133-7.533,2.4-11
			c0.136-0.805,0.286-1.588,0.45-2.35c-0.591,0.329-1.166,0.704-1.725,1.125c-0.339,0.87-0.747,1.728-1.225,2.575v0.5
			c-1.181,2.17-1.873,4.52-2.075,7.05c0.038-0.787,0.063-1.587,0.075-2.4c0-0.566-0.1-0.983-0.3-1.25c-0.3-0.1-0.467-0.1-0.5,0
			c0,0.067,0,0.117,0,0.15c-0.167,2.633-0.383,5.267-0.65,7.9c-0.02,0.1-0.037,0.191-0.05,0.275c0.085,1.134,0.319,2.226,0.7,3.275
			c0.167,0.533,0.317,1,0.45,1.4c0.058,0.232,0.149,0.466,0.275,0.7c-1.062-1.736-1.887-3.52-2.475-5.35
			C2.183-37.733,2.1-37.883,2-37.95l0.8,8.05l-0.3-0.725l0.075,1c1.109,1.471,2.209,2.946,3.3,4.425L5.85-25.25
			c0-0.033,0-0.083,0-0.15c0.031,0.1,0.064,0.2,0.1,0.3c0.248,0.353,0.498,0.702,0.75,1.05c0.066,0.1,0.1,0.267,0.1,0.5l-0.45-0.375
			c1.681,4.459,4.464,7.984,8.35,10.575c0.167,0.1,0.316,0.167,0.45,0.2c-0.967-0.667-1.833-1.5-2.6-2.5
			c-0.066-0.1-0.117-0.2-0.15-0.3l1.05,0.15c-0.8-0.967-1.6-2.05-2.4-3.25C11.017-19.083,11-19.133,11-19.2l0.3-0.8
			c-0.633-1.6-1.417-3.1-2.35-4.5c-0.8-2.067-2.133-3.917-4-5.55c-0.267-0.267-0.483-0.467-0.65-0.6
			c5.567,3.667,10.517,8.333,14.85,14c0.667,0.867,1.15,1.816,1.45,2.85c-2.367-1.8-4.75-3.967-7.15-6.5
			c1.1,1.533,2.233,3.283,3.4,5.25c0.066,0.133,0.133,0.25,0.2,0.35l-1.4-0.5l2.15,1.7c0.1,0.267-0.05,0.533-0.45,0.8
			c-0.067,0.067-0.117,0.117-0.15,0.15c1.267,1.133,2.583,2.466,3.95,4c1.4,1.566,3.067,2.867,5,3.9
			c0.633,0.367,1.15,0.833,1.55,1.4l2.35,4.8c-2.066-3.667-4.9-6.383-8.5-8.15c-1.8-0.9-3.55-1.9-5.25-3
			c-1.5-0.967-3.017-2.1-4.55-3.4c-2.275-3.532-4.091-7.19-5.45-10.975l-3.5-3.05l0.075,0.75L4.65-23.1
			c-0.649-0.409-1.182-0.842-1.6-1.3v0.05C4.018-23.005,5.034-21.556,6.1-20c0.8,1.2,1.667,2.367,2.6,3.5
			c0.8,0.933,1.466,1.783,2,2.55c-1.367-1.066-2.717-2.466-4.05-4.2c-1.133-1.333-2.233-2.783-3.3-4.35
			c-0.044-0.059-0.094-0.134-0.15-0.225l0.4,4.6C3.563-18.165,3.53-18.206,3.5-18.25z M34.275,1.05
			c0.44-0.006,1.082,0.027,1.925,0.1c0.504,0.035,1.004,0.06,1.5,0.075c2.253-2.279,4.669-4.287,7.25-6.025
			c-1.666,0.074-3.266,0.549-4.8,1.425c-0.073,0.09-0.156,0.181-0.25,0.275c-0.5,0.434-0.933,0.684-1.3,0.75
			c0.509-0.39,1.025-0.731,1.55-1.025c0.056-0.077,0.106-0.152,0.15-0.225c-1.733,0.733-3.283,1.667-4.65,2.8
			C35.517-0.7,35.3-0.6,35-0.5L34.275,1.05z M65.325-45.875c0.294,0.883,0.569,1.774,0.825,2.675c-0.3-0.767-0.533-1.483-0.7-2.15
			C65.41-45.526,65.368-45.701,65.325-45.875z M43.6,0.9c3.594-0.491,7.111-1.541,10.55-3.15c2.448-0.784,4.881-1.95,7.3-3.5
			L64.2-7.6c2.167-1.733,4.033-3.883,5.6-6.45c4.967-8.267,6.034-19.217,3.2-32.85s-6.033-23.75-9.6-30.35
			c-1.8-3.3-3.316-5.233-4.55-5.8c-0.047,2.338-0.064,4.396-0.05,6.175c1.49,1.817,2.773,3.843,3.85,6.075
			c1.133,2.367,2.133,4.633,3,6.8c-1.033-1.4-2.2-3.067-3.5-5c-0.167-0.2-0.333-0.283-0.5-0.25c0.3,0.867,0.717,1.8,1.25,2.8
			c0.167,0.3,0.367,0.55,0.6,0.75v0.5c0.633,0.667,1.133,1.534,1.5,2.6c0.11,0.33,0.243,0.646,0.4,0.95
			c2.881,3.611,4.031,6.094,3.45,7.45c-0.112,0.268-0.237,0.501-0.375,0.7c0.634,1.487,1.276,3.02,1.925,4.6
			c1.2,2.967,1.667,6.05,1.4,9.25c-0.066,0.833-0.2,1.65-0.4,2.45c-0.509-2.677-1.042-5.394-1.6-8.15
			c0.288,1.816,0.371,3.749,0.25,5.8c0,0.033-0.017,0.05-0.05,0.05l-0.3-0.45c0.1,0.967,0,1.883-0.3,2.75
			c-0.133-0.833-0.383-1.867-0.75-3.1c-0.031-0.031-0.048-0.082-0.05-0.15c-0.001,1.904-0.285,3.721-0.85,5.45
			c-0.033,0.133-0.05,0.233-0.05,0.3l-0.8,0.45l-0.45,0.5v0.6L66-32.35c1.1-3.867,1.183-7.733,0.25-11.6
			c-0.633-2.667-0.983-5.417-1.05-8.25c1,3.067,1.733,6.217,2.2,9.45v-4.65c0.434,0.533,0.833,1.2,1.2,2
			c-0.021-2.366-0.354-4.799-1-7.3c-0.76,0.373-1.744,0.223-2.95-0.45c-0.55-0.31-1.116-0.718-1.7-1.225
			c0.924,2.849,1.715,5.682,2.375,8.5c-0.584-1.772-1.242-3.514-1.975-5.225v-0.8l-0.55,2.725c0.15,0.533,0.284,1.058,0.4,1.575
			l-1.05-3.05c0.043,0.043,0.085,0.093,0.125,0.15L61.8-52.05c-0.333,0.8-0.517,1.633-0.55,2.5c0,0.367-0.017,0.767-0.05,1.2
			c-0.534-1.767-1.217-3.417-2.05-4.95c1.467,5.033,2,10.1,1.6,15.2c-0.133,1.967-0.6,3.817-1.4,5.55l0.15-3.4l0.45-0.75
			c0.233-2.566,0.283-5.15,0.15-7.75c-0.327,0.509-0.644,1.092-0.95,1.75c-0.036-3.914-0.352-7.814-0.95-11.7
			c-0.051-0.355-0.102-0.714-0.15-1.075c0.037,1.056,0.062,2.122,0.075,3.2c0.017,0.652,0.025,1.311,0.025,1.975
			c0.029,3.269-0.079,6.002-0.325,8.2c-0.31,2.862-0.852,4.812-1.625,5.85c-0.085,0.115-0.186,0.223-0.3,0.325
			c1.052-0.44,2.019-1.031,2.9-1.775c0.267-0.2,0.6-0.383,1-0.55c-1.566,4.533-4.716,7.367-9.45,8.5c-0.3,0.133-0.5,0.233-0.6,0.3
			h-0.5L47.85-29c-4.3,2.067-8.3,4.767-12,8.1c-0.7,0.633-1.184,1.35-1.45,2.15c3.2-3.3,7.233-5.417,12.1-6.35
			c0.333-0.333,0.733-0.6,1.2-0.8c0.167-0.033,0.333-0.083,0.5-0.15L46.65-24c0.633,0.233,1.5,0.067,2.6-0.5
			c-0.6,0.433-0.9,0.8-0.9,1.1c0,0.066,0.05,0.117,0.15,0.15l-0.15,0.95c-0.106,0.098-0.214,0.198-0.325,0.3
			c-1.74,1.619-3.432,3.269-5.075,4.95c-2.796,2.863-5.447,5.813-7.95,8.85c1.9-4.3,4.95-8.017,9.15-11.15
			c-1.7,0.8-3.4,1.567-5.1,2.3l2.45-1.85l-2.15,0.75c0.267-0.244,0.542-0.478,0.825-0.7l-0.375,0.1
			c-2.536,1.976-4.527,4.259-5.975,6.85c0.219-0.204,0.411-0.42,0.575-0.65l1.1-0.65l-0.15,0.8c-1.4,1.833-2.617,3.717-3.65,5.65
			c-0.367,0.7-0.7,1.35-1,1.95c0.6-0.7,1.45-1.45,2.55-2.25c0.233-0.133,0.467-0.217,0.7-0.25c1.2-0.233,2.566-0.967,4.1-2.2
			c0.6-0.467,1.184-0.817,1.75-1.05C38.653-8.974,37.395-7.457,36.025-6c0.152-0.14,0.311-0.273,0.475-0.4
			c0.167-0.1,0.35-0.15,0.55-0.15C36.283-5.583,35.5-4.7,34.7-3.9c-0.1,0.066-0.2,0.117-0.3,0.15l-0.6,1.4L33-1.25
			c2.3-1.767,4.783-3.317,7.45-4.65c-0.167,0.433,0.483,0.083,1.95-1.05c4.1-3.133,8.617-5.566,13.55-7.3
			c0.167-0.167,0.417-0.25,0.75-0.25v0.05c-1.967,1.2-4.034,2.55-6.2,4.05l-0.45,0.45c0.4,0.2,0.967,0.05,1.7-0.45
			c0.6-0.067,1.217-0.217,1.85-0.45c-2.033,0.967-3.934,2.05-5.7,3.25L51-7.45c-1.367,0.8-2.867,1.517-4.5,2.15
			c-0.367,0.867-0.867,1.617-1.5,2.25c-0.267,0.267-0.6,0.55-1,0.85c6.367-3.367,13.017-6.983,19.95-10.85
			c1.833-1,3.6-1.767,5.3-2.3c0.1,0.267-0.05,0.4-0.45,0.4c-0.066,0-0.117,0.017-0.15,0.05c-4.367,3.267-8.816,6.367-13.35,9.3
			c-2.933,2.467-6.05,4.333-9.35,5.6C45.16,0.322,44.376,0.622,43.6,0.9z M61.7-23.7c0.066-0.133,0.167-0.283,0.3-0.45
			c-2.2,1.733-4.633,3.383-7.3,4.95c-2.7,1.6-4.917,3.617-6.65,6.05c0.7-2.967,2.383-5.717,5.05-8.25
			c0.733-0.7,1.417-1.35,2.05-1.95c-2.467,1.567-4.45,3.483-5.95,5.75c-0.633,0.967-1.284,1.833-1.95,2.6
			c-0.4,0.1-0.75,0.35-1.05,0.75c-0.2,0.233-0.4,0.467-0.6,0.7c-0.2,0.167-0.317,0.35-0.35,0.55l-0.45,0.3
			c-0.133,0.4-0.433,0.784-0.9,1.15c-0.533,0.5-1.033,0.933-1.5,1.3c-0.566,0.433-1.017,0.767-1.35,1
			c0.067-0.567,0.6-1.483,1.6-2.75c0.667-0.833,1.217-1.683,1.65-2.55l-0.45,1.15c1.732-3.001,3.715-5.851,5.95-8.55
			c0.233-0.267,0.367-0.483,0.4-0.65l0.45-0.15c0.567-0.9,1.35-1.667,2.35-2.3c1.733-1.133,3.283-2.383,4.65-3.75
			c1.4-0.9,2.567-2.167,3.5-3.8c2.58-4.662,3.264-9.662,2.05-15l2.05,5.95c0.433,2.1,0.333,4.1-0.3,6c-1.267,3.8-3.3,7.267-6.1,10.4
			c-0.722,0.819-1.497,1.603-2.325,2.35c0.883-0.715,1.842-1.465,2.875-2.25c0.667-0.5,1.217-1.033,1.65-1.6
			c0.133-0.267,0.15-0.217,0.05,0.15c-0.033,0.067-0.05,0.117-0.05,0.15h-0.1c-0.034,0.067-0.05,0.117-0.05,0.15
			c0.9-0.534,1.967-1.333,3.2-2.4c0.467-0.4,0.9-0.733,1.3-1c0.167-0.3,0.367-0.617,0.6-0.95c0.3-0.333,0.583-0.65,0.85-0.95
			c0.167-0.233,0.4-0.533,0.7-0.9c-1,2.1-2.267,4.05-3.8,5.85c-0.233,0.3-0.417,0.617-0.55,0.95c0.7-0.6,1.833-1.267,3.4-2
			c0.333-0.133,0.65-0.233,0.95-0.3c-0.466,0.933-1.117,1.767-1.95,2.5c-0.233,0.2-0.517,0.45-0.85,0.75
			c2.067-0.5,3.917-1.65,5.55-3.45c1.034-1.133,1.817-2.15,2.35-3.05c-0.467,2.9-1.983,5.317-4.55,7.25
			c-3.2,2.433-6.583,4.15-10.15,5.15c1.066-1.3,2.6-2.583,4.6-3.85c0.534-0.367,0.967-0.75,1.3-1.15c-0.434-0.033-1.184,0.3-2.25,1
			c-0.267,0.2-0.6,0.383-1,0.55c0.066-0.333,0.25-0.583,0.55-0.75C61.383-23.25,61.567-23.467,61.7-23.7z M24-21.175
			c0.82,0.521,1.695,0.963,2.625,1.325c0.006-0.374,0.023-0.749,0.05-1.125c-0.648,0.115-1.44,0.073-2.375-0.125
			C24.198-21.12,24.098-21.145,24-21.175z M58.6-59.6c0.309,0.745,0.608,1.511,0.9,2.3c0.067,0.867,0.267,1.683,0.6,2.45
			c0.033,0.067,0.083,0.117,0.15,0.15l0.3,1.55c-0.033-1.067,0.1-2.083,0.4-3.05c0-0.033,0.033-0.05,0.1-0.05l0.9,1.55
			c0.144,0.072,0.318,0.039,0.525-0.1C61.239-55.971,59.947-57.571,58.6-59.6z M60.825-67.1c-0.029-0.05-0.054-0.101-0.075-0.15
			c-0.2-0.5-0.533-0.9-1-1.2c-0.121-0.169-0.237-0.336-0.35-0.5c0.028,0.114,0.062,0.214,0.1,0.3
			C59.949-68.123,60.391-67.606,60.825-67.1z M59.05-70.925c0.646,0.644,1.246,1.352,1.8,2.125c0.033,0.066,0.083,0.133,0.15,0.2
			c-0.133-0.7-0.483-1.633-1.05-2.8c-0.233-0.533-0.184-0.7,0.15-0.5c0.233,0.233,0.35,0.3,0.35,0.2c0-0.066-0.017-0.133-0.05-0.2
			c-0.512-0.764-1.028-1.522-1.55-2.275C58.893-72.879,58.959-71.796,59.05-70.925z M59.15-42.7c0.003,0.449,0.003,0.899,0,1.35
			l-0.3,0.45v2.2l-0.45-2.2C58.643-41.552,58.893-42.152,59.15-42.7z"/>
		<path fill-rule="evenodd" clip-rule="evenodd" fill="#2C2C2C" d="M21.85,0.275c1.731,0.5,3.214,0.875,4.45,1.125
			c-3.708-2.417-7.249-4.601-10.625-6.55C15.719-5.13,15.76-5.113,15.8-5.1c0.567,0.333,1.067,0.617,1.5,0.85
			c0.838,0.363,1.38,0.555,1.625,0.575L18.9-3.65c-0.1,0.167-0.083,0.283,0.05,0.35c0.633,0.233,1.333,0.35,2.1,0.35
			c-0.066-0.1-0.117-0.25-0.15-0.45c-0.047-0.239-0.139-0.438-0.275-0.6C21.799-3.441,22.924-3.091,24-2.95
			c-2.067-1.6-4.267-3.133-6.6-4.6c-3.033-1.9-5.633-4.133-7.8-6.7l0.75,1.4c0.267,0.167,0.533,0.367,0.8,0.6
			c1.067,0.967,1.833,1.8,2.3,2.5L12.7-9.9c0.3,0.1,0.533,0.233,0.7,0.4c1.333,1.433,2.9,2.633,4.7,3.6
			c-1.967-0.767-3.8-1.783-5.5-3.05c-2.3-1.7-4.383-3.617-6.25-5.75c-0.233-0.633-0.6-1.2-1.1-1.7
			c-0.592-0.55-1.117-1.092-1.575-1.625c1.217,1.711,2.375,3.469,3.475,5.275c2.133,3.533,4.783,6.567,7.95,9.1
			C16.967-2.217,19-1.1,21.2-0.3c0.133,0.167,0.283,0.316,0.45,0.45C21.717,0.191,21.783,0.232,21.85,0.275z M65.325-45.875
			c0.043,0.174,0.084,0.349,0.125,0.525c0.167,0.667,0.4,1.383,0.7,2.15C65.894-44.101,65.619-44.992,65.325-45.875z M34.275,1.05
			L35-0.5c0.3-0.1,0.517-0.2,0.65-0.3c1.367-1.133,2.917-2.067,4.65-2.8c-0.043,0.073-0.094,0.148-0.15,0.225
			C39.625-3.082,39.109-2.74,38.6-2.35c0.367-0.066,0.8-0.316,1.3-0.75c0.094-0.094,0.177-0.185,0.25-0.275
			c1.535-0.875,3.135-1.351,4.8-1.425c-2.581,1.738-4.997,3.746-7.25,6.025c1.988,0.057,3.955-0.052,5.9-0.325
			c0.776-0.278,1.56-0.578,2.35-0.9c3.3-1.267,6.417-3.133,9.35-5.6c4.534-2.933,8.983-6.033,13.35-9.3
			c0.033-0.033,0.083-0.05,0.15-0.05c0.4,0,0.55-0.133,0.45-0.4c-1.7,0.533-3.467,1.3-5.3,2.3C57.017-9.183,50.367-5.567,44-2.2
			c0.4-0.3,0.733-0.583,1-0.85c0.633-0.633,1.133-1.383,1.5-2.25c1.633-0.633,3.133-1.35,4.5-2.15L47.9-7.6
			c1.767-1.2,3.667-2.283,5.7-3.25c-0.633,0.233-1.25,0.383-1.85,0.45c-0.733,0.5-1.3,0.65-1.7,0.45l0.45-0.45
			c2.167-1.5,4.233-2.85,6.2-4.05v-0.05c-0.333,0-0.583,0.083-0.75,0.25c-4.934,1.733-9.45,4.167-13.55,7.3
			c-1.467,1.133-2.117,1.483-1.95,1.05C37.783-4.567,35.3-3.017,33-1.25l0.8-1.1l0.6-1.4c0.1-0.033,0.2-0.083,0.3-0.15
			c0.8-0.8,1.583-1.684,2.35-2.65c-0.2,0-0.383,0.05-0.55,0.15c-0.165,0.126-0.323,0.26-0.475,0.4
			c1.37-1.457,2.628-2.974,3.775-4.55c-0.566,0.233-1.15,0.583-1.75,1.05c-1.533,1.233-2.9,1.967-4.1,2.2
			c-0.233,0.033-0.467,0.117-0.7,0.25c-1.1,0.8-1.95,1.55-2.55,2.25c0.3-0.6,0.633-1.25,1-1.95c1.033-1.933,2.25-3.817,3.65-5.65
			l0.15-0.8l-1.1,0.65c-0.164,0.229-0.355,0.446-0.575,0.65c1.447-2.591,3.439-4.875,5.975-6.85l0.375-0.1
			c-0.283,0.223-0.558,0.456-0.825,0.7l2.15-0.75l-2.45,1.85c1.7-0.733,3.4-1.5,5.1-2.3C39.95-16.217,36.9-12.5,35-8.2
			c2.503-3.037,5.154-5.987,7.95-8.85c1.643-1.682,3.334-3.332,5.075-4.95c0.111-0.102,0.219-0.202,0.325-0.3l0.15-0.95
			c-0.1-0.033-0.15-0.083-0.15-0.15c0-0.3,0.3-0.667,0.9-1.1c-1.1,0.567-1.967,0.733-2.6,0.5l1.55-2.05
			c-0.167,0.066-0.333,0.117-0.5,0.15c-0.467,0.2-0.867,0.467-1.2,0.8c-4.867,0.934-8.9,3.05-12.1,6.35
			c0.267-0.8,0.75-1.517,1.45-2.15c3.7-3.333,7.7-6.033,12-8.1l1.4-0.45h0.5c0.1-0.066,0.3-0.167,0.6-0.3
			c4.733-1.133,7.883-3.967,9.45-8.5c-0.4,0.167-0.733,0.35-1,0.55c-0.881,0.744-1.848,1.335-2.9,1.775
			c-0.743,0.76-2.06,1.401-3.95,1.925c-2.934,0.667-5.3,1.267-7.1,1.8C37.617-30.167,31.667-26.45,27-21.05
			c-0.105,0.03-0.213,0.055-0.325,0.075c-0.027,0.376-0.043,0.751-0.05,1.125c-0.93-0.362-1.805-0.803-2.625-1.325
			c-2.128-0.484-4.178-1.776-6.15-3.875c-0.832-0.896-2.099-2.246-3.8-4.05c-1.704-1.811-3.254-4.211-4.65-7.2
			c-1.394-2.985-1.027-8.835,1.1-17.55c-0.25,0.123-0.5,0.256-0.75,0.4c-0.165,0.762-0.314,1.545-0.45,2.35
			c-1.267,3.467-2.066,7.133-2.4,11c-0.333,4.033,0.517,7.684,2.55,10.95l-0.5-3.7c0.578,3.215,1.986,6.032,4.225,8.45
			c-0.419-0.192-0.844-0.375-1.275-0.55c0.483,0.226,0.917,0.417,1.3,0.575c0.733,0.786,1.55,1.528,2.45,2.225
			c-0.543-0.55-1.052-1.125-1.525-1.725c2.5,1.4,4.558,3.058,6.175,4.975c0.567,0.467,1.017,1.033,1.35,1.7
			c0.033,0.333,0.05,0.534,0.05,0.6c-0.034,0.333-0.15,0.6-0.35,0.8c-0.067,0.066-0.05,0.2,0.05,0.4c0.2,0.467,0.5,0.95,0.9,1.45
			L21.65-13L22-11.95c-0.267,0.067-0.5,0.05-0.7-0.05c-0.367-0.167-0.816-0.3-1.35-0.4c1.066,0.867,2.15,1.85,3.25,2.95
			c1.7,1.733,3.3,2.967,4.8,3.7l0.95,0.3c-0.133-0.367-0.267-0.75-0.4-1.15c-0.233-0.8-0.566-1.55-1-2.25v-0.6
			c-0.1-0.1-0.2-0.2-0.3-0.3c-1.233-1-2.267-1.733-3.1-2.2l1.25,0.5l0.05-0.05c-0.733-1.1-1.633-2.167-2.7-3.2
			c1.567,1,3.117,1.717,4.65,2.15l-0.45-0.8c-0.733-0.667-1.367-1.333-1.9-2c-2.964-3.655-6.639-6.538-11.025-8.65
			c-1.934-2.524-3.259-5.524-3.975-9c0.833,1.967,2.1,3.8,3.8,5.5c2.467,2.467,5.133,4.767,8,6.9c0-0.1-0.017-0.183-0.05-0.25
			c-0.5-0.667-0.95-1.25-1.35-1.75c1.876,2.067,3.935,3.042,6.175,2.925c0.016,2,0.391,3.959,1.125,5.875l-0.3-1.25
			c0.633-2.6,1.966-4.617,4-6.05c0.033,0,0.066-0.017,0.1-0.05c1.7-1.4,3.217-3.083,4.55-5.05c2.533-1.633,5.017-2.617,7.45-2.95
			c0,0.2-0.1,0.25-0.3,0.15c-0.167,0.067-0.333,0.067-0.5,0c-0.933,0.333-1.8,0.833-2.6,1.5c-4.5,3.733-7.65,8.05-9.45,12.95
			c0.167-0.034,0.367-0.034,0.6,0c0.367-0.133,0.567-0.034,0.6,0.3c0,0.1-0.017,0.183-0.05,0.25c-0.3,0.467-0.383,0.9-0.25,1.3
			l4.2-3.75c-1.002,1.628-1.81,3.27-2.425,4.925c-0.103,0.076-0.21,0.151-0.325,0.225c-1.566,1.1-2.65,2.517-3.25,4.25
			c-1.076,3.228-0.434,5.986,1.925,8.275c0.183-0.016,0.383-0.033,0.6-0.05c0.172-0.021,0.355-0.038,0.55-0.05
			C33.099,1.118,33.34,1.11,33.6,1.1C33.716,1.061,33.941,1.044,34.275,1.05z M58.8-76.875c0.008,0.987,0.024,1.887,0.05,2.7
			c0.521,0.752,1.038,1.511,1.55,2.275c0.033,0.066,0.05,0.133,0.05,0.2c0,0.1-0.117,0.034-0.35-0.2
			c-0.333-0.2-0.383-0.033-0.15,0.5c0.566,1.167,0.917,2.1,1.05,2.8c-0.067-0.066-0.117-0.133-0.15-0.2
			c-0.554-0.773-1.154-1.481-1.8-2.125c0.089,0.873,0.206,1.531,0.35,1.975c0.113,0.164,0.229,0.331,0.35,0.5
			c0.467,0.3,0.8,0.7,1,1.2c0.021,0.049,0.046,0.1,0.075,0.15c1.566,1.854,2.991,3.554,4.275,5.1c0.099,0.121,0.198,0.237,0.3,0.35
			c-0.157-0.304-0.29-0.62-0.4-0.95c-0.367-1.066-0.867-1.933-1.5-2.6v-0.5c-0.233-0.2-0.433-0.45-0.6-0.75
			c-0.533-1-0.95-1.933-1.25-2.8c0.167-0.033,0.333,0.05,0.5,0.25c1.3,1.933,2.467,3.6,3.5,5c-0.867-2.167-1.867-4.433-3-6.8
			C61.573-73.032,60.29-75.058,58.8-76.875z M62.475-54.8c-0.207,0.138-0.381,0.172-0.525,0.1l-0.9-1.55
			c-0.066,0-0.1,0.017-0.1,0.05c-0.3,0.967-0.434,1.983-0.4,3.05l-0.3-1.55c-0.067-0.033-0.117-0.083-0.15-0.15
			c-0.333-0.767-0.533-1.583-0.6-2.45c-0.292-0.789-0.591-1.556-0.9-2.3c-0.3-0.448-0.6-0.915-0.9-1.4
			c0.158,1.798,0.275,3.64,0.35,5.525c0.049,0.361,0.099,0.72,0.15,1.075c0.598,3.886,0.914,7.786,0.95,11.7
			c0.307-0.658,0.623-1.241,0.95-1.75c0.133,2.6,0.083,5.184-0.15,7.75l-0.45,0.75l-0.15,3.4c0.8-1.733,1.267-3.583,1.4-5.55
			c0.4-5.1-0.133-10.167-1.6-15.2c0.833,1.533,1.517,3.183,2.05,4.95c0.033-0.433,0.05-0.833,0.05-1.2
			c0.033-0.867,0.217-1.7,0.55-2.5l0.475,1.55c-0.04-0.057-0.082-0.107-0.125-0.15l1.05,3.05c-0.117-0.517-0.25-1.042-0.4-1.575
			l0.55-2.725v0.8c0.733,1.711,1.391,3.453,1.975,5.225c-0.66-2.818-1.451-5.651-2.375-8.5C62.795-54.506,62.637-54.647,62.475-54.8
			z M3.5-18.25c0.03,0.044,0.063,0.085,0.1,0.125l-0.4-4.6c0.056,0.091,0.106,0.167,0.15,0.225c1.066,1.567,2.167,3.017,3.3,4.35
			c1.333,1.733,2.684,3.133,4.05,4.2c-0.534-0.767-1.2-1.617-2-2.55c-0.934-1.133-1.8-2.3-2.6-3.5
			c-1.066-1.556-2.083-3.005-3.05-4.35v-0.05c0.418,0.458,0.951,0.891,1.6,1.3l-1.775-3.175L2.8-27.025l3.5,3.05
			C7.659-20.19,9.475-16.532,11.75-13c1.533,1.3,3.05,2.433,4.55,3.4c1.7,1.1,3.45,2.1,5.25,3c3.6,1.767,6.434,4.483,8.5,8.15
			l-2.35-4.8c-0.4-0.567-0.917-1.033-1.55-1.4c-1.933-1.033-3.6-2.333-5-3.9c-1.367-1.534-2.683-2.867-3.95-4
			c0.033-0.034,0.083-0.083,0.15-0.15c0.4-0.267,0.55-0.533,0.45-0.8l-2.15-1.7l1.4,0.5c-0.066-0.1-0.133-0.216-0.2-0.35
			c-1.167-1.967-2.3-3.717-3.4-5.25c2.4,2.533,4.783,4.7,7.15,6.5c-0.3-1.034-0.783-1.983-1.45-2.85
			c-4.333-5.667-9.283-10.333-14.85-14c0.167,0.133,0.383,0.333,0.65,0.6c1.867,1.633,3.2,3.483,4,5.55
			c0.933,1.4,1.716,2.9,2.35,4.5L11-19.2c0,0.067,0.017,0.117,0.05,0.15c0.8,1.2,1.6,2.283,2.4,3.25l-1.05-0.15
			c0.033,0.1,0.083,0.2,0.15,0.3c0.767,1,1.633,1.833,2.6,2.5c-0.133-0.033-0.283-0.1-0.45-0.2c-3.886-2.59-6.669-6.115-8.35-10.575
			L6.8-23.55c0-0.233-0.033-0.4-0.1-0.5c-0.252-0.348-0.502-0.698-0.75-1.05c-0.036-0.1-0.069-0.2-0.1-0.3c0,0.066,0,0.117,0,0.15
			l0.025,0.05c-1.091-1.479-2.191-2.954-3.3-4.425l-0.075-1L2.8-29.9L2-37.95c0.1,0.067,0.183,0.217,0.25,0.45
			c0.588,1.831,1.414,3.614,2.475,5.35c-0.125-0.234-0.217-0.468-0.275-0.7c-0.133-0.4-0.284-0.867-0.45-1.4
			c-0.381-1.049-0.615-2.141-0.7-3.275C3.313-37.608,3.33-37.7,3.35-37.8c0.267-2.633,0.483-5.267,0.65-7.9c0-0.033,0-0.083,0-0.15
			c0.033-0.1,0.2-0.1,0.5,0c0.2,0.267,0.3,0.684,0.3,1.25c-0.012,0.813-0.037,1.613-0.075,2.4c0.202-2.53,0.894-4.879,2.075-7.05
			v-0.5c0.478-0.847,0.886-1.706,1.225-2.575c-2.648,1.966-4.873,4.858-6.675,8.675c-0.375,0.798-0.734,1.64-1.075,2.525
			c-1.044,2.707-1.419,5.707-1.125,9c0.374,4.124,1.798,8.707,4.275,13.75C3.447-18.33,3.472-18.289,3.5-18.25z M67.6-52.7
			c0.646,2.501,0.979,4.935,1,7.3c-0.367-0.8-0.767-1.467-1.2-2v4.65c-0.467-3.233-1.2-6.383-2.2-9.45
			c0.066,2.833,0.417,5.583,1.05,8.25c0.933,3.867,0.85,7.733-0.25,11.6l0.45-0.8v-0.6l0.45-0.5l0.8-0.45
			c0-0.066,0.017-0.167,0.05-0.3c0.565-1.729,0.849-3.546,0.85-5.45c0.002,0.069,0.019,0.119,0.05,0.15
			c0.367,1.233,0.617,2.267,0.75,3.1c0.3-0.867,0.4-1.783,0.3-2.75L70-39.5c0.033,0,0.05-0.017,0.05-0.05
			c0.121-2.051,0.038-3.984-0.25-5.8c0.558,2.756,1.091,5.473,1.6,8.15c0.2-0.8,0.333-1.617,0.4-2.45c0.267-3.2-0.2-6.283-1.4-9.25
			c-0.649-1.58-1.291-3.113-1.925-4.6C68.226-53.13,67.934-52.863,67.6-52.7z M61.7-23.7c-0.133,0.233-0.317,0.45-0.55,0.65
			c-0.3,0.167-0.483,0.417-0.55,0.75c0.4-0.167,0.733-0.35,1-0.55c1.066-0.7,1.816-1.033,2.25-1c-0.333,0.4-0.767,0.783-1.3,1.15
			c-2,1.267-3.533,2.55-4.6,3.85c3.566-1,6.95-2.717,10.15-5.15c2.566-1.933,4.083-4.35,4.55-7.25c-0.533,0.9-1.316,1.917-2.35,3.05
			c-1.633,1.8-3.483,2.95-5.55,3.45c0.333-0.3,0.617-0.55,0.85-0.75c0.833-0.733,1.483-1.567,1.95-2.5
			c-0.3,0.067-0.617,0.167-0.95,0.3c-1.567,0.733-2.7,1.4-3.4,2c0.133-0.333,0.316-0.65,0.55-0.95c1.533-1.8,2.8-3.75,3.8-5.85
			c-0.3,0.367-0.533,0.667-0.7,0.9c-0.267,0.3-0.55,0.617-0.85,0.95c-0.233,0.333-0.433,0.65-0.6,0.95c-0.4,0.267-0.833,0.6-1.3,1
			c-1.233,1.067-2.3,1.867-3.2,2.4c0-0.034,0.017-0.083,0.05-0.15h0.1c0-0.033,0.017-0.083,0.05-0.15
			c0.1-0.367,0.083-0.417-0.05-0.15c-0.433,0.567-0.983,1.1-1.65,1.6c-1.033,0.785-1.992,1.535-2.875,2.25
			c0.829-0.748,1.604-1.531,2.325-2.35c2.8-3.133,4.833-6.6,6.1-10.4c0.633-1.9,0.733-3.9,0.3-6L63.2-47.6
			c1.213,5.338,0.53,10.338-2.05,15c-0.933,1.633-2.1,2.9-3.5,3.8c-1.367,1.367-2.917,2.617-4.65,3.75c-1,0.633-1.783,1.4-2.35,2.3
			L50.2-22.6c-0.034,0.167-0.167,0.383-0.4,0.65c-2.234,2.699-4.218,5.549-5.95,8.55l0.45-1.15c-0.433,0.867-0.983,1.716-1.65,2.55
			c-1,1.267-1.533,2.183-1.6,2.75c0.333-0.233,0.784-0.567,1.35-1c0.467-0.367,0.967-0.8,1.5-1.3c0.467-0.367,0.767-0.75,0.9-1.15
			l0.45-0.3c0.033-0.2,0.15-0.383,0.35-0.55c0.2-0.233,0.4-0.467,0.6-0.7c0.3-0.4,0.65-0.65,1.05-0.75
			c0.667-0.767,1.317-1.633,1.95-2.6c1.5-2.267,3.483-4.183,5.95-5.75c-0.633,0.6-1.316,1.25-2.05,1.95
			c-2.667,2.533-4.35,5.283-5.05,8.25c1.733-2.434,3.95-4.45,6.65-6.05c2.667-1.566,5.1-3.216,7.3-4.95
			C61.867-23.983,61.767-23.833,61.7-23.7z M59.15-42.7c-0.257,0.548-0.507,1.148-0.75,1.8l0.45,2.2v-2.2l0.3-0.45
			C59.153-41.801,59.153-42.251,59.15-42.7z"/>
	</g>
</symbol>
<symbol  id="Duplicate_Items_Folder_x2F_Symbgol_10" viewBox="0 -54.4 87.35 54.4">
	<polygon fill-rule="evenodd" clip-rule="evenodd" points="0,0 78.35,0 87.35,-54.4 0,-54.4 	"/>
</symbol>
<symbol  id="Duplicate_Items_Folder_x2F_Symgbol_9" viewBox="0 -69.2 118.75 69.2">
	<g id="Layer_3_12_">
		<polygon fill-rule="evenodd" clip-rule="evenodd" fill="#777777" points="0,-2.05 0.9,0 91.9,-4 90.15,-6 		"/>
		<path fill-rule="evenodd" clip-rule="evenodd" fill="#565656" d="M31-63L0-2.05L90.15-6l1.75,2l20.4-50.7l6.45-13.9l-2.05-0.6
			L90.4-6.55c-1.033-2.733-3.5-7.367-7.4-13.9c-3.9-6.566-7.833-12.683-11.8-18.35c-4.267-6.034-8.833-10.517-13.7-13.45
			C52.433-55.317,43.6-58.9,31-63z"/>
		<path fill-rule="evenodd" clip-rule="evenodd" fill="#3A3A3A" d="M116.7-69.2l-85.05,4.95L31-63c12.6,4.1,21.433,7.683,26.5,10.75
			c4.867,2.933,9.433,7.417,13.7,13.45c3.966,5.667,7.9,11.783,11.8,18.35c3.9,6.534,6.367,11.167,7.4,13.9L116.7-69.2z"/>
	</g>
</symbol>
<g id="Layer_7">
	<g id="Layer_2">
		<path fill-rule="evenodd" clip-rule="evenodd" fill="#3D2920" d="M497.57,331.2c11.742,17.614,17.614,38.848,17.614,63.701
			s-5.872,46.06-17.614,63.616c-11.743,17.614-25.908,26.421-42.497,26.421c-16.588,0-30.753-8.807-42.496-26.421
			c-11.742-17.557-17.614-38.763-17.614-63.616s5.872-46.087,17.614-63.701c11.743-17.558,25.908-26.336,42.496-26.336
			C471.662,304.864,485.827,313.643,497.57,331.2z"/>
	</g>
	<g>
		<path fill-rule="evenodd" clip-rule="evenodd" fill="#345AB8" d="M443.53,304.864c16.588,0,30.754,8.778,42.496,26.336
			c11.743,17.614,17.614,38.848,17.614,63.701s-5.871,46.06-17.614,63.616c-11.742,17.614-25.908,26.421-42.496,26.421
			s-30.754-8.807-42.496-26.421c-11.743-17.557-17.614-38.763-17.614-63.616s5.871-46.087,17.614-63.701
			C412.776,313.643,426.942,304.864,443.53,304.864z"/>
	</g>
</g>
<g id="Layer_6">
	<g>
		<polygon fill-rule="evenodd" clip-rule="evenodd" fill="#D6AD5F" points="430.105,646.374 -17.003,631.068 -17.003,485.537 
			430.105,511.019 		"/>
		<polygon fill-rule="evenodd" clip-rule="evenodd" fill="#CF9532" points="430.105,646.374 430.105,511.019 671.061,426.453 
			671.061,603.535 		"/>
		<polygon fill-rule="evenodd" clip-rule="evenodd" fill="#D29A30" points="430.105,511.019 -17.003,485.537 -29.06,484.512 
			-29.06,470.83 430.961,498.192 683.117,413.456 683.117,423.46 671.061,426.453 		"/>
		<polygon fill-rule="evenodd" clip-rule="evenodd" fill="#DAA256" points="683.117,413.456 430.961,498.192 -29.06,470.83 
			206.936,388.403 384.36,397.595 481.409,402.64 683.117,413.114 		"/>
	</g>
</g>
<g id="Layer_10">
	
		<use xlink:href="#Duplicate_Items_Folder_x2F_Sygmbol_11_FLM_x5F_FRAME_x5F_0"  width="201.55" height="85.3" x="-0.5" y="-84.8" transform="matrix(0.3466 -0.1277 -0.2106 -0.2416 340.5996 466.9004)" overflow="visible"/>
</g>
<g id="Layer_5">
	
		<use xlink:href="#Duplicate_Items_Folder_x2F_Sygmbol_17"  width="126.75" height="18.95" y="-18.95" transform="matrix(1.7101 0 0 -1.7101 144 428.25)" overflow="visible"/>
</g>
<g id="Layer_4">
	<g>
		<path fill-rule="evenodd" clip-rule="evenodd" fill="#E29D59" d="M371.278,199.863v60.88c-22.631,4.617-44.35,5.187-65.155,1.71
			c2.394-10.204,4.788-18.726,7.183-25.566c0.569-1.71,1.168-3.306,1.795-4.788c-0.969,3.135-1.539,6.042-1.71,8.722
			c-0.399,5.244,0.57,9.548,2.907,12.911c4.617,3.706,14.964,1.511,31.039-6.584c1.14-0.57,2.251-1.168,3.334-1.795
			c7.524-4.561,13.025-10.546,16.503-17.956c-3.478,6.042-8.465,11.03-14.964,14.963c-1.083,0.627-2.194,1.226-3.334,1.795
			c-16.075,8.095-26.422,10.289-31.039,6.584c-1.653-2.337-2.622-5.13-2.907-8.379c-0.171-1.254-0.199-2.565-0.085-3.933
			c0.228-3.42,1.025-7.211,2.394-11.373c1.995-4.389,3.277-7.467,3.848-9.234c0.058-0.228,0.114-0.428,0.171-0.599
			c0.229-0.684,0.285-1.112,0.171-1.283c0.114,0,0.257,0.029,0.428,0.085c3.705,0.228,8.123-0.627,13.254-2.565
			c4.161-1.539,10.09-4.446,17.785-8.722c3.135-1.767,6.1-3.905,8.893-6.413c2.907-2.68,4.788-5.017,5.644-7.012
			c0.569-1.767,1.083-3.335,1.539-4.703c1.14-1.14,2.337-2.337,3.591-3.591c-0.171,4.332-0.484,8.807-0.94,13.424
			C371.506,197.583,371.392,198.723,371.278,199.863z"/>
	</g>
	<g>
		<g>
			<path fill-rule="evenodd" clip-rule="evenodd" fill="#DE9955" d="M346.054,205.079c17.558-13.225,22.944-44.292,16.161-93.201
				c6.099,7.524,9.833,17.927,11.201,31.209c0.284,8.607-0.143,14.878-1.283,18.811c9.178-11.857,14.593-14.622,16.246-8.294
				c1.938,6.099-0.057,12.455-5.985,19.068c-4.674,4.332-7.924,6.242-9.747,5.729c0,1.482-0.029,3.021-0.086,4.617
				c-1.254,1.254-2.451,2.451-3.591,3.591C360.59,194.59,352.951,200.747,346.054,205.079z"/>
			<path fill-rule="evenodd" clip-rule="evenodd" fill="#F1B274" d="M362.215,111.878c6.783,48.909,1.396,79.976-16.161,93.201
				c-9.291,5.814-17.243,8.237-23.855,7.268c-1.597-0.228-3.107-0.655-4.532-1.282c-9.349-5.416-16.759-13.966-22.231-25.652
				c-3.534-7.98-5.529-16.759-5.985-26.336c-9.862-34.316-3.107-54.581,20.265-60.794
				C334.226,94.406,351.726,98.938,362.215,111.878z"/>
			<path fill-rule="evenodd" clip-rule="evenodd" fill="#E29D59" d="M315.101,232.099c-0.969,3.135-1.539,6.042-1.71,8.722
				c-0.399,5.244,0.57,9.548,2.907,12.911c4.617,3.706,14.964,1.511,31.039-6.584c1.14-0.57,2.251-1.168,3.334-1.795
				c7.524-4.561,13.025-10.546,16.503-17.956c-3.478,6.042-8.465,11.03-14.964,14.963c-1.083,0.627-2.194,1.226-3.334,1.795
				c-16.075,8.095-26.422,10.289-31.039,6.584c-1.653-2.337-2.622-5.13-2.907-8.379c-0.171-1.254-0.199-2.565-0.085-3.933
				c0.228-3.42,1.025-7.211,2.394-11.373c1.995-4.389,3.277-7.467,3.848-9.234c0.058-0.228,0.114-0.428,0.171-0.599
				c0.229-0.684,0.285-1.112,0.171-1.283c0.114,0,0.257,0.029,0.428,0.085c3.705,0.228,8.123-0.627,13.254-2.565
				c4.161-1.539,10.09-4.446,17.785-8.722c3.135-1.767,6.1-3.905,8.893-6.413c2.907-2.68,4.788-5.017,5.644-7.012
				c0.569-1.767,1.083-3.335,1.539-4.703c1.14-1.14,2.337-2.337,3.591-3.591c-0.171,4.332-0.484,8.807-0.94,13.424
				c-0.114,1.14-0.229,2.28-0.342,3.42v60.88c-22.631,4.617-44.35,5.187-65.155,1.71c2.394-10.204,4.788-18.726,7.183-25.566
				C313.875,235.177,314.474,233.581,315.101,232.099z"/>
			<path fill-rule="evenodd" clip-rule="evenodd" fill="#D7924E" d="M317.238,227.054c-1.368,4.162-2.166,7.952-2.394,11.373
				c-0.114,1.368-0.086,2.679,0.085,3.933c0.285,3.249,1.254,6.042,2.907,8.379c4.617,3.705,14.964,1.511,31.039-6.584
				c1.14-0.57,2.251-1.168,3.334-1.795c6.499-3.933,11.486-8.921,14.964-14.963c-3.478,7.41-8.979,13.396-16.503,17.956
				c-1.083,0.627-2.194,1.226-3.334,1.795c-16.075,8.095-26.422,10.29-31.039,6.584c-2.337-3.363-3.307-7.667-2.907-12.911
				c0.171-2.679,0.741-5.586,1.71-8.722c0.514-1.368,1.055-2.622,1.625-3.762C316.896,227.88,317.067,227.453,317.238,227.054z
				 M322.198,212.347c6.612,0.969,14.564-1.454,23.855-7.268c6.897-4.333,14.536-10.489,22.916-18.47
				c-0.456,1.368-0.97,2.936-1.539,4.703c-0.855,1.995-2.736,4.332-5.644,7.012c-2.793,2.508-5.758,4.646-8.893,6.413
				c-7.695,4.275-13.624,7.183-17.785,8.722c-5.131,1.938-9.549,2.793-13.254,2.565c-0.171-0.057-0.313-0.085-0.428-0.085
				C321.713,214.741,321.97,213.544,322.198,212.347z"/>
		</g>
	</g>
</g>
<g id="Layer_3">
	<g>
		<path fill-rule="evenodd" clip-rule="evenodd" fill="#1C1B1B" d="M304.113,183.788c0.346-2.589,2.525-5.097,6.541-7.524
			c5.416-1.083,11.173-1.083,17.272,0c7.85,2.716,9.531,6.877,5.045,12.483c-1.39-2.292-4.04-4.202-7.952-5.729
			c-6.5-0.112-10.562,0.287-12.185,1.197c-1.621,0.907-3.545,2.503-5.771,4.789C304.751,188.116,303.768,186.377,304.113,183.788z"
			/>
	</g>
</g>
<g id="Layer_2_1_">
	<g>
		<path fill-rule="evenodd" clip-rule="evenodd" fill="#1C1B1B" d="M315.442,123.079h0.086c-1.425,3.249-2.765,4.817-4.019,4.703
			l-12.057-0.342c-1.368,0.229-2.736,0.542-4.104,0.941l-3.164,1.539l-4.275,3.42l-2.565,2.821l-0.085,0.171l-0.256,0.257
			l2.309-4.788l4.189-6.584c1.54-1.938,3.648-2.964,6.328-3.079h11.458C312.991,122.138,315.044,122.452,315.442,123.079z
			 M354.946,125.815l3.249,6.584l1.454,4.874l-0.171-0.342l-0.171-0.171l-1.967-2.822l-2.224-2.309
			c-1.368-1.425-2.85-2.366-4.446-2.822l-4.019-1.026l-11.971,0.171c-1.197,0-2.28-1.596-3.249-4.788
			c0.513-0.684,2.622-0.969,6.327-0.855l11.372,0.171C351.754,122.708,353.692,123.82,354.946,125.815z"/>
		<path fill-rule="evenodd" clip-rule="evenodd" fill="#CCDCEC" d="M287.568,147.619c0.371-0.345,0.785-0.701,1.24-1.069
			c0.247-0.179,0.503-0.364,0.77-0.556l-0.299,0.256c-0.161,0.104-0.317,0.204-0.471,0.299c0.153-0.096,0.31-0.195,0.471-0.299
			l0.299-0.256c0.15-0.114,0.307-0.229,0.471-0.342v-0.085l3.164-1.881l0.171-0.085l0.513-0.257v0.085l-0.513,0.171l0.513-0.171
			l1.496-0.47c-0.595,0.785-0.979,1.64-1.154,2.565c-1.122,0.339-2.091,0.781-2.907,1.325l-3.164,2.052l-1.112-0.684
			C287.202,148.021,287.374,147.822,287.568,147.619c-0.194,0.203-0.366,0.402-0.513,0.599l1.112,0.684l-0.171,0.086l-1.112-0.684
			C287.09,148.083,287.318,147.854,287.568,147.619z M305.438,145.524c-0.09-1.345-0.531-2.514-1.325-3.506l0.385,0.042l2.993,1.026
			l0.94,0.684c1.025,0.57,1.682,1.14,1.967,1.71c0.192,0.217,0.421,0.431,0.684,0.641l0.086,0.128l0.213,0.085
			c0.288,0.235,0.615,0.463,0.983,0.684l0.599,0.256l0.428,0.513l-0.257,0.556l-0.171,0.128l-0.599,0.085h-0.085l-0.428,0.085
			l-0.171-0.085l-0.128,0.128c-0.848-0.836-1.889-1.535-3.121-2.095l-2.479-1.026L305.438,145.524z M311.595,148.73l-0.042-0.042
			l0.128-0.128l0.171,0.085l0.428-0.085h0.085l0.599-0.085l0.171-0.128l-0.085,0.214l-0.599,0.171h-0.171l-0.599-0.085v0.085
			H311.595z M311.082,146.123c0.092,0.077,0.191,0.148,0.299,0.214l-0.213-0.085L311.082,146.123z M331.262,143.515l1.282-0.94
			l0.94-0.513c0.342-0.285,0.685-0.456,1.026-0.513l1.967-0.599c-0.781,0.974-1.237,2.114-1.368,3.42h-0.086l-2.565,1.111
			l-3.591,2.138h-0.77l-0.599-0.171l-0.342-0.77l0.428-0.342l0.684-0.427l1.197-0.77l0.855-0.77l-0.855,0.77l-1.197,0.77
			l2.053-1.539L331.262,143.515l-0.94,0.855c0.21-0.301,0.509-0.615,0.897-0.941L331.262,143.515z M354.519,146.336l-1.368,0.77
			l-0.128-0.085L354.519,146.336l-1.496,0.684l-3.035-1.967l-2.993-1.282l-0.085,0.256c-0.007-0.934-0.249-1.789-0.728-2.565
			l1.411,0.427v-0.085l0.428,0.256l-0.428-0.171l0.428,0.171h0.086l3.249,1.796h0.171c0.452,0.323,0.88,0.637,1.282,0.94
			C353.452,145.327,354.022,145.84,354.519,146.336z"/>
		<path fill-rule="evenodd" clip-rule="evenodd" fill="#FFFFFF" d="M288.295,149.115l-0.299-0.128l0.171-0.086l0.085,0.086v0.085
			v-0.085l-0.085-0.086l3.164-2.052c0.816-0.544,1.786-0.986,2.907-1.325c-0.046,0.293-0.074,0.593-0.085,0.897
			c-0.057,1.596,0.428,3.021,1.454,4.275c0.85,0.892,1.818,1.448,2.907,1.667l-2.736-0.214l-1.625-0.513l-5.9-2.565L288.295,149.115
			z M297.059,144.455l1.197,0.599c0.342,0.342,0.484,0.741,0.427,1.197c0.057,0.57-0.114,1.055-0.513,1.454l-1.326,0.427h-0.042
			l-1.197-0.513c-0.285-0.342-0.428-0.741-0.428-1.197c0.057-0.57,0.229-1.026,0.513-1.368L297.059,144.455z M311.553,148.688
			l0.042,0.042h-0.085L311.553,148.688l-0.043,0.042l-0.257-0.042l-0.171-0.128l-0.086,0.085l-1.881,1.283l-0.854,0.428l-4.19,1.411
			l-2.437,0.47l-1.154,0.171c1.217-0.22,2.3-0.875,3.249-1.966c1.14-1.197,1.71-2.594,1.71-4.19c0.009-0.254,0.009-0.496,0-0.727
			l0.514,0.042l2.479,1.026C309.664,147.153,310.705,147.852,311.553,148.688z M345.113,150.441c-1.71,0.456-3.164,0.655-4.36,0.598
			l-5.302-0.855l-4.019-1.368l-1.882-1.283l-0.684,0.085l3.591-2.138l2.565-1.111h0.086c0.004,0.049,0.004,0.106,0,0.171
			c0,1.539,0.541,2.907,1.624,4.104c1.141,1.254,2.48,1.853,4.02,1.796c1.652,0,3.049-0.627,4.189-1.881
			c1.254-1.197,1.909-2.622,1.967-4.275c0.003-0.086,0.003-0.171,0-0.256l0.085-0.256l2.993,1.282l3.035,1.967l-3.463,1.582
			L345.113,150.441z M353.15,147.106l-3.591,1.497l3.463-1.582L353.15,147.106z M337.931,143.13l1.111,0.471
			c0.343,0.399,0.514,0.826,0.514,1.282c-0.058,0.456-0.257,0.884-0.599,1.283l-0.727,0.342l-0.557,0.257l-1.196-0.513
			c-0.343-0.399-0.514-0.855-0.514-1.368c0.058-0.456,0.229-0.855,0.514-1.197l1.368-0.598L337.931,143.13z"/>
		<path fill-rule="evenodd" clip-rule="evenodd" fill="#5C2E01" d="M300.479,152.407c-0.132,0.029-0.26,0.057-0.385,0.086
			c-0.076-0.005-0.147-0.005-0.214,0l-1.368-0.128c-1.089-0.22-2.058-0.775-2.907-1.667c-1.026-1.254-1.511-2.679-1.454-4.275
			c0.011-0.305,0.04-0.604,0.085-0.897c0.175-0.926,0.56-1.781,1.154-2.565c0.028-0.036,0.056-0.079,0.086-0.128l1.752-0.598
			l6.499-0.342l0.299,0.043c0.03,0.034,0.06,0.062,0.086,0.085c0.794,0.992,1.235,2.161,1.325,3.506c0.009,0.23,0.009,0.473,0,0.727
			c0,1.596-0.57,2.993-1.71,4.19C302.779,151.532,301.696,152.188,300.479,152.407z M296.845,148.132
			c0.141,0.284,0.327,0.54,0.556,0.77c0.627,0.684,1.396,0.969,2.309,0.855c0.912,0.114,1.71-0.2,2.394-0.94
			c0.628-0.741,0.941-1.625,0.941-2.651c0-0.355-0.043-0.697-0.129-1.026c-0.151-0.479-0.394-0.935-0.727-1.368
			c-0.627-0.627-1.368-0.969-2.223-1.026c-0.912,0.057-1.739,0.428-2.479,1.112c-0.157,0.199-0.299,0.398-0.428,0.598l-1.368,0.599
			c-0.285,0.342-0.456,0.798-0.513,1.368c0,0.456,0.143,0.855,0.428,1.197l1.197,0.513H296.845z M346.182,141.463
			c0.479,0.776,0.721,1.631,0.728,2.565c0.003,0.085,0.003,0.17,0,0.256c-0.058,1.653-0.713,3.079-1.967,4.275
			c-1.141,1.254-2.537,1.881-4.189,1.881c-1.539,0.057-2.879-0.542-4.02-1.796c-1.083-1.197-1.624-2.565-1.624-4.104
			c0.004-0.065,0.004-0.122,0-0.171c0.131-1.307,0.587-2.447,1.368-3.42l0.599-0.085l0.427-0.086l3.506-0.171l3.249,0.257
			l1.882,0.513L346.182,141.463z M338.23,146.507c0.083,0.147,0.183,0.29,0.299,0.428c0.685,0.684,1.454,1.026,2.309,1.026
			c0.969-0.057,1.824-0.427,2.565-1.111c0.684-0.741,1.026-1.568,1.026-2.479c0.015-0.235,0-0.463-0.043-0.685
			c-0.091-0.646-0.39-1.245-0.898-1.795c-0.627-0.627-1.425-0.94-2.394-0.94c-0.855,0.057-1.653,0.399-2.395,1.026
			c-0.333,0.361-0.59,0.746-0.77,1.154l-0.085-0.042l-1.368,0.598c-0.285,0.342-0.456,0.741-0.514,1.197
			c0,0.513,0.171,0.969,0.514,1.368l1.196,0.513L338.23,146.507z"/>
		<path fill-rule="evenodd" clip-rule="evenodd" d="M297.059,144.455c0.128-0.2,0.271-0.399,0.428-0.598
			c0.741-0.684,1.567-1.055,2.479-1.112c0.855,0.057,1.596,0.399,2.223,1.026c0.333,0.433,0.575,0.889,0.727,1.368
			c0.086,0.329,0.129,0.67,0.129,1.026c0,1.026-0.313,1.91-0.941,2.651c-0.684,0.741-1.481,1.054-2.394,0.94
			c-0.912,0.114-1.682-0.171-2.309-0.855c-0.229-0.229-0.415-0.486-0.556-0.77l1.326-0.427c0.399-0.399,0.57-0.884,0.513-1.454
			c0.057-0.456-0.085-0.855-0.427-1.197L297.059,144.455z M337.931,143.13c0.18-0.408,0.437-0.793,0.77-1.154
			c0.741-0.627,1.539-0.969,2.395-1.026c0.969,0,1.767,0.313,2.394,0.94c0.509,0.55,0.808,1.149,0.898,1.795
			c0.043,0.222,0.058,0.45,0.043,0.685c0,0.912-0.343,1.738-1.026,2.479c-0.741,0.684-1.597,1.055-2.565,1.111
			c-0.854,0-1.624-0.342-2.309-1.026c-0.116-0.138-0.216-0.28-0.299-0.428l0.727-0.342c0.342-0.399,0.541-0.827,0.599-1.283
			c0-0.456-0.171-0.883-0.514-1.282L337.931,143.13z"/>
		<path fill-rule="evenodd" clip-rule="evenodd" fill="#F4AA79" d="M305.438,139.154c0.441,0.156,0.854,0.313,1.24,0.47
			c2.776,1.263,3.788,2.873,3.035,4.831l-1.282-0.854c-0.114-0.171-0.313-0.285-0.599-0.342l-0.257-0.256l-2.479-0.855l-1.069-0.213
			l-0.299-0.043l-6.499,0.342l-1.752,0.598l-1.155,0.428l-0.427,0.085l-0.513,0.257l-0.171,0.085
			c-0.99,0.494-2.016,1.063-3.078,1.71l-0.085,0.171h-0.086c0.057-1.653,1.254-3.192,3.591-4.617l1.753-0.727l0.898-0.385
			c1.539-0.627,3.021-0.969,4.446-1.026l0.77-0.171h0.599l2.65,0.427l0.342-0.085L305.438,139.154z M298.513,152.365l1.368,0.128
			c0.067-0.005,0.138-0.005,0.214,0c0.125-0.029,0.253-0.057,0.385-0.086l1.154-0.171l1.753-0.256l0.684-0.214l4.19-1.411
			l0.854-0.428l1.881-1.283l0.086-0.085l0.171,0.128l0.086,0.042h0.085l-1.624,2.138l-3.164,2.736
			c-1.083,0.684-2.194,1.083-3.335,1.197l-1.111,0.085c-4.104,1.653-7.553,1.282-10.346-1.112c-0.912-0.741-1.739-1.653-2.479-2.736
			l-1.069-1.924l-0.043-0.042l5.9,2.565l1.625,0.513L298.513,152.365z M337.076,140.864h-0.428l-0.599,0.171l-1.539,0.513
			c-0.342,0.057-0.685,0.228-1.026,0.513l-0.94,0.513l-1.282,0.94l-0.043-0.085c-0.67-2.125,0.912-3.892,4.745-5.301l0.428-0.171
			l0.428-0.085l2.65-0.257l0.043-0.042l0.043-0.043h1.025c1.653,0.114,3.307,0.428,4.96,0.94c0.428,0.155,0.855,0.312,1.282,0.471
			l0.471,0.171l0.813,0.299l1.196,0.513l2.138,3.848l-0.085,0.085c-1.197-0.855-2.451-1.539-3.763-2.052l-1.453-0.428l-1.882-0.513
			l-3.249-0.257l-3.506,0.171L337.076,140.864z M329.209,147.705l0.342-0.171l1.882,1.283l4.019,1.368l5.302,0.855
			c1.196,0.057,2.65-0.142,4.36-0.598c-2.28,1.767-4.418,2.736-6.413,2.907l-1.453,0.086c-2.338-0.285-4.504-1.539-6.499-3.762
			L329.209,147.705z"/>
		<path fill-rule="evenodd" clip-rule="evenodd" fill="#EBB683" d="M336.05,141.035l0.599-0.171h0.428l-0.599,0.085L336.05,141.035z
			 M351.355,143.857l0.085-0.085l0.171,0.085h-0.085H351.355z"/>
		
			<path fill-rule="evenodd" clip-rule="evenodd" fill="none" stroke="#3A7B27" stroke-width="0.5" stroke-linecap="round" stroke-linejoin="round" stroke-miterlimit="3" d="
			M281.668,414.226c-0.057,0.514-0.114,1.026-0.171,1.539"/>
		
			<path fill-rule="evenodd" clip-rule="evenodd" fill="none" stroke="#BD7D23" stroke-width="0.25" stroke-linecap="round" stroke-linejoin="round" stroke-miterlimit="3" d="
			M305.438,139.154l-0.428-0.171l-0.342,0.085l-2.65-0.427h-0.599l-0.77,0.171c-1.425,0.057-2.907,0.399-4.446,1.026l-0.898,0.385
			l-1.753,0.727 M290.048,145.567l0.085-0.171c1.063-0.647,2.088-1.217,3.078-1.71l0.171-0.085l0.513-0.257l0.427-0.085l1.155-0.428
			l1.752-0.598l6.499-0.342l0.299,0.043l1.069,0.213l2.479,0.855l0.257,0.256c0.285,0.057,0.484,0.171,0.599,0.342l1.282,0.854
			 M293.896,143.429l-0.513,0.171 M293.896,143.429l1.496-0.47 M288.167,148.901l0.085,0.086v0.085l5.9,2.565l1.625,0.513
			l2.736,0.214 M306.679,139.624l1.838,0.471l0.685,0.256c1.596,0.798,2.907,1.653,3.933,2.565l1.796,2.395 M304.113,142.019
			l0.385,0.042l2.993,1.026l0.94,0.684c1.025,0.57,1.682,1.14,1.967,1.71c0.192,0.217,0.421,0.431,0.684,0.641l-0.513-0.727
			l-0.855-0.941 M311.553,148.688l0.128-0.128l0.171,0.085l0.428-0.085h0.085l0.599-0.085l0.171-0.128l0.257-0.556l-0.428-0.513
			l-0.599-0.256c-0.368-0.221-0.695-0.449-0.983-0.684l-0.213-0.085l-0.086-0.128c0.092,0.077,0.191,0.148,0.299,0.214l0.983,0.513
			l0.343,0.256h0.256l0.086,0.085c0.171,0.114,0.313,0.257,0.428,0.428v0.171l-0.086,0.257l-0.171,0.256l-0.086,0.042l-0.085,0.214
			l-0.599,0.171h-0.171l-0.599-0.085v0.085h-0.086h-0.085h-0.086h-0.085l-0.086-0.042 M300.479,152.407l1.154-0.171l2.437-0.47
			l4.19-1.411l0.854-0.428l1.881-1.283l0.086-0.085l0.171,0.128l0.257,0.042l0.043-0.042 M289.577,145.995
			c0.15-0.114,0.307-0.229,0.471-0.342v-0.085L289.577,145.995z M288.808,146.55c0.153-0.096,0.31-0.195,0.471-0.299l0.299-0.256
			C289.311,146.187,289.055,146.372,288.808,146.55z M287.91,144.797l4.36-3.334c1.01-0.483,2.022-0.896,3.036-1.24
			 M288.167,148.901l-1.112-0.684c0.147-0.197,0.319-0.396,0.513-0.599c-0.25,0.235-0.478,0.463-0.684,0.684l1.112,0.684
			 M288.295,149.115l-0.299-0.128 M304.07,151.766l-0.684,0.214l-1.753,0.256 M300.479,152.407c-0.132,0.029-0.26,0.057-0.385,0.086
			c-0.076-0.005-0.147-0.005-0.214,0l-1.368-0.128 M287.568,147.619c0.371-0.345,0.785-0.701,1.24-1.069 M290.048,145.567
			l3.164-1.881 M349.303,139.924c0.287,0.16,0.558,0.316,0.813,0.47l-0.727-0.556l-2.095-0.727l0.813,0.299 M339.513,137.572
			l0.043-0.043h1.025c1.653,0.114,3.307,0.428,4.96,0.94c0.428,0.155,0.855,0.312,1.282,0.471l0.471,0.171 M346.14,141.377
			l-1.882-0.513l-3.249-0.257l-3.506,0.171l-0.427,0.086l-0.599,0.085 M347.593,141.805l-1.453-0.428 M348.021,142.061l-0.428-0.171
			l-1.411-0.427 M353.022,147.021l1.496-0.684c-0.496-0.497-1.066-1.01-1.71-1.539c-0.402-0.304-0.83-0.618-1.282-0.94h-0.171
			l-3.249-1.796h-0.086 M347.593,141.805l0.428,0.256 M352.809,144.797l-0.513-0.427l-0.77-0.513 M353.664,143.087l-3.549-2.694
			 M351.355,143.857c-1.197-0.855-2.451-1.539-3.763-2.052 M345.113,150.441l1.197-0.342l3.249-1.496L345.113,150.441
			c-1.71,0.456-3.164,0.655-4.36,0.598l-5.302-0.855l-4.019-1.368l-1.882-1.283l-0.342,0.171l-0.342-0.085 M353.15,147.106
			l-3.591,1.497l3.463-1.582 M353.15,147.106l1.368-0.77 M335.964,138.128h-0.171l-0.256,0.085h-0.343l-2.052,0.77h-0.214
			c-0.173,0.058-0.344,0.129-0.513,0.214l-0.385,0.214h-0.086c-1.71,0.741-3.135,1.625-4.275,2.65
			c-0.798,0.684-1.425,1.454-1.881,2.309 M332.929,138.983l-0.299,0.085l-0.214,0.128 M336.05,141.035l-1.539,0.513l1.967-0.599
			L336.05,141.035z M335.194,138.213c-0.866,0.218-1.721,0.503-2.564,0.855l-0.685,0.342 M331.219,143.429
			c-0.389,0.326-0.688,0.64-0.897,0.941l0.94-0.855l1.282-0.94l0.94-0.513c0.342-0.285,0.685-0.456,1.026-0.513 M330.321,144.37
			l-0.855,0.77l-1.197,0.77l-0.684,0.427l-0.428,0.342l0.342,0.77l0.599,0.171h0.77 M328.269,145.909l-0.342,0.171l-0.342,0.256
			 M328.269,145.909l2.053-1.539 M336.819,137.872l2.65-0.257l0.043-0.042C338.62,137.607,337.723,137.708,336.819,137.872z
			 M335.964,138.128l0.428-0.171l0.428-0.085c-0.546,0.087-1.088,0.201-1.625,0.342 M337.076,140.864h-0.428l-0.599,0.171
			 M327.157,146.679v0.427l0.342,0.342 M329.551,147.534l-0.684,0.085"/>
	</g>
	<g>
		
			<path fill-rule="evenodd" clip-rule="evenodd" fill="none" stroke="#DA825C" stroke-width="0.2" stroke-linecap="round" stroke-linejoin="round" stroke-miterlimit="3" d="
			M315.614,155.828c0.342,2.85,0.085,5.358-0.77,7.524c-0.912,2.166-1.084,3.848-0.514,5.045c0.342,0.798,1.083,1.425,2.224,1.881
			 M312.878,168.397c-0.456-0.342-0.884-0.228-1.283,0.342l-1.111,2.651l0.171,0.513l0.685,0.855l1.624,0.428h0.257l-0.171-0.171
			l-0.685-0.94l0.855-0.171l2.395,1.539l0.854,0.427c0.229,0.171,0.456,0.313,0.685,0.428c0.284,0.171,0.569,0.313,0.854,0.428
			h2.053c0.342-0.114,0.684-0.285,1.025-0.513l0.171-0.171l0.171-0.085l0.599-0.171c0.229-0.228,0.456-0.456,0.685-0.684
			c0.57-0.399,1.168-0.712,1.796-0.94l1.025,0.171l-0.342,0.599l-0.428,0.342l0.77,0.086l1.368-0.428
			c0.456-0.228,0.798-0.57,1.026-1.026l0.085-0.085v-0.428c0.114-0.456-0.085-1.026-0.598-1.71l-0.257-0.513
			c-0.741-0.798-1.71-0.94-2.907-0.428 M322.026,173.784l2.309-0.513h0.428 M313.22,173.186l2.395,0.256"/>
	</g>
	
		<use xlink:href="#Duplicate_Items_Folder_x2F_Symbgol_1"  width="75.491" height="84.849" x="-0.947" y="-83.05" transform="matrix(1.7101 0 0 -1.7101 270.8999 63.0498)" overflow="visible"/>
	
		<use xlink:href="#Duplicate_Items_Folder_x2F_Sygmbol_2"  width="13.05" height="6.863" x="-0.4" y="-6.263" transform="matrix(1.7101 0 0 -1.7101 309.5498 182.6001)" overflow="visible"/>
	<g>
		<g>
			<path fill-rule="evenodd" clip-rule="evenodd" fill="#77BB63" d="M379.572,225.087c-0.685,12.085-2.65,22.26-5.9,30.526
				c-2.508,6.441-6.042,12.17-10.603,17.187c-4.275,4.845-8.722,8.066-13.339,9.662c-5.13,1.824-8.065,0.456-8.807-4.104
				c-1.71-10.09-6.043-13.824-12.997-11.201c-1.938,0.684-3.363,3.62-4.275,8.807c-0.741,4.39-3.221,6.271-7.439,5.644
				c-4.73-0.684-8.721-2.594-11.971-5.729l-3.463-4.446c-2.874-7.386-3.543-15.994-2.009-25.823l2.266-12.142h0.043
				c1.113-2.008,2.367-3.718,3.762-5.13c1.398-1.398,2.411-2.51,3.036-3.334c0.613-0.826,2.466-2.094,5.558-3.805
				c3.094-1.712,5.587-2.867,7.481-3.463c-6.77,15.882-8.309,27.881-4.617,35.998c4.617,3.706,14.964,1.511,31.039-6.584
				c1.14-0.57,2.251-1.168,3.334-1.795c13.795-8.323,20.721-21.49,20.778-39.503C377.149,207.616,379.857,214.028,379.572,225.087z"
				/>
			
				<path fill-rule="evenodd" clip-rule="evenodd" fill="none" stroke="#3A7B27" stroke-width="0.5" stroke-linecap="round" stroke-linejoin="round" stroke-miterlimit="3" d="
				M301.035,233.467h0.043c1.113-2.008,2.367-3.718,3.762-5.13c1.398-1.398,2.411-2.51,3.036-3.334
				c0.613-0.826,2.466-2.094,5.558-3.805c3.094-1.712,5.587-2.867,7.481-3.463c-6.77,15.882-8.309,27.881-4.617,35.998
				c4.617,3.706,14.964,1.511,31.039-6.584c1.14-0.57,2.251-1.168,3.334-1.795c13.795-8.323,20.721-21.49,20.778-39.503
				c5.7,1.767,8.408,8.18,8.123,19.238"/>
		</g>
	</g>
	<g>
		
			<use xlink:href="#Duplicate_Items_Folder_x2F_Sygmbol_6"  width="25.573" height="85" x="-0.25" y="-84.75" transform="matrix(1.7101 0 0 -1.7101 241.4502 246.2002)" overflow="visible"/>
		
			<use xlink:href="#Duplicate_Items_Folder_x2F_Sygmbol_3"  width="55.435" height="26.308" x="-0.235" y="-26.05" transform="matrix(1.7101 0 0 -1.7101 189.6499 374.4004)" overflow="visible"/>
		
			<use xlink:href="#Duplicate_Items_Folder_x2F_Sgymbol_8"  width="105.611" height="102.825" x="-6.194" y="-102.575" transform="matrix(1.7101 0 0 -1.7101 270.7002 225.1001)" overflow="visible"/>
		
			<use xlink:href="#Duplicate_Items_Folder_x2F_Sygmbol_7"  width="31.084" height="98.951" x="-0.234" y="-98.701" transform="matrix(1.3572 1.0405 1.0405 -1.3572 415.4502 238.6001)" overflow="visible"/>
		
			<use xlink:href="#Duplicate_Items_Folder_x2F_Sygmbol_5"  width="121.968" height="30.38" x="-0.268" y="-30.38" transform="matrix(-0.2061 1.8734 1.6999 0.187 393.9004 164.2998)" overflow="visible"/>
	</g>
</g>
<g id="Layer_1">
	
		<path fill-rule="evenodd" clip-rule="evenodd" fill="none" stroke="#E29D59" stroke-width="0.5" stroke-linecap="round" stroke-linejoin="round" stroke-miterlimit="3" d="
		M374.869,167.285c-0.057-1.254,0.827-3.021,2.65-5.301c1.882-2.28,3.363-3.42,4.446-3.42c1.141,0,1.739,0.171,1.796,0.513
		c0.058,0.342,0.143,1.368,0.257,3.079"/>
</g>
<g id="Layer_9">
	
		<use xlink:href="#Duplicate_Items_Folder_x2F_Symgbol_9"  width="118.75" height="69.2" y="-69.2" transform="matrix(1.7101 0 0 -1.7101 85.6001 334.7002)" overflow="visible"/>
</g>
</svg>
